%TF.GenerationSoftware,KiCad,Pcbnew,8.0.1*%
%TF.CreationDate,2024-06-17T11:29:09-04:00*%
%TF.ProjectId,Bluetooth Mosfet,426c7565-746f-46f7-9468-204d6f736665,1*%
%TF.SameCoordinates,Original*%
%TF.FileFunction,Legend,Top*%
%TF.FilePolarity,Positive*%
%FSLAX46Y46*%
G04 Gerber Fmt 4.6, Leading zero omitted, Abs format (unit mm)*
G04 Created by KiCad (PCBNEW 8.0.1) date 2024-06-17 11:29:09*
%MOMM*%
%LPD*%
G01*
G04 APERTURE LIST*
%ADD10C,0.100000*%
%ADD11C,0.150000*%
%ADD12C,0.300000*%
%ADD13C,0.400000*%
%ADD14C,0.120000*%
G04 APERTURE END LIST*
D10*
D11*
X12080000Y-103320000D02*
X120080000Y-103320000D01*
X120080000Y-135320000D01*
X12080000Y-135320000D01*
X12080000Y-103320000D01*
D10*
D11*
X10000000Y-10000000D02*
X122080000Y-10000000D01*
X122080000Y-137320000D01*
X10000000Y-137320000D01*
X10000000Y-10000000D01*
D10*
D11*
X12000000Y-12000000D02*
X120080000Y-12000000D01*
X120080000Y-135320000D01*
X12000000Y-135320000D01*
X12000000Y-12000000D01*
D10*
D11*
X60000000Y-12000000D02*
X60000000Y-10000000D01*
D10*
D11*
X110000000Y-12000000D02*
X110000000Y-10000000D01*
D10*
D11*
X36089160Y-11593604D02*
X35346303Y-11593604D01*
X35717731Y-11593604D02*
X35717731Y-10293604D01*
X35717731Y-10293604D02*
X35593922Y-10479319D01*
X35593922Y-10479319D02*
X35470112Y-10603128D01*
X35470112Y-10603128D02*
X35346303Y-10665033D01*
D10*
D11*
X85346303Y-10417414D02*
X85408207Y-10355509D01*
X85408207Y-10355509D02*
X85532017Y-10293604D01*
X85532017Y-10293604D02*
X85841541Y-10293604D01*
X85841541Y-10293604D02*
X85965350Y-10355509D01*
X85965350Y-10355509D02*
X86027255Y-10417414D01*
X86027255Y-10417414D02*
X86089160Y-10541223D01*
X86089160Y-10541223D02*
X86089160Y-10665033D01*
X86089160Y-10665033D02*
X86027255Y-10850747D01*
X86027255Y-10850747D02*
X85284398Y-11593604D01*
X85284398Y-11593604D02*
X86089160Y-11593604D01*
D10*
D11*
X60000000Y-135320000D02*
X60000000Y-137320000D01*
D10*
D11*
X110000000Y-135320000D02*
X110000000Y-137320000D01*
D10*
D11*
X36089160Y-136913604D02*
X35346303Y-136913604D01*
X35717731Y-136913604D02*
X35717731Y-135613604D01*
X35717731Y-135613604D02*
X35593922Y-135799319D01*
X35593922Y-135799319D02*
X35470112Y-135923128D01*
X35470112Y-135923128D02*
X35346303Y-135985033D01*
D10*
D11*
X85346303Y-135737414D02*
X85408207Y-135675509D01*
X85408207Y-135675509D02*
X85532017Y-135613604D01*
X85532017Y-135613604D02*
X85841541Y-135613604D01*
X85841541Y-135613604D02*
X85965350Y-135675509D01*
X85965350Y-135675509D02*
X86027255Y-135737414D01*
X86027255Y-135737414D02*
X86089160Y-135861223D01*
X86089160Y-135861223D02*
X86089160Y-135985033D01*
X86089160Y-135985033D02*
X86027255Y-136170747D01*
X86027255Y-136170747D02*
X85284398Y-136913604D01*
X85284398Y-136913604D02*
X86089160Y-136913604D01*
D10*
D11*
X10000000Y-60000000D02*
X12000000Y-60000000D01*
D10*
D11*
X10000000Y-110000000D02*
X12000000Y-110000000D01*
D10*
D11*
X10690476Y-35222176D02*
X11309523Y-35222176D01*
X10566666Y-35593604D02*
X10999999Y-34293604D01*
X10999999Y-34293604D02*
X11433333Y-35593604D01*
D10*
D11*
X11092857Y-84912652D02*
X11278571Y-84974557D01*
X11278571Y-84974557D02*
X11340476Y-85036461D01*
X11340476Y-85036461D02*
X11402380Y-85160271D01*
X11402380Y-85160271D02*
X11402380Y-85345985D01*
X11402380Y-85345985D02*
X11340476Y-85469795D01*
X11340476Y-85469795D02*
X11278571Y-85531700D01*
X11278571Y-85531700D02*
X11154761Y-85593604D01*
X11154761Y-85593604D02*
X10659523Y-85593604D01*
X10659523Y-85593604D02*
X10659523Y-84293604D01*
X10659523Y-84293604D02*
X11092857Y-84293604D01*
X11092857Y-84293604D02*
X11216666Y-84355509D01*
X11216666Y-84355509D02*
X11278571Y-84417414D01*
X11278571Y-84417414D02*
X11340476Y-84541223D01*
X11340476Y-84541223D02*
X11340476Y-84665033D01*
X11340476Y-84665033D02*
X11278571Y-84788842D01*
X11278571Y-84788842D02*
X11216666Y-84850747D01*
X11216666Y-84850747D02*
X11092857Y-84912652D01*
X11092857Y-84912652D02*
X10659523Y-84912652D01*
D10*
D11*
X11402380Y-135469795D02*
X11340476Y-135531700D01*
X11340476Y-135531700D02*
X11154761Y-135593604D01*
X11154761Y-135593604D02*
X11030952Y-135593604D01*
X11030952Y-135593604D02*
X10845238Y-135531700D01*
X10845238Y-135531700D02*
X10721428Y-135407890D01*
X10721428Y-135407890D02*
X10659523Y-135284080D01*
X10659523Y-135284080D02*
X10597619Y-135036461D01*
X10597619Y-135036461D02*
X10597619Y-134850747D01*
X10597619Y-134850747D02*
X10659523Y-134603128D01*
X10659523Y-134603128D02*
X10721428Y-134479319D01*
X10721428Y-134479319D02*
X10845238Y-134355509D01*
X10845238Y-134355509D02*
X11030952Y-134293604D01*
X11030952Y-134293604D02*
X11154761Y-134293604D01*
X11154761Y-134293604D02*
X11340476Y-134355509D01*
X11340476Y-134355509D02*
X11402380Y-134417414D01*
D10*
D11*
X122080000Y-60000000D02*
X120080000Y-60000000D01*
D10*
D11*
X122080000Y-110000000D02*
X120080000Y-110000000D01*
D10*
D11*
X120770476Y-35222176D02*
X121389523Y-35222176D01*
X120646666Y-35593604D02*
X121079999Y-34293604D01*
X121079999Y-34293604D02*
X121513333Y-35593604D01*
D10*
D11*
X121172857Y-84912652D02*
X121358571Y-84974557D01*
X121358571Y-84974557D02*
X121420476Y-85036461D01*
X121420476Y-85036461D02*
X121482380Y-85160271D01*
X121482380Y-85160271D02*
X121482380Y-85345985D01*
X121482380Y-85345985D02*
X121420476Y-85469795D01*
X121420476Y-85469795D02*
X121358571Y-85531700D01*
X121358571Y-85531700D02*
X121234761Y-85593604D01*
X121234761Y-85593604D02*
X120739523Y-85593604D01*
X120739523Y-85593604D02*
X120739523Y-84293604D01*
X120739523Y-84293604D02*
X121172857Y-84293604D01*
X121172857Y-84293604D02*
X121296666Y-84355509D01*
X121296666Y-84355509D02*
X121358571Y-84417414D01*
X121358571Y-84417414D02*
X121420476Y-84541223D01*
X121420476Y-84541223D02*
X121420476Y-84665033D01*
X121420476Y-84665033D02*
X121358571Y-84788842D01*
X121358571Y-84788842D02*
X121296666Y-84850747D01*
X121296666Y-84850747D02*
X121172857Y-84912652D01*
X121172857Y-84912652D02*
X120739523Y-84912652D01*
D10*
D11*
X121482380Y-135469795D02*
X121420476Y-135531700D01*
X121420476Y-135531700D02*
X121234761Y-135593604D01*
X121234761Y-135593604D02*
X121110952Y-135593604D01*
X121110952Y-135593604D02*
X120925238Y-135531700D01*
X120925238Y-135531700D02*
X120801428Y-135407890D01*
X120801428Y-135407890D02*
X120739523Y-135284080D01*
X120739523Y-135284080D02*
X120677619Y-135036461D01*
X120677619Y-135036461D02*
X120677619Y-134850747D01*
X120677619Y-134850747D02*
X120739523Y-134603128D01*
X120739523Y-134603128D02*
X120801428Y-134479319D01*
X120801428Y-134479319D02*
X120925238Y-134355509D01*
X120925238Y-134355509D02*
X121110952Y-134293604D01*
X121110952Y-134293604D02*
X121234761Y-134293604D01*
X121234761Y-134293604D02*
X121420476Y-134355509D01*
X121420476Y-134355509D02*
X121482380Y-134417414D01*
D10*
D11*
X35535826Y-131106128D02*
X35535826Y-129606128D01*
X35535826Y-129606128D02*
X35892969Y-129606128D01*
X35892969Y-129606128D02*
X36107255Y-129677557D01*
X36107255Y-129677557D02*
X36250112Y-129820414D01*
X36250112Y-129820414D02*
X36321541Y-129963271D01*
X36321541Y-129963271D02*
X36392969Y-130248985D01*
X36392969Y-130248985D02*
X36392969Y-130463271D01*
X36392969Y-130463271D02*
X36321541Y-130748985D01*
X36321541Y-130748985D02*
X36250112Y-130891842D01*
X36250112Y-130891842D02*
X36107255Y-131034700D01*
X36107255Y-131034700D02*
X35892969Y-131106128D01*
X35892969Y-131106128D02*
X35535826Y-131106128D01*
X37678684Y-131106128D02*
X37678684Y-130320414D01*
X37678684Y-130320414D02*
X37607255Y-130177557D01*
X37607255Y-130177557D02*
X37464398Y-130106128D01*
X37464398Y-130106128D02*
X37178684Y-130106128D01*
X37178684Y-130106128D02*
X37035826Y-130177557D01*
X37678684Y-131034700D02*
X37535826Y-131106128D01*
X37535826Y-131106128D02*
X37178684Y-131106128D01*
X37178684Y-131106128D02*
X37035826Y-131034700D01*
X37035826Y-131034700D02*
X36964398Y-130891842D01*
X36964398Y-130891842D02*
X36964398Y-130748985D01*
X36964398Y-130748985D02*
X37035826Y-130606128D01*
X37035826Y-130606128D02*
X37178684Y-130534700D01*
X37178684Y-130534700D02*
X37535826Y-130534700D01*
X37535826Y-130534700D02*
X37678684Y-130463271D01*
X38178684Y-130106128D02*
X38750112Y-130106128D01*
X38392969Y-129606128D02*
X38392969Y-130891842D01*
X38392969Y-130891842D02*
X38464398Y-131034700D01*
X38464398Y-131034700D02*
X38607255Y-131106128D01*
X38607255Y-131106128D02*
X38750112Y-131106128D01*
X39821541Y-131034700D02*
X39678684Y-131106128D01*
X39678684Y-131106128D02*
X39392970Y-131106128D01*
X39392970Y-131106128D02*
X39250112Y-131034700D01*
X39250112Y-131034700D02*
X39178684Y-130891842D01*
X39178684Y-130891842D02*
X39178684Y-130320414D01*
X39178684Y-130320414D02*
X39250112Y-130177557D01*
X39250112Y-130177557D02*
X39392970Y-130106128D01*
X39392970Y-130106128D02*
X39678684Y-130106128D01*
X39678684Y-130106128D02*
X39821541Y-130177557D01*
X39821541Y-130177557D02*
X39892970Y-130320414D01*
X39892970Y-130320414D02*
X39892970Y-130463271D01*
X39892970Y-130463271D02*
X39178684Y-130606128D01*
X40535826Y-130963271D02*
X40607255Y-131034700D01*
X40607255Y-131034700D02*
X40535826Y-131106128D01*
X40535826Y-131106128D02*
X40464398Y-131034700D01*
X40464398Y-131034700D02*
X40535826Y-130963271D01*
X40535826Y-130963271D02*
X40535826Y-131106128D01*
X40535826Y-130177557D02*
X40607255Y-130248985D01*
X40607255Y-130248985D02*
X40535826Y-130320414D01*
X40535826Y-130320414D02*
X40464398Y-130248985D01*
X40464398Y-130248985D02*
X40535826Y-130177557D01*
X40535826Y-130177557D02*
X40535826Y-130320414D01*
X42321541Y-129748985D02*
X42392969Y-129677557D01*
X42392969Y-129677557D02*
X42535827Y-129606128D01*
X42535827Y-129606128D02*
X42892969Y-129606128D01*
X42892969Y-129606128D02*
X43035827Y-129677557D01*
X43035827Y-129677557D02*
X43107255Y-129748985D01*
X43107255Y-129748985D02*
X43178684Y-129891842D01*
X43178684Y-129891842D02*
X43178684Y-130034700D01*
X43178684Y-130034700D02*
X43107255Y-130248985D01*
X43107255Y-130248985D02*
X42250112Y-131106128D01*
X42250112Y-131106128D02*
X43178684Y-131106128D01*
X44107255Y-129606128D02*
X44250112Y-129606128D01*
X44250112Y-129606128D02*
X44392969Y-129677557D01*
X44392969Y-129677557D02*
X44464398Y-129748985D01*
X44464398Y-129748985D02*
X44535826Y-129891842D01*
X44535826Y-129891842D02*
X44607255Y-130177557D01*
X44607255Y-130177557D02*
X44607255Y-130534700D01*
X44607255Y-130534700D02*
X44535826Y-130820414D01*
X44535826Y-130820414D02*
X44464398Y-130963271D01*
X44464398Y-130963271D02*
X44392969Y-131034700D01*
X44392969Y-131034700D02*
X44250112Y-131106128D01*
X44250112Y-131106128D02*
X44107255Y-131106128D01*
X44107255Y-131106128D02*
X43964398Y-131034700D01*
X43964398Y-131034700D02*
X43892969Y-130963271D01*
X43892969Y-130963271D02*
X43821540Y-130820414D01*
X43821540Y-130820414D02*
X43750112Y-130534700D01*
X43750112Y-130534700D02*
X43750112Y-130177557D01*
X43750112Y-130177557D02*
X43821540Y-129891842D01*
X43821540Y-129891842D02*
X43892969Y-129748985D01*
X43892969Y-129748985D02*
X43964398Y-129677557D01*
X43964398Y-129677557D02*
X44107255Y-129606128D01*
X45178683Y-129748985D02*
X45250111Y-129677557D01*
X45250111Y-129677557D02*
X45392969Y-129606128D01*
X45392969Y-129606128D02*
X45750111Y-129606128D01*
X45750111Y-129606128D02*
X45892969Y-129677557D01*
X45892969Y-129677557D02*
X45964397Y-129748985D01*
X45964397Y-129748985D02*
X46035826Y-129891842D01*
X46035826Y-129891842D02*
X46035826Y-130034700D01*
X46035826Y-130034700D02*
X45964397Y-130248985D01*
X45964397Y-130248985D02*
X45107254Y-131106128D01*
X45107254Y-131106128D02*
X46035826Y-131106128D01*
X47321540Y-130106128D02*
X47321540Y-131106128D01*
X46964397Y-129534700D02*
X46607254Y-130606128D01*
X46607254Y-130606128D02*
X47535825Y-130606128D01*
X48107253Y-130534700D02*
X49250111Y-130534700D01*
X50250111Y-129606128D02*
X50392968Y-129606128D01*
X50392968Y-129606128D02*
X50535825Y-129677557D01*
X50535825Y-129677557D02*
X50607254Y-129748985D01*
X50607254Y-129748985D02*
X50678682Y-129891842D01*
X50678682Y-129891842D02*
X50750111Y-130177557D01*
X50750111Y-130177557D02*
X50750111Y-130534700D01*
X50750111Y-130534700D02*
X50678682Y-130820414D01*
X50678682Y-130820414D02*
X50607254Y-130963271D01*
X50607254Y-130963271D02*
X50535825Y-131034700D01*
X50535825Y-131034700D02*
X50392968Y-131106128D01*
X50392968Y-131106128D02*
X50250111Y-131106128D01*
X50250111Y-131106128D02*
X50107254Y-131034700D01*
X50107254Y-131034700D02*
X50035825Y-130963271D01*
X50035825Y-130963271D02*
X49964396Y-130820414D01*
X49964396Y-130820414D02*
X49892968Y-130534700D01*
X49892968Y-130534700D02*
X49892968Y-130177557D01*
X49892968Y-130177557D02*
X49964396Y-129891842D01*
X49964396Y-129891842D02*
X50035825Y-129748985D01*
X50035825Y-129748985D02*
X50107254Y-129677557D01*
X50107254Y-129677557D02*
X50250111Y-129606128D01*
X52035825Y-129606128D02*
X51750110Y-129606128D01*
X51750110Y-129606128D02*
X51607253Y-129677557D01*
X51607253Y-129677557D02*
X51535825Y-129748985D01*
X51535825Y-129748985D02*
X51392967Y-129963271D01*
X51392967Y-129963271D02*
X51321539Y-130248985D01*
X51321539Y-130248985D02*
X51321539Y-130820414D01*
X51321539Y-130820414D02*
X51392967Y-130963271D01*
X51392967Y-130963271D02*
X51464396Y-131034700D01*
X51464396Y-131034700D02*
X51607253Y-131106128D01*
X51607253Y-131106128D02*
X51892967Y-131106128D01*
X51892967Y-131106128D02*
X52035825Y-131034700D01*
X52035825Y-131034700D02*
X52107253Y-130963271D01*
X52107253Y-130963271D02*
X52178682Y-130820414D01*
X52178682Y-130820414D02*
X52178682Y-130463271D01*
X52178682Y-130463271D02*
X52107253Y-130320414D01*
X52107253Y-130320414D02*
X52035825Y-130248985D01*
X52035825Y-130248985D02*
X51892967Y-130177557D01*
X51892967Y-130177557D02*
X51607253Y-130177557D01*
X51607253Y-130177557D02*
X51464396Y-130248985D01*
X51464396Y-130248985D02*
X51392967Y-130320414D01*
X51392967Y-130320414D02*
X51321539Y-130463271D01*
X52821538Y-130534700D02*
X53964396Y-130534700D01*
X55464396Y-131106128D02*
X54607253Y-131106128D01*
X55035824Y-131106128D02*
X55035824Y-129606128D01*
X55035824Y-129606128D02*
X54892967Y-129820414D01*
X54892967Y-129820414D02*
X54750110Y-129963271D01*
X54750110Y-129963271D02*
X54607253Y-130034700D01*
X55964395Y-129606128D02*
X56964395Y-129606128D01*
X56964395Y-129606128D02*
X56321538Y-131106128D01*
D10*
D11*
X12080000Y-131820000D02*
X120080000Y-131820000D01*
D10*
D11*
X13535826Y-133906128D02*
X13535826Y-132406128D01*
X14392969Y-133906128D02*
X13750112Y-133048985D01*
X14392969Y-132406128D02*
X13535826Y-133263271D01*
X15035826Y-133906128D02*
X15035826Y-132906128D01*
X15035826Y-132406128D02*
X14964398Y-132477557D01*
X14964398Y-132477557D02*
X15035826Y-132548985D01*
X15035826Y-132548985D02*
X15107255Y-132477557D01*
X15107255Y-132477557D02*
X15035826Y-132406128D01*
X15035826Y-132406128D02*
X15035826Y-132548985D01*
X16607255Y-133763271D02*
X16535827Y-133834700D01*
X16535827Y-133834700D02*
X16321541Y-133906128D01*
X16321541Y-133906128D02*
X16178684Y-133906128D01*
X16178684Y-133906128D02*
X15964398Y-133834700D01*
X15964398Y-133834700D02*
X15821541Y-133691842D01*
X15821541Y-133691842D02*
X15750112Y-133548985D01*
X15750112Y-133548985D02*
X15678684Y-133263271D01*
X15678684Y-133263271D02*
X15678684Y-133048985D01*
X15678684Y-133048985D02*
X15750112Y-132763271D01*
X15750112Y-132763271D02*
X15821541Y-132620414D01*
X15821541Y-132620414D02*
X15964398Y-132477557D01*
X15964398Y-132477557D02*
X16178684Y-132406128D01*
X16178684Y-132406128D02*
X16321541Y-132406128D01*
X16321541Y-132406128D02*
X16535827Y-132477557D01*
X16535827Y-132477557D02*
X16607255Y-132548985D01*
X17892970Y-133906128D02*
X17892970Y-133120414D01*
X17892970Y-133120414D02*
X17821541Y-132977557D01*
X17821541Y-132977557D02*
X17678684Y-132906128D01*
X17678684Y-132906128D02*
X17392970Y-132906128D01*
X17392970Y-132906128D02*
X17250112Y-132977557D01*
X17892970Y-133834700D02*
X17750112Y-133906128D01*
X17750112Y-133906128D02*
X17392970Y-133906128D01*
X17392970Y-133906128D02*
X17250112Y-133834700D01*
X17250112Y-133834700D02*
X17178684Y-133691842D01*
X17178684Y-133691842D02*
X17178684Y-133548985D01*
X17178684Y-133548985D02*
X17250112Y-133406128D01*
X17250112Y-133406128D02*
X17392970Y-133334700D01*
X17392970Y-133334700D02*
X17750112Y-133334700D01*
X17750112Y-133334700D02*
X17892970Y-133263271D01*
X19250113Y-133906128D02*
X19250113Y-132406128D01*
X19250113Y-133834700D02*
X19107255Y-133906128D01*
X19107255Y-133906128D02*
X18821541Y-133906128D01*
X18821541Y-133906128D02*
X18678684Y-133834700D01*
X18678684Y-133834700D02*
X18607255Y-133763271D01*
X18607255Y-133763271D02*
X18535827Y-133620414D01*
X18535827Y-133620414D02*
X18535827Y-133191842D01*
X18535827Y-133191842D02*
X18607255Y-133048985D01*
X18607255Y-133048985D02*
X18678684Y-132977557D01*
X18678684Y-132977557D02*
X18821541Y-132906128D01*
X18821541Y-132906128D02*
X19107255Y-132906128D01*
X19107255Y-132906128D02*
X19250113Y-132977557D01*
X21107255Y-133120414D02*
X21607255Y-133120414D01*
X21821541Y-133906128D02*
X21107255Y-133906128D01*
X21107255Y-133906128D02*
X21107255Y-132406128D01*
X21107255Y-132406128D02*
X21821541Y-132406128D01*
X22464398Y-133763271D02*
X22535827Y-133834700D01*
X22535827Y-133834700D02*
X22464398Y-133906128D01*
X22464398Y-133906128D02*
X22392970Y-133834700D01*
X22392970Y-133834700D02*
X22464398Y-133763271D01*
X22464398Y-133763271D02*
X22464398Y-133906128D01*
X23178684Y-133906128D02*
X23178684Y-132406128D01*
X23178684Y-132406128D02*
X23535827Y-132406128D01*
X23535827Y-132406128D02*
X23750113Y-132477557D01*
X23750113Y-132477557D02*
X23892970Y-132620414D01*
X23892970Y-132620414D02*
X23964399Y-132763271D01*
X23964399Y-132763271D02*
X24035827Y-133048985D01*
X24035827Y-133048985D02*
X24035827Y-133263271D01*
X24035827Y-133263271D02*
X23964399Y-133548985D01*
X23964399Y-133548985D02*
X23892970Y-133691842D01*
X23892970Y-133691842D02*
X23750113Y-133834700D01*
X23750113Y-133834700D02*
X23535827Y-133906128D01*
X23535827Y-133906128D02*
X23178684Y-133906128D01*
X24678684Y-133763271D02*
X24750113Y-133834700D01*
X24750113Y-133834700D02*
X24678684Y-133906128D01*
X24678684Y-133906128D02*
X24607256Y-133834700D01*
X24607256Y-133834700D02*
X24678684Y-133763271D01*
X24678684Y-133763271D02*
X24678684Y-133906128D01*
X25321542Y-133477557D02*
X26035828Y-133477557D01*
X25178685Y-133906128D02*
X25678685Y-132406128D01*
X25678685Y-132406128D02*
X26178685Y-133906128D01*
X26678684Y-133763271D02*
X26750113Y-133834700D01*
X26750113Y-133834700D02*
X26678684Y-133906128D01*
X26678684Y-133906128D02*
X26607256Y-133834700D01*
X26607256Y-133834700D02*
X26678684Y-133763271D01*
X26678684Y-133763271D02*
X26678684Y-133906128D01*
X28750113Y-133048985D02*
X28607256Y-132977557D01*
X28607256Y-132977557D02*
X28535827Y-132906128D01*
X28535827Y-132906128D02*
X28464399Y-132763271D01*
X28464399Y-132763271D02*
X28464399Y-132691842D01*
X28464399Y-132691842D02*
X28535827Y-132548985D01*
X28535827Y-132548985D02*
X28607256Y-132477557D01*
X28607256Y-132477557D02*
X28750113Y-132406128D01*
X28750113Y-132406128D02*
X29035827Y-132406128D01*
X29035827Y-132406128D02*
X29178685Y-132477557D01*
X29178685Y-132477557D02*
X29250113Y-132548985D01*
X29250113Y-132548985D02*
X29321542Y-132691842D01*
X29321542Y-132691842D02*
X29321542Y-132763271D01*
X29321542Y-132763271D02*
X29250113Y-132906128D01*
X29250113Y-132906128D02*
X29178685Y-132977557D01*
X29178685Y-132977557D02*
X29035827Y-133048985D01*
X29035827Y-133048985D02*
X28750113Y-133048985D01*
X28750113Y-133048985D02*
X28607256Y-133120414D01*
X28607256Y-133120414D02*
X28535827Y-133191842D01*
X28535827Y-133191842D02*
X28464399Y-133334700D01*
X28464399Y-133334700D02*
X28464399Y-133620414D01*
X28464399Y-133620414D02*
X28535827Y-133763271D01*
X28535827Y-133763271D02*
X28607256Y-133834700D01*
X28607256Y-133834700D02*
X28750113Y-133906128D01*
X28750113Y-133906128D02*
X29035827Y-133906128D01*
X29035827Y-133906128D02*
X29178685Y-133834700D01*
X29178685Y-133834700D02*
X29250113Y-133763271D01*
X29250113Y-133763271D02*
X29321542Y-133620414D01*
X29321542Y-133620414D02*
X29321542Y-133334700D01*
X29321542Y-133334700D02*
X29250113Y-133191842D01*
X29250113Y-133191842D02*
X29178685Y-133120414D01*
X29178685Y-133120414D02*
X29035827Y-133048985D01*
X29964398Y-133763271D02*
X30035827Y-133834700D01*
X30035827Y-133834700D02*
X29964398Y-133906128D01*
X29964398Y-133906128D02*
X29892970Y-133834700D01*
X29892970Y-133834700D02*
X29964398Y-133763271D01*
X29964398Y-133763271D02*
X29964398Y-133906128D01*
X30964399Y-132406128D02*
X31107256Y-132406128D01*
X31107256Y-132406128D02*
X31250113Y-132477557D01*
X31250113Y-132477557D02*
X31321542Y-132548985D01*
X31321542Y-132548985D02*
X31392970Y-132691842D01*
X31392970Y-132691842D02*
X31464399Y-132977557D01*
X31464399Y-132977557D02*
X31464399Y-133334700D01*
X31464399Y-133334700D02*
X31392970Y-133620414D01*
X31392970Y-133620414D02*
X31321542Y-133763271D01*
X31321542Y-133763271D02*
X31250113Y-133834700D01*
X31250113Y-133834700D02*
X31107256Y-133906128D01*
X31107256Y-133906128D02*
X30964399Y-133906128D01*
X30964399Y-133906128D02*
X30821542Y-133834700D01*
X30821542Y-133834700D02*
X30750113Y-133763271D01*
X30750113Y-133763271D02*
X30678684Y-133620414D01*
X30678684Y-133620414D02*
X30607256Y-133334700D01*
X30607256Y-133334700D02*
X30607256Y-132977557D01*
X30607256Y-132977557D02*
X30678684Y-132691842D01*
X30678684Y-132691842D02*
X30750113Y-132548985D01*
X30750113Y-132548985D02*
X30821542Y-132477557D01*
X30821542Y-132477557D02*
X30964399Y-132406128D01*
X32107255Y-133763271D02*
X32178684Y-133834700D01*
X32178684Y-133834700D02*
X32107255Y-133906128D01*
X32107255Y-133906128D02*
X32035827Y-133834700D01*
X32035827Y-133834700D02*
X32107255Y-133763271D01*
X32107255Y-133763271D02*
X32107255Y-133906128D01*
X33607256Y-133906128D02*
X32750113Y-133906128D01*
X33178684Y-133906128D02*
X33178684Y-132406128D01*
X33178684Y-132406128D02*
X33035827Y-132620414D01*
X33035827Y-132620414D02*
X32892970Y-132763271D01*
X32892970Y-132763271D02*
X32750113Y-132834700D01*
D10*
D11*
X12080000Y-128820000D02*
X120080000Y-128820000D01*
D10*
D12*
X99491653Y-131098328D02*
X98991653Y-130384042D01*
X98634510Y-131098328D02*
X98634510Y-129598328D01*
X98634510Y-129598328D02*
X99205939Y-129598328D01*
X99205939Y-129598328D02*
X99348796Y-129669757D01*
X99348796Y-129669757D02*
X99420225Y-129741185D01*
X99420225Y-129741185D02*
X99491653Y-129884042D01*
X99491653Y-129884042D02*
X99491653Y-130098328D01*
X99491653Y-130098328D02*
X99420225Y-130241185D01*
X99420225Y-130241185D02*
X99348796Y-130312614D01*
X99348796Y-130312614D02*
X99205939Y-130384042D01*
X99205939Y-130384042D02*
X98634510Y-130384042D01*
X100705939Y-131026900D02*
X100563082Y-131098328D01*
X100563082Y-131098328D02*
X100277368Y-131098328D01*
X100277368Y-131098328D02*
X100134510Y-131026900D01*
X100134510Y-131026900D02*
X100063082Y-130884042D01*
X100063082Y-130884042D02*
X100063082Y-130312614D01*
X100063082Y-130312614D02*
X100134510Y-130169757D01*
X100134510Y-130169757D02*
X100277368Y-130098328D01*
X100277368Y-130098328D02*
X100563082Y-130098328D01*
X100563082Y-130098328D02*
X100705939Y-130169757D01*
X100705939Y-130169757D02*
X100777368Y-130312614D01*
X100777368Y-130312614D02*
X100777368Y-130455471D01*
X100777368Y-130455471D02*
X100063082Y-130598328D01*
X101277367Y-130098328D02*
X101634510Y-131098328D01*
X101634510Y-131098328D02*
X101991653Y-130098328D01*
X102563081Y-130955471D02*
X102634510Y-131026900D01*
X102634510Y-131026900D02*
X102563081Y-131098328D01*
X102563081Y-131098328D02*
X102491653Y-131026900D01*
X102491653Y-131026900D02*
X102563081Y-130955471D01*
X102563081Y-130955471D02*
X102563081Y-131098328D01*
X102563081Y-130169757D02*
X102634510Y-130241185D01*
X102634510Y-130241185D02*
X102563081Y-130312614D01*
X102563081Y-130312614D02*
X102491653Y-130241185D01*
X102491653Y-130241185D02*
X102563081Y-130169757D01*
X102563081Y-130169757D02*
X102563081Y-130312614D01*
X105205939Y-131098328D02*
X104348796Y-131098328D01*
X104777367Y-131098328D02*
X104777367Y-129598328D01*
X104777367Y-129598328D02*
X104634510Y-129812614D01*
X104634510Y-129812614D02*
X104491653Y-129955471D01*
X104491653Y-129955471D02*
X104348796Y-130026900D01*
D10*
D11*
X13464398Y-131034700D02*
X13678684Y-131106128D01*
X13678684Y-131106128D02*
X14035826Y-131106128D01*
X14035826Y-131106128D02*
X14178684Y-131034700D01*
X14178684Y-131034700D02*
X14250112Y-130963271D01*
X14250112Y-130963271D02*
X14321541Y-130820414D01*
X14321541Y-130820414D02*
X14321541Y-130677557D01*
X14321541Y-130677557D02*
X14250112Y-130534700D01*
X14250112Y-130534700D02*
X14178684Y-130463271D01*
X14178684Y-130463271D02*
X14035826Y-130391842D01*
X14035826Y-130391842D02*
X13750112Y-130320414D01*
X13750112Y-130320414D02*
X13607255Y-130248985D01*
X13607255Y-130248985D02*
X13535826Y-130177557D01*
X13535826Y-130177557D02*
X13464398Y-130034700D01*
X13464398Y-130034700D02*
X13464398Y-129891842D01*
X13464398Y-129891842D02*
X13535826Y-129748985D01*
X13535826Y-129748985D02*
X13607255Y-129677557D01*
X13607255Y-129677557D02*
X13750112Y-129606128D01*
X13750112Y-129606128D02*
X14107255Y-129606128D01*
X14107255Y-129606128D02*
X14321541Y-129677557D01*
X14964397Y-131106128D02*
X14964397Y-130106128D01*
X14964397Y-129606128D02*
X14892969Y-129677557D01*
X14892969Y-129677557D02*
X14964397Y-129748985D01*
X14964397Y-129748985D02*
X15035826Y-129677557D01*
X15035826Y-129677557D02*
X14964397Y-129606128D01*
X14964397Y-129606128D02*
X14964397Y-129748985D01*
X15535826Y-130106128D02*
X16321541Y-130106128D01*
X16321541Y-130106128D02*
X15535826Y-131106128D01*
X15535826Y-131106128D02*
X16321541Y-131106128D01*
X17464398Y-131034700D02*
X17321541Y-131106128D01*
X17321541Y-131106128D02*
X17035827Y-131106128D01*
X17035827Y-131106128D02*
X16892969Y-131034700D01*
X16892969Y-131034700D02*
X16821541Y-130891842D01*
X16821541Y-130891842D02*
X16821541Y-130320414D01*
X16821541Y-130320414D02*
X16892969Y-130177557D01*
X16892969Y-130177557D02*
X17035827Y-130106128D01*
X17035827Y-130106128D02*
X17321541Y-130106128D01*
X17321541Y-130106128D02*
X17464398Y-130177557D01*
X17464398Y-130177557D02*
X17535827Y-130320414D01*
X17535827Y-130320414D02*
X17535827Y-130463271D01*
X17535827Y-130463271D02*
X16821541Y-130606128D01*
X18178683Y-130963271D02*
X18250112Y-131034700D01*
X18250112Y-131034700D02*
X18178683Y-131106128D01*
X18178683Y-131106128D02*
X18107255Y-131034700D01*
X18107255Y-131034700D02*
X18178683Y-130963271D01*
X18178683Y-130963271D02*
X18178683Y-131106128D01*
X18178683Y-130177557D02*
X18250112Y-130248985D01*
X18250112Y-130248985D02*
X18178683Y-130320414D01*
X18178683Y-130320414D02*
X18107255Y-130248985D01*
X18107255Y-130248985D02*
X18178683Y-130177557D01*
X18178683Y-130177557D02*
X18178683Y-130320414D01*
X20035826Y-129606128D02*
X20035826Y-130820414D01*
X20035826Y-130820414D02*
X20107255Y-130963271D01*
X20107255Y-130963271D02*
X20178684Y-131034700D01*
X20178684Y-131034700D02*
X20321541Y-131106128D01*
X20321541Y-131106128D02*
X20607255Y-131106128D01*
X20607255Y-131106128D02*
X20750112Y-131034700D01*
X20750112Y-131034700D02*
X20821541Y-130963271D01*
X20821541Y-130963271D02*
X20892969Y-130820414D01*
X20892969Y-130820414D02*
X20892969Y-129606128D01*
X21535827Y-131034700D02*
X21678684Y-131106128D01*
X21678684Y-131106128D02*
X21964398Y-131106128D01*
X21964398Y-131106128D02*
X22107255Y-131034700D01*
X22107255Y-131034700D02*
X22178684Y-130891842D01*
X22178684Y-130891842D02*
X22178684Y-130820414D01*
X22178684Y-130820414D02*
X22107255Y-130677557D01*
X22107255Y-130677557D02*
X21964398Y-130606128D01*
X21964398Y-130606128D02*
X21750113Y-130606128D01*
X21750113Y-130606128D02*
X21607255Y-130534700D01*
X21607255Y-130534700D02*
X21535827Y-130391842D01*
X21535827Y-130391842D02*
X21535827Y-130320414D01*
X21535827Y-130320414D02*
X21607255Y-130177557D01*
X21607255Y-130177557D02*
X21750113Y-130106128D01*
X21750113Y-130106128D02*
X21964398Y-130106128D01*
X21964398Y-130106128D02*
X22107255Y-130177557D01*
X23392970Y-131034700D02*
X23250113Y-131106128D01*
X23250113Y-131106128D02*
X22964399Y-131106128D01*
X22964399Y-131106128D02*
X22821541Y-131034700D01*
X22821541Y-131034700D02*
X22750113Y-130891842D01*
X22750113Y-130891842D02*
X22750113Y-130320414D01*
X22750113Y-130320414D02*
X22821541Y-130177557D01*
X22821541Y-130177557D02*
X22964399Y-130106128D01*
X22964399Y-130106128D02*
X23250113Y-130106128D01*
X23250113Y-130106128D02*
X23392970Y-130177557D01*
X23392970Y-130177557D02*
X23464399Y-130320414D01*
X23464399Y-130320414D02*
X23464399Y-130463271D01*
X23464399Y-130463271D02*
X22750113Y-130606128D01*
X24107255Y-131106128D02*
X24107255Y-130106128D01*
X24107255Y-130391842D02*
X24178684Y-130248985D01*
X24178684Y-130248985D02*
X24250113Y-130177557D01*
X24250113Y-130177557D02*
X24392970Y-130106128D01*
X24392970Y-130106128D02*
X24535827Y-130106128D01*
D10*
D11*
X98535826Y-133906128D02*
X98535826Y-132406128D01*
X99892970Y-133906128D02*
X99892970Y-132406128D01*
X99892970Y-133834700D02*
X99750112Y-133906128D01*
X99750112Y-133906128D02*
X99464398Y-133906128D01*
X99464398Y-133906128D02*
X99321541Y-133834700D01*
X99321541Y-133834700D02*
X99250112Y-133763271D01*
X99250112Y-133763271D02*
X99178684Y-133620414D01*
X99178684Y-133620414D02*
X99178684Y-133191842D01*
X99178684Y-133191842D02*
X99250112Y-133048985D01*
X99250112Y-133048985D02*
X99321541Y-132977557D01*
X99321541Y-132977557D02*
X99464398Y-132906128D01*
X99464398Y-132906128D02*
X99750112Y-132906128D01*
X99750112Y-132906128D02*
X99892970Y-132977557D01*
X100607255Y-133763271D02*
X100678684Y-133834700D01*
X100678684Y-133834700D02*
X100607255Y-133906128D01*
X100607255Y-133906128D02*
X100535827Y-133834700D01*
X100535827Y-133834700D02*
X100607255Y-133763271D01*
X100607255Y-133763271D02*
X100607255Y-133906128D01*
X100607255Y-132977557D02*
X100678684Y-133048985D01*
X100678684Y-133048985D02*
X100607255Y-133120414D01*
X100607255Y-133120414D02*
X100535827Y-133048985D01*
X100535827Y-133048985D02*
X100607255Y-132977557D01*
X100607255Y-132977557D02*
X100607255Y-133120414D01*
X103250113Y-133906128D02*
X102392970Y-133906128D01*
X102821541Y-133906128D02*
X102821541Y-132406128D01*
X102821541Y-132406128D02*
X102678684Y-132620414D01*
X102678684Y-132620414D02*
X102535827Y-132763271D01*
X102535827Y-132763271D02*
X102392970Y-132834700D01*
X104964398Y-132334700D02*
X103678684Y-134263271D01*
X106250113Y-133906128D02*
X105392970Y-133906128D01*
X105821541Y-133906128D02*
X105821541Y-132406128D01*
X105821541Y-132406128D02*
X105678684Y-132620414D01*
X105678684Y-132620414D02*
X105535827Y-132763271D01*
X105535827Y-132763271D02*
X105392970Y-132834700D01*
D10*
D11*
X12080000Y-124820000D02*
X120080000Y-124820000D01*
D10*
D13*
X13771728Y-125524438D02*
X14914585Y-125524438D01*
X14093157Y-127524438D02*
X14343157Y-125524438D01*
X15331252Y-127524438D02*
X15497919Y-126191104D01*
X15581252Y-125524438D02*
X15474109Y-125619676D01*
X15474109Y-125619676D02*
X15557443Y-125714914D01*
X15557443Y-125714914D02*
X15664586Y-125619676D01*
X15664586Y-125619676D02*
X15581252Y-125524438D01*
X15581252Y-125524438D02*
X15557443Y-125714914D01*
X16164586Y-126191104D02*
X16926490Y-126191104D01*
X16533633Y-125524438D02*
X16319348Y-127238723D01*
X16319348Y-127238723D02*
X16390776Y-127429200D01*
X16390776Y-127429200D02*
X16569348Y-127524438D01*
X16569348Y-127524438D02*
X16759824Y-127524438D01*
X17712205Y-127524438D02*
X17533633Y-127429200D01*
X17533633Y-127429200D02*
X17462205Y-127238723D01*
X17462205Y-127238723D02*
X17676490Y-125524438D01*
X19247919Y-127429200D02*
X19045538Y-127524438D01*
X19045538Y-127524438D02*
X18664585Y-127524438D01*
X18664585Y-127524438D02*
X18486014Y-127429200D01*
X18486014Y-127429200D02*
X18414585Y-127238723D01*
X18414585Y-127238723D02*
X18509824Y-126476819D01*
X18509824Y-126476819D02*
X18628871Y-126286342D01*
X18628871Y-126286342D02*
X18831252Y-126191104D01*
X18831252Y-126191104D02*
X19212204Y-126191104D01*
X19212204Y-126191104D02*
X19390776Y-126286342D01*
X19390776Y-126286342D02*
X19462204Y-126476819D01*
X19462204Y-126476819D02*
X19438395Y-126667295D01*
X19438395Y-126667295D02*
X18462204Y-126857771D01*
X20212205Y-127333961D02*
X20295538Y-127429200D01*
X20295538Y-127429200D02*
X20188395Y-127524438D01*
X20188395Y-127524438D02*
X20105062Y-127429200D01*
X20105062Y-127429200D02*
X20212205Y-127333961D01*
X20212205Y-127333961D02*
X20188395Y-127524438D01*
X20343157Y-126286342D02*
X20426490Y-126381580D01*
X20426490Y-126381580D02*
X20319348Y-126476819D01*
X20319348Y-126476819D02*
X20236014Y-126381580D01*
X20236014Y-126381580D02*
X20343157Y-126286342D01*
X20343157Y-126286342D02*
X20319348Y-126476819D01*
X23462205Y-126476819D02*
X23736015Y-126572057D01*
X23736015Y-126572057D02*
X23819348Y-126667295D01*
X23819348Y-126667295D02*
X23890777Y-126857771D01*
X23890777Y-126857771D02*
X23855062Y-127143485D01*
X23855062Y-127143485D02*
X23736015Y-127333961D01*
X23736015Y-127333961D02*
X23628872Y-127429200D01*
X23628872Y-127429200D02*
X23426491Y-127524438D01*
X23426491Y-127524438D02*
X22664586Y-127524438D01*
X22664586Y-127524438D02*
X22914586Y-125524438D01*
X22914586Y-125524438D02*
X23581253Y-125524438D01*
X23581253Y-125524438D02*
X23759824Y-125619676D01*
X23759824Y-125619676D02*
X23843158Y-125714914D01*
X23843158Y-125714914D02*
X23914586Y-125905390D01*
X23914586Y-125905390D02*
X23890777Y-126095866D01*
X23890777Y-126095866D02*
X23771729Y-126286342D01*
X23771729Y-126286342D02*
X23664586Y-126381580D01*
X23664586Y-126381580D02*
X23462205Y-126476819D01*
X23462205Y-126476819D02*
X22795539Y-126476819D01*
X24950301Y-127524438D02*
X24771729Y-127429200D01*
X24771729Y-127429200D02*
X24700301Y-127238723D01*
X24700301Y-127238723D02*
X24914586Y-125524438D01*
X26736015Y-126191104D02*
X26569348Y-127524438D01*
X25878872Y-126191104D02*
X25747920Y-127238723D01*
X25747920Y-127238723D02*
X25819348Y-127429200D01*
X25819348Y-127429200D02*
X25997920Y-127524438D01*
X25997920Y-127524438D02*
X26283634Y-127524438D01*
X26283634Y-127524438D02*
X26486015Y-127429200D01*
X26486015Y-127429200D02*
X26593158Y-127333961D01*
X28295539Y-127429200D02*
X28093158Y-127524438D01*
X28093158Y-127524438D02*
X27712205Y-127524438D01*
X27712205Y-127524438D02*
X27533634Y-127429200D01*
X27533634Y-127429200D02*
X27462205Y-127238723D01*
X27462205Y-127238723D02*
X27557444Y-126476819D01*
X27557444Y-126476819D02*
X27676491Y-126286342D01*
X27676491Y-126286342D02*
X27878872Y-126191104D01*
X27878872Y-126191104D02*
X28259824Y-126191104D01*
X28259824Y-126191104D02*
X28438396Y-126286342D01*
X28438396Y-126286342D02*
X28509824Y-126476819D01*
X28509824Y-126476819D02*
X28486015Y-126667295D01*
X28486015Y-126667295D02*
X27509824Y-126857771D01*
X29116968Y-126191104D02*
X29878872Y-126191104D01*
X29486015Y-125524438D02*
X29271730Y-127238723D01*
X29271730Y-127238723D02*
X29343158Y-127429200D01*
X29343158Y-127429200D02*
X29521730Y-127524438D01*
X29521730Y-127524438D02*
X29712206Y-127524438D01*
X30664587Y-127524438D02*
X30486015Y-127429200D01*
X30486015Y-127429200D02*
X30402682Y-127333961D01*
X30402682Y-127333961D02*
X30331253Y-127143485D01*
X30331253Y-127143485D02*
X30402682Y-126572057D01*
X30402682Y-126572057D02*
X30521729Y-126381580D01*
X30521729Y-126381580D02*
X30628872Y-126286342D01*
X30628872Y-126286342D02*
X30831253Y-126191104D01*
X30831253Y-126191104D02*
X31116967Y-126191104D01*
X31116967Y-126191104D02*
X31295539Y-126286342D01*
X31295539Y-126286342D02*
X31378872Y-126381580D01*
X31378872Y-126381580D02*
X31450301Y-126572057D01*
X31450301Y-126572057D02*
X31378872Y-127143485D01*
X31378872Y-127143485D02*
X31259825Y-127333961D01*
X31259825Y-127333961D02*
X31152682Y-127429200D01*
X31152682Y-127429200D02*
X30950301Y-127524438D01*
X30950301Y-127524438D02*
X30664587Y-127524438D01*
X32474111Y-127524438D02*
X32295539Y-127429200D01*
X32295539Y-127429200D02*
X32212206Y-127333961D01*
X32212206Y-127333961D02*
X32140777Y-127143485D01*
X32140777Y-127143485D02*
X32212206Y-126572057D01*
X32212206Y-126572057D02*
X32331253Y-126381580D01*
X32331253Y-126381580D02*
X32438396Y-126286342D01*
X32438396Y-126286342D02*
X32640777Y-126191104D01*
X32640777Y-126191104D02*
X32926491Y-126191104D01*
X32926491Y-126191104D02*
X33105063Y-126286342D01*
X33105063Y-126286342D02*
X33188396Y-126381580D01*
X33188396Y-126381580D02*
X33259825Y-126572057D01*
X33259825Y-126572057D02*
X33188396Y-127143485D01*
X33188396Y-127143485D02*
X33069349Y-127333961D01*
X33069349Y-127333961D02*
X32962206Y-127429200D01*
X32962206Y-127429200D02*
X32759825Y-127524438D01*
X32759825Y-127524438D02*
X32474111Y-127524438D01*
X33878873Y-126191104D02*
X34640777Y-126191104D01*
X34247920Y-125524438D02*
X34033635Y-127238723D01*
X34033635Y-127238723D02*
X34105063Y-127429200D01*
X34105063Y-127429200D02*
X34283635Y-127524438D01*
X34283635Y-127524438D02*
X34474111Y-127524438D01*
X35140777Y-127524438D02*
X35390777Y-125524438D01*
X35997920Y-127524438D02*
X36128872Y-126476819D01*
X36128872Y-126476819D02*
X36057444Y-126286342D01*
X36057444Y-126286342D02*
X35878872Y-126191104D01*
X35878872Y-126191104D02*
X35593158Y-126191104D01*
X35593158Y-126191104D02*
X35390777Y-126286342D01*
X35390777Y-126286342D02*
X35283634Y-126381580D01*
X37045539Y-126762533D02*
X38569349Y-126762533D01*
X40593158Y-127333961D02*
X40486015Y-127429200D01*
X40486015Y-127429200D02*
X40188396Y-127524438D01*
X40188396Y-127524438D02*
X39997920Y-127524438D01*
X39997920Y-127524438D02*
X39724110Y-127429200D01*
X39724110Y-127429200D02*
X39557444Y-127238723D01*
X39557444Y-127238723D02*
X39486015Y-127048247D01*
X39486015Y-127048247D02*
X39438396Y-126667295D01*
X39438396Y-126667295D02*
X39474110Y-126381580D01*
X39474110Y-126381580D02*
X39616967Y-126000628D01*
X39616967Y-126000628D02*
X39736015Y-125810152D01*
X39736015Y-125810152D02*
X39950301Y-125619676D01*
X39950301Y-125619676D02*
X40247920Y-125524438D01*
X40247920Y-125524438D02*
X40438396Y-125524438D01*
X40438396Y-125524438D02*
X40712206Y-125619676D01*
X40712206Y-125619676D02*
X40795539Y-125714914D01*
X41712206Y-127524438D02*
X41533634Y-127429200D01*
X41533634Y-127429200D02*
X41450301Y-127333961D01*
X41450301Y-127333961D02*
X41378872Y-127143485D01*
X41378872Y-127143485D02*
X41450301Y-126572057D01*
X41450301Y-126572057D02*
X41569348Y-126381580D01*
X41569348Y-126381580D02*
X41676491Y-126286342D01*
X41676491Y-126286342D02*
X41878872Y-126191104D01*
X41878872Y-126191104D02*
X42164586Y-126191104D01*
X42164586Y-126191104D02*
X42343158Y-126286342D01*
X42343158Y-126286342D02*
X42426491Y-126381580D01*
X42426491Y-126381580D02*
X42497920Y-126572057D01*
X42497920Y-126572057D02*
X42426491Y-127143485D01*
X42426491Y-127143485D02*
X42307444Y-127333961D01*
X42307444Y-127333961D02*
X42200301Y-127429200D01*
X42200301Y-127429200D02*
X41997920Y-127524438D01*
X41997920Y-127524438D02*
X41712206Y-127524438D01*
X43402682Y-126191104D02*
X43236015Y-127524438D01*
X43378872Y-126381580D02*
X43486015Y-126286342D01*
X43486015Y-126286342D02*
X43688396Y-126191104D01*
X43688396Y-126191104D02*
X43974110Y-126191104D01*
X43974110Y-126191104D02*
X44152682Y-126286342D01*
X44152682Y-126286342D02*
X44224110Y-126476819D01*
X44224110Y-126476819D02*
X44093158Y-127524438D01*
X44926492Y-126191104D02*
X45688396Y-126191104D01*
X45295539Y-125524438D02*
X45081254Y-127238723D01*
X45081254Y-127238723D02*
X45152682Y-127429200D01*
X45152682Y-127429200D02*
X45331254Y-127524438D01*
X45331254Y-127524438D02*
X45521730Y-127524438D01*
X46188396Y-127524438D02*
X46355063Y-126191104D01*
X46307444Y-126572057D02*
X46426491Y-126381580D01*
X46426491Y-126381580D02*
X46533634Y-126286342D01*
X46533634Y-126286342D02*
X46736015Y-126191104D01*
X46736015Y-126191104D02*
X46926491Y-126191104D01*
X47712206Y-127524438D02*
X47533634Y-127429200D01*
X47533634Y-127429200D02*
X47450301Y-127333961D01*
X47450301Y-127333961D02*
X47378872Y-127143485D01*
X47378872Y-127143485D02*
X47450301Y-126572057D01*
X47450301Y-126572057D02*
X47569348Y-126381580D01*
X47569348Y-126381580D02*
X47676491Y-126286342D01*
X47676491Y-126286342D02*
X47878872Y-126191104D01*
X47878872Y-126191104D02*
X48164586Y-126191104D01*
X48164586Y-126191104D02*
X48343158Y-126286342D01*
X48343158Y-126286342D02*
X48426491Y-126381580D01*
X48426491Y-126381580D02*
X48497920Y-126572057D01*
X48497920Y-126572057D02*
X48426491Y-127143485D01*
X48426491Y-127143485D02*
X48307444Y-127333961D01*
X48307444Y-127333961D02*
X48200301Y-127429200D01*
X48200301Y-127429200D02*
X47997920Y-127524438D01*
X47997920Y-127524438D02*
X47712206Y-127524438D01*
X49521730Y-127524438D02*
X49343158Y-127429200D01*
X49343158Y-127429200D02*
X49271730Y-127238723D01*
X49271730Y-127238723D02*
X49486015Y-125524438D01*
X50569349Y-127524438D02*
X50390777Y-127429200D01*
X50390777Y-127429200D02*
X50319349Y-127238723D01*
X50319349Y-127238723D02*
X50533634Y-125524438D01*
X52105063Y-127429200D02*
X51902682Y-127524438D01*
X51902682Y-127524438D02*
X51521729Y-127524438D01*
X51521729Y-127524438D02*
X51343158Y-127429200D01*
X51343158Y-127429200D02*
X51271729Y-127238723D01*
X51271729Y-127238723D02*
X51366968Y-126476819D01*
X51366968Y-126476819D02*
X51486015Y-126286342D01*
X51486015Y-126286342D02*
X51688396Y-126191104D01*
X51688396Y-126191104D02*
X52069348Y-126191104D01*
X52069348Y-126191104D02*
X52247920Y-126286342D01*
X52247920Y-126286342D02*
X52319348Y-126476819D01*
X52319348Y-126476819D02*
X52295539Y-126667295D01*
X52295539Y-126667295D02*
X51319348Y-126857771D01*
X53902682Y-127524438D02*
X54152682Y-125524438D01*
X53914587Y-127429200D02*
X53712206Y-127524438D01*
X53712206Y-127524438D02*
X53331254Y-127524438D01*
X53331254Y-127524438D02*
X53152682Y-127429200D01*
X53152682Y-127429200D02*
X53069349Y-127333961D01*
X53069349Y-127333961D02*
X52997920Y-127143485D01*
X52997920Y-127143485D02*
X53069349Y-126572057D01*
X53069349Y-126572057D02*
X53188396Y-126381580D01*
X53188396Y-126381580D02*
X53295539Y-126286342D01*
X53295539Y-126286342D02*
X53497920Y-126191104D01*
X53497920Y-126191104D02*
X53878873Y-126191104D01*
X53878873Y-126191104D02*
X54057444Y-126286342D01*
X56378873Y-127524438D02*
X56628873Y-125524438D01*
X56628873Y-125524438D02*
X57116968Y-126953009D01*
X57116968Y-126953009D02*
X57962207Y-125524438D01*
X57962207Y-125524438D02*
X57712207Y-127524438D01*
X58950302Y-127524438D02*
X58771730Y-127429200D01*
X58771730Y-127429200D02*
X58688397Y-127333961D01*
X58688397Y-127333961D02*
X58616968Y-127143485D01*
X58616968Y-127143485D02*
X58688397Y-126572057D01*
X58688397Y-126572057D02*
X58807444Y-126381580D01*
X58807444Y-126381580D02*
X58914587Y-126286342D01*
X58914587Y-126286342D02*
X59116968Y-126191104D01*
X59116968Y-126191104D02*
X59402682Y-126191104D01*
X59402682Y-126191104D02*
X59581254Y-126286342D01*
X59581254Y-126286342D02*
X59664587Y-126381580D01*
X59664587Y-126381580D02*
X59736016Y-126572057D01*
X59736016Y-126572057D02*
X59664587Y-127143485D01*
X59664587Y-127143485D02*
X59545540Y-127333961D01*
X59545540Y-127333961D02*
X59438397Y-127429200D01*
X59438397Y-127429200D02*
X59236016Y-127524438D01*
X59236016Y-127524438D02*
X58950302Y-127524438D01*
X60390778Y-127429200D02*
X60569349Y-127524438D01*
X60569349Y-127524438D02*
X60950302Y-127524438D01*
X60950302Y-127524438D02*
X61152683Y-127429200D01*
X61152683Y-127429200D02*
X61271730Y-127238723D01*
X61271730Y-127238723D02*
X61283635Y-127143485D01*
X61283635Y-127143485D02*
X61212206Y-126953009D01*
X61212206Y-126953009D02*
X61033635Y-126857771D01*
X61033635Y-126857771D02*
X60747921Y-126857771D01*
X60747921Y-126857771D02*
X60569349Y-126762533D01*
X60569349Y-126762533D02*
X60497921Y-126572057D01*
X60497921Y-126572057D02*
X60509826Y-126476819D01*
X60509826Y-126476819D02*
X60628873Y-126286342D01*
X60628873Y-126286342D02*
X60831254Y-126191104D01*
X60831254Y-126191104D02*
X61116968Y-126191104D01*
X61116968Y-126191104D02*
X61295540Y-126286342D01*
X61974112Y-126191104D02*
X62736016Y-126191104D01*
X62093159Y-127524438D02*
X62307445Y-125810152D01*
X62307445Y-125810152D02*
X62426493Y-125619676D01*
X62426493Y-125619676D02*
X62628874Y-125524438D01*
X62628874Y-125524438D02*
X62819350Y-125524438D01*
X64009826Y-127429200D02*
X63807445Y-127524438D01*
X63807445Y-127524438D02*
X63426492Y-127524438D01*
X63426492Y-127524438D02*
X63247921Y-127429200D01*
X63247921Y-127429200D02*
X63176492Y-127238723D01*
X63176492Y-127238723D02*
X63271731Y-126476819D01*
X63271731Y-126476819D02*
X63390778Y-126286342D01*
X63390778Y-126286342D02*
X63593159Y-126191104D01*
X63593159Y-126191104D02*
X63974111Y-126191104D01*
X63974111Y-126191104D02*
X64152683Y-126286342D01*
X64152683Y-126286342D02*
X64224111Y-126476819D01*
X64224111Y-126476819D02*
X64200302Y-126667295D01*
X64200302Y-126667295D02*
X63224111Y-126857771D01*
X64831255Y-126191104D02*
X65593159Y-126191104D01*
X65200302Y-125524438D02*
X64986017Y-127238723D01*
X64986017Y-127238723D02*
X65057445Y-127429200D01*
X65057445Y-127429200D02*
X65236017Y-127524438D01*
X65236017Y-127524438D02*
X65426493Y-127524438D01*
X68414588Y-126476819D02*
X68688398Y-126572057D01*
X68688398Y-126572057D02*
X68771731Y-126667295D01*
X68771731Y-126667295D02*
X68843160Y-126857771D01*
X68843160Y-126857771D02*
X68807445Y-127143485D01*
X68807445Y-127143485D02*
X68688398Y-127333961D01*
X68688398Y-127333961D02*
X68581255Y-127429200D01*
X68581255Y-127429200D02*
X68378874Y-127524438D01*
X68378874Y-127524438D02*
X67616969Y-127524438D01*
X67616969Y-127524438D02*
X67866969Y-125524438D01*
X67866969Y-125524438D02*
X68533636Y-125524438D01*
X68533636Y-125524438D02*
X68712207Y-125619676D01*
X68712207Y-125619676D02*
X68795541Y-125714914D01*
X68795541Y-125714914D02*
X68866969Y-125905390D01*
X68866969Y-125905390D02*
X68843160Y-126095866D01*
X68843160Y-126095866D02*
X68724112Y-126286342D01*
X68724112Y-126286342D02*
X68616969Y-126381580D01*
X68616969Y-126381580D02*
X68414588Y-126476819D01*
X68414588Y-126476819D02*
X67747922Y-126476819D01*
X69902684Y-127524438D02*
X69724112Y-127429200D01*
X69724112Y-127429200D02*
X69640779Y-127333961D01*
X69640779Y-127333961D02*
X69569350Y-127143485D01*
X69569350Y-127143485D02*
X69640779Y-126572057D01*
X69640779Y-126572057D02*
X69759826Y-126381580D01*
X69759826Y-126381580D02*
X69866969Y-126286342D01*
X69866969Y-126286342D02*
X70069350Y-126191104D01*
X70069350Y-126191104D02*
X70355064Y-126191104D01*
X70355064Y-126191104D02*
X70533636Y-126286342D01*
X70533636Y-126286342D02*
X70616969Y-126381580D01*
X70616969Y-126381580D02*
X70688398Y-126572057D01*
X70688398Y-126572057D02*
X70616969Y-127143485D01*
X70616969Y-127143485D02*
X70497922Y-127333961D01*
X70497922Y-127333961D02*
X70390779Y-127429200D01*
X70390779Y-127429200D02*
X70188398Y-127524438D01*
X70188398Y-127524438D02*
X69902684Y-127524438D01*
X72283636Y-127524438D02*
X72414588Y-126476819D01*
X72414588Y-126476819D02*
X72343160Y-126286342D01*
X72343160Y-126286342D02*
X72164588Y-126191104D01*
X72164588Y-126191104D02*
X71783636Y-126191104D01*
X71783636Y-126191104D02*
X71581255Y-126286342D01*
X72295541Y-127429200D02*
X72093160Y-127524438D01*
X72093160Y-127524438D02*
X71616969Y-127524438D01*
X71616969Y-127524438D02*
X71438398Y-127429200D01*
X71438398Y-127429200D02*
X71366969Y-127238723D01*
X71366969Y-127238723D02*
X71390779Y-127048247D01*
X71390779Y-127048247D02*
X71509827Y-126857771D01*
X71509827Y-126857771D02*
X71712208Y-126762533D01*
X71712208Y-126762533D02*
X72188398Y-126762533D01*
X72188398Y-126762533D02*
X72390779Y-126667295D01*
X73236017Y-127524438D02*
X73402684Y-126191104D01*
X73355065Y-126572057D02*
X73474112Y-126381580D01*
X73474112Y-126381580D02*
X73581255Y-126286342D01*
X73581255Y-126286342D02*
X73783636Y-126191104D01*
X73783636Y-126191104D02*
X73974112Y-126191104D01*
X75331255Y-127524438D02*
X75581255Y-125524438D01*
X75343160Y-127429200D02*
X75140779Y-127524438D01*
X75140779Y-127524438D02*
X74759827Y-127524438D01*
X74759827Y-127524438D02*
X74581255Y-127429200D01*
X74581255Y-127429200D02*
X74497922Y-127333961D01*
X74497922Y-127333961D02*
X74426493Y-127143485D01*
X74426493Y-127143485D02*
X74497922Y-126572057D01*
X74497922Y-126572057D02*
X74616969Y-126381580D01*
X74616969Y-126381580D02*
X74724112Y-126286342D01*
X74724112Y-126286342D02*
X74926493Y-126191104D01*
X74926493Y-126191104D02*
X75307446Y-126191104D01*
X75307446Y-126191104D02*
X75486017Y-126286342D01*
D10*
D11*
X14035826Y-122920414D02*
X13535826Y-122920414D01*
X13535826Y-123706128D02*
X13535826Y-122206128D01*
X13535826Y-122206128D02*
X14250112Y-122206128D01*
X14821540Y-123706128D02*
X14821540Y-122706128D01*
X14821540Y-122206128D02*
X14750112Y-122277557D01*
X14750112Y-122277557D02*
X14821540Y-122348985D01*
X14821540Y-122348985D02*
X14892969Y-122277557D01*
X14892969Y-122277557D02*
X14821540Y-122206128D01*
X14821540Y-122206128D02*
X14821540Y-122348985D01*
X15750112Y-123706128D02*
X15607255Y-123634700D01*
X15607255Y-123634700D02*
X15535826Y-123491842D01*
X15535826Y-123491842D02*
X15535826Y-122206128D01*
X16892969Y-123634700D02*
X16750112Y-123706128D01*
X16750112Y-123706128D02*
X16464398Y-123706128D01*
X16464398Y-123706128D02*
X16321540Y-123634700D01*
X16321540Y-123634700D02*
X16250112Y-123491842D01*
X16250112Y-123491842D02*
X16250112Y-122920414D01*
X16250112Y-122920414D02*
X16321540Y-122777557D01*
X16321540Y-122777557D02*
X16464398Y-122706128D01*
X16464398Y-122706128D02*
X16750112Y-122706128D01*
X16750112Y-122706128D02*
X16892969Y-122777557D01*
X16892969Y-122777557D02*
X16964398Y-122920414D01*
X16964398Y-122920414D02*
X16964398Y-123063271D01*
X16964398Y-123063271D02*
X16250112Y-123206128D01*
X17607254Y-123563271D02*
X17678683Y-123634700D01*
X17678683Y-123634700D02*
X17607254Y-123706128D01*
X17607254Y-123706128D02*
X17535826Y-123634700D01*
X17535826Y-123634700D02*
X17607254Y-123563271D01*
X17607254Y-123563271D02*
X17607254Y-123706128D01*
X17607254Y-122777557D02*
X17678683Y-122848985D01*
X17678683Y-122848985D02*
X17607254Y-122920414D01*
X17607254Y-122920414D02*
X17535826Y-122848985D01*
X17535826Y-122848985D02*
X17607254Y-122777557D01*
X17607254Y-122777557D02*
X17607254Y-122920414D01*
X19964397Y-122920414D02*
X20178683Y-122991842D01*
X20178683Y-122991842D02*
X20250112Y-123063271D01*
X20250112Y-123063271D02*
X20321540Y-123206128D01*
X20321540Y-123206128D02*
X20321540Y-123420414D01*
X20321540Y-123420414D02*
X20250112Y-123563271D01*
X20250112Y-123563271D02*
X20178683Y-123634700D01*
X20178683Y-123634700D02*
X20035826Y-123706128D01*
X20035826Y-123706128D02*
X19464397Y-123706128D01*
X19464397Y-123706128D02*
X19464397Y-122206128D01*
X19464397Y-122206128D02*
X19964397Y-122206128D01*
X19964397Y-122206128D02*
X20107255Y-122277557D01*
X20107255Y-122277557D02*
X20178683Y-122348985D01*
X20178683Y-122348985D02*
X20250112Y-122491842D01*
X20250112Y-122491842D02*
X20250112Y-122634700D01*
X20250112Y-122634700D02*
X20178683Y-122777557D01*
X20178683Y-122777557D02*
X20107255Y-122848985D01*
X20107255Y-122848985D02*
X19964397Y-122920414D01*
X19964397Y-122920414D02*
X19464397Y-122920414D01*
X21178683Y-123706128D02*
X21035826Y-123634700D01*
X21035826Y-123634700D02*
X20964397Y-123491842D01*
X20964397Y-123491842D02*
X20964397Y-122206128D01*
X22392969Y-122706128D02*
X22392969Y-123706128D01*
X21750111Y-122706128D02*
X21750111Y-123491842D01*
X21750111Y-123491842D02*
X21821540Y-123634700D01*
X21821540Y-123634700D02*
X21964397Y-123706128D01*
X21964397Y-123706128D02*
X22178683Y-123706128D01*
X22178683Y-123706128D02*
X22321540Y-123634700D01*
X22321540Y-123634700D02*
X22392969Y-123563271D01*
X23678683Y-123634700D02*
X23535826Y-123706128D01*
X23535826Y-123706128D02*
X23250112Y-123706128D01*
X23250112Y-123706128D02*
X23107254Y-123634700D01*
X23107254Y-123634700D02*
X23035826Y-123491842D01*
X23035826Y-123491842D02*
X23035826Y-122920414D01*
X23035826Y-122920414D02*
X23107254Y-122777557D01*
X23107254Y-122777557D02*
X23250112Y-122706128D01*
X23250112Y-122706128D02*
X23535826Y-122706128D01*
X23535826Y-122706128D02*
X23678683Y-122777557D01*
X23678683Y-122777557D02*
X23750112Y-122920414D01*
X23750112Y-122920414D02*
X23750112Y-123063271D01*
X23750112Y-123063271D02*
X23035826Y-123206128D01*
X24178683Y-122706128D02*
X24750111Y-122706128D01*
X24392968Y-122206128D02*
X24392968Y-123491842D01*
X24392968Y-123491842D02*
X24464397Y-123634700D01*
X24464397Y-123634700D02*
X24607254Y-123706128D01*
X24607254Y-123706128D02*
X24750111Y-123706128D01*
X25464397Y-123706128D02*
X25321540Y-123634700D01*
X25321540Y-123634700D02*
X25250111Y-123563271D01*
X25250111Y-123563271D02*
X25178683Y-123420414D01*
X25178683Y-123420414D02*
X25178683Y-122991842D01*
X25178683Y-122991842D02*
X25250111Y-122848985D01*
X25250111Y-122848985D02*
X25321540Y-122777557D01*
X25321540Y-122777557D02*
X25464397Y-122706128D01*
X25464397Y-122706128D02*
X25678683Y-122706128D01*
X25678683Y-122706128D02*
X25821540Y-122777557D01*
X25821540Y-122777557D02*
X25892969Y-122848985D01*
X25892969Y-122848985D02*
X25964397Y-122991842D01*
X25964397Y-122991842D02*
X25964397Y-123420414D01*
X25964397Y-123420414D02*
X25892969Y-123563271D01*
X25892969Y-123563271D02*
X25821540Y-123634700D01*
X25821540Y-123634700D02*
X25678683Y-123706128D01*
X25678683Y-123706128D02*
X25464397Y-123706128D01*
X26821540Y-123706128D02*
X26678683Y-123634700D01*
X26678683Y-123634700D02*
X26607254Y-123563271D01*
X26607254Y-123563271D02*
X26535826Y-123420414D01*
X26535826Y-123420414D02*
X26535826Y-122991842D01*
X26535826Y-122991842D02*
X26607254Y-122848985D01*
X26607254Y-122848985D02*
X26678683Y-122777557D01*
X26678683Y-122777557D02*
X26821540Y-122706128D01*
X26821540Y-122706128D02*
X27035826Y-122706128D01*
X27035826Y-122706128D02*
X27178683Y-122777557D01*
X27178683Y-122777557D02*
X27250112Y-122848985D01*
X27250112Y-122848985D02*
X27321540Y-122991842D01*
X27321540Y-122991842D02*
X27321540Y-123420414D01*
X27321540Y-123420414D02*
X27250112Y-123563271D01*
X27250112Y-123563271D02*
X27178683Y-123634700D01*
X27178683Y-123634700D02*
X27035826Y-123706128D01*
X27035826Y-123706128D02*
X26821540Y-123706128D01*
X27750112Y-122706128D02*
X28321540Y-122706128D01*
X27964397Y-122206128D02*
X27964397Y-123491842D01*
X27964397Y-123491842D02*
X28035826Y-123634700D01*
X28035826Y-123634700D02*
X28178683Y-123706128D01*
X28178683Y-123706128D02*
X28321540Y-123706128D01*
X28821540Y-123706128D02*
X28821540Y-122206128D01*
X29464398Y-123706128D02*
X29464398Y-122920414D01*
X29464398Y-122920414D02*
X29392969Y-122777557D01*
X29392969Y-122777557D02*
X29250112Y-122706128D01*
X29250112Y-122706128D02*
X29035826Y-122706128D01*
X29035826Y-122706128D02*
X28892969Y-122777557D01*
X28892969Y-122777557D02*
X28821540Y-122848985D01*
X31321540Y-123706128D02*
X31321540Y-122206128D01*
X31321540Y-122206128D02*
X31821540Y-123277557D01*
X31821540Y-123277557D02*
X32321540Y-122206128D01*
X32321540Y-122206128D02*
X32321540Y-123706128D01*
X33250112Y-123706128D02*
X33107255Y-123634700D01*
X33107255Y-123634700D02*
X33035826Y-123563271D01*
X33035826Y-123563271D02*
X32964398Y-123420414D01*
X32964398Y-123420414D02*
X32964398Y-122991842D01*
X32964398Y-122991842D02*
X33035826Y-122848985D01*
X33035826Y-122848985D02*
X33107255Y-122777557D01*
X33107255Y-122777557D02*
X33250112Y-122706128D01*
X33250112Y-122706128D02*
X33464398Y-122706128D01*
X33464398Y-122706128D02*
X33607255Y-122777557D01*
X33607255Y-122777557D02*
X33678684Y-122848985D01*
X33678684Y-122848985D02*
X33750112Y-122991842D01*
X33750112Y-122991842D02*
X33750112Y-123420414D01*
X33750112Y-123420414D02*
X33678684Y-123563271D01*
X33678684Y-123563271D02*
X33607255Y-123634700D01*
X33607255Y-123634700D02*
X33464398Y-123706128D01*
X33464398Y-123706128D02*
X33250112Y-123706128D01*
X34321541Y-123634700D02*
X34464398Y-123706128D01*
X34464398Y-123706128D02*
X34750112Y-123706128D01*
X34750112Y-123706128D02*
X34892969Y-123634700D01*
X34892969Y-123634700D02*
X34964398Y-123491842D01*
X34964398Y-123491842D02*
X34964398Y-123420414D01*
X34964398Y-123420414D02*
X34892969Y-123277557D01*
X34892969Y-123277557D02*
X34750112Y-123206128D01*
X34750112Y-123206128D02*
X34535827Y-123206128D01*
X34535827Y-123206128D02*
X34392969Y-123134700D01*
X34392969Y-123134700D02*
X34321541Y-122991842D01*
X34321541Y-122991842D02*
X34321541Y-122920414D01*
X34321541Y-122920414D02*
X34392969Y-122777557D01*
X34392969Y-122777557D02*
X34535827Y-122706128D01*
X34535827Y-122706128D02*
X34750112Y-122706128D01*
X34750112Y-122706128D02*
X34892969Y-122777557D01*
X35392970Y-122706128D02*
X35964398Y-122706128D01*
X35607255Y-123706128D02*
X35607255Y-122420414D01*
X35607255Y-122420414D02*
X35678684Y-122277557D01*
X35678684Y-122277557D02*
X35821541Y-122206128D01*
X35821541Y-122206128D02*
X35964398Y-122206128D01*
X37035827Y-123634700D02*
X36892970Y-123706128D01*
X36892970Y-123706128D02*
X36607256Y-123706128D01*
X36607256Y-123706128D02*
X36464398Y-123634700D01*
X36464398Y-123634700D02*
X36392970Y-123491842D01*
X36392970Y-123491842D02*
X36392970Y-122920414D01*
X36392970Y-122920414D02*
X36464398Y-122777557D01*
X36464398Y-122777557D02*
X36607256Y-122706128D01*
X36607256Y-122706128D02*
X36892970Y-122706128D01*
X36892970Y-122706128D02*
X37035827Y-122777557D01*
X37035827Y-122777557D02*
X37107256Y-122920414D01*
X37107256Y-122920414D02*
X37107256Y-123063271D01*
X37107256Y-123063271D02*
X36392970Y-123206128D01*
X37535827Y-122706128D02*
X38107255Y-122706128D01*
X37750112Y-122206128D02*
X37750112Y-123491842D01*
X37750112Y-123491842D02*
X37821541Y-123634700D01*
X37821541Y-123634700D02*
X37964398Y-123706128D01*
X37964398Y-123706128D02*
X38107255Y-123706128D01*
X38607255Y-123563271D02*
X38678684Y-123634700D01*
X38678684Y-123634700D02*
X38607255Y-123706128D01*
X38607255Y-123706128D02*
X38535827Y-123634700D01*
X38535827Y-123634700D02*
X38607255Y-123563271D01*
X38607255Y-123563271D02*
X38607255Y-123706128D01*
X39321541Y-123706128D02*
X39321541Y-122206128D01*
X39464399Y-123134700D02*
X39892970Y-123706128D01*
X39892970Y-122706128D02*
X39321541Y-123277557D01*
X40535827Y-123706128D02*
X40535827Y-122706128D01*
X40535827Y-122206128D02*
X40464399Y-122277557D01*
X40464399Y-122277557D02*
X40535827Y-122348985D01*
X40535827Y-122348985D02*
X40607256Y-122277557D01*
X40607256Y-122277557D02*
X40535827Y-122206128D01*
X40535827Y-122206128D02*
X40535827Y-122348985D01*
X41892971Y-123634700D02*
X41750113Y-123706128D01*
X41750113Y-123706128D02*
X41464399Y-123706128D01*
X41464399Y-123706128D02*
X41321542Y-123634700D01*
X41321542Y-123634700D02*
X41250113Y-123563271D01*
X41250113Y-123563271D02*
X41178685Y-123420414D01*
X41178685Y-123420414D02*
X41178685Y-122991842D01*
X41178685Y-122991842D02*
X41250113Y-122848985D01*
X41250113Y-122848985D02*
X41321542Y-122777557D01*
X41321542Y-122777557D02*
X41464399Y-122706128D01*
X41464399Y-122706128D02*
X41750113Y-122706128D01*
X41750113Y-122706128D02*
X41892971Y-122777557D01*
X43178685Y-123706128D02*
X43178685Y-122920414D01*
X43178685Y-122920414D02*
X43107256Y-122777557D01*
X43107256Y-122777557D02*
X42964399Y-122706128D01*
X42964399Y-122706128D02*
X42678685Y-122706128D01*
X42678685Y-122706128D02*
X42535827Y-122777557D01*
X43178685Y-123634700D02*
X43035827Y-123706128D01*
X43035827Y-123706128D02*
X42678685Y-123706128D01*
X42678685Y-123706128D02*
X42535827Y-123634700D01*
X42535827Y-123634700D02*
X42464399Y-123491842D01*
X42464399Y-123491842D02*
X42464399Y-123348985D01*
X42464399Y-123348985D02*
X42535827Y-123206128D01*
X42535827Y-123206128D02*
X42678685Y-123134700D01*
X42678685Y-123134700D02*
X43035827Y-123134700D01*
X43035827Y-123134700D02*
X43178685Y-123063271D01*
X44535828Y-123706128D02*
X44535828Y-122206128D01*
X44535828Y-123634700D02*
X44392970Y-123706128D01*
X44392970Y-123706128D02*
X44107256Y-123706128D01*
X44107256Y-123706128D02*
X43964399Y-123634700D01*
X43964399Y-123634700D02*
X43892970Y-123563271D01*
X43892970Y-123563271D02*
X43821542Y-123420414D01*
X43821542Y-123420414D02*
X43821542Y-122991842D01*
X43821542Y-122991842D02*
X43892970Y-122848985D01*
X43892970Y-122848985D02*
X43964399Y-122777557D01*
X43964399Y-122777557D02*
X44107256Y-122706128D01*
X44107256Y-122706128D02*
X44392970Y-122706128D01*
X44392970Y-122706128D02*
X44535828Y-122777557D01*
X44892971Y-123848985D02*
X46035828Y-123848985D01*
X46392970Y-122706128D02*
X46392970Y-124206128D01*
X46392970Y-122777557D02*
X46535828Y-122706128D01*
X46535828Y-122706128D02*
X46821542Y-122706128D01*
X46821542Y-122706128D02*
X46964399Y-122777557D01*
X46964399Y-122777557D02*
X47035828Y-122848985D01*
X47035828Y-122848985D02*
X47107256Y-122991842D01*
X47107256Y-122991842D02*
X47107256Y-123420414D01*
X47107256Y-123420414D02*
X47035828Y-123563271D01*
X47035828Y-123563271D02*
X46964399Y-123634700D01*
X46964399Y-123634700D02*
X46821542Y-123706128D01*
X46821542Y-123706128D02*
X46535828Y-123706128D01*
X46535828Y-123706128D02*
X46392970Y-123634700D01*
X48392971Y-123634700D02*
X48250113Y-123706128D01*
X48250113Y-123706128D02*
X47964399Y-123706128D01*
X47964399Y-123706128D02*
X47821542Y-123634700D01*
X47821542Y-123634700D02*
X47750113Y-123563271D01*
X47750113Y-123563271D02*
X47678685Y-123420414D01*
X47678685Y-123420414D02*
X47678685Y-122991842D01*
X47678685Y-122991842D02*
X47750113Y-122848985D01*
X47750113Y-122848985D02*
X47821542Y-122777557D01*
X47821542Y-122777557D02*
X47964399Y-122706128D01*
X47964399Y-122706128D02*
X48250113Y-122706128D01*
X48250113Y-122706128D02*
X48392971Y-122777557D01*
X49035827Y-123706128D02*
X49035827Y-122206128D01*
X49035827Y-122777557D02*
X49178685Y-122706128D01*
X49178685Y-122706128D02*
X49464399Y-122706128D01*
X49464399Y-122706128D02*
X49607256Y-122777557D01*
X49607256Y-122777557D02*
X49678685Y-122848985D01*
X49678685Y-122848985D02*
X49750113Y-122991842D01*
X49750113Y-122991842D02*
X49750113Y-123420414D01*
X49750113Y-123420414D02*
X49678685Y-123563271D01*
X49678685Y-123563271D02*
X49607256Y-123634700D01*
X49607256Y-123634700D02*
X49464399Y-123706128D01*
X49464399Y-123706128D02*
X49178685Y-123706128D01*
X49178685Y-123706128D02*
X49035827Y-123634700D01*
D10*
D11*
X12080000Y-118820000D02*
X120080000Y-118820000D01*
D10*
D11*
X13464398Y-120934700D02*
X13678684Y-121006128D01*
X13678684Y-121006128D02*
X14035826Y-121006128D01*
X14035826Y-121006128D02*
X14178684Y-120934700D01*
X14178684Y-120934700D02*
X14250112Y-120863271D01*
X14250112Y-120863271D02*
X14321541Y-120720414D01*
X14321541Y-120720414D02*
X14321541Y-120577557D01*
X14321541Y-120577557D02*
X14250112Y-120434700D01*
X14250112Y-120434700D02*
X14178684Y-120363271D01*
X14178684Y-120363271D02*
X14035826Y-120291842D01*
X14035826Y-120291842D02*
X13750112Y-120220414D01*
X13750112Y-120220414D02*
X13607255Y-120148985D01*
X13607255Y-120148985D02*
X13535826Y-120077557D01*
X13535826Y-120077557D02*
X13464398Y-119934700D01*
X13464398Y-119934700D02*
X13464398Y-119791842D01*
X13464398Y-119791842D02*
X13535826Y-119648985D01*
X13535826Y-119648985D02*
X13607255Y-119577557D01*
X13607255Y-119577557D02*
X13750112Y-119506128D01*
X13750112Y-119506128D02*
X14107255Y-119506128D01*
X14107255Y-119506128D02*
X14321541Y-119577557D01*
X14964397Y-121006128D02*
X14964397Y-119506128D01*
X15607255Y-121006128D02*
X15607255Y-120220414D01*
X15607255Y-120220414D02*
X15535826Y-120077557D01*
X15535826Y-120077557D02*
X15392969Y-120006128D01*
X15392969Y-120006128D02*
X15178683Y-120006128D01*
X15178683Y-120006128D02*
X15035826Y-120077557D01*
X15035826Y-120077557D02*
X14964397Y-120148985D01*
X16892969Y-120934700D02*
X16750112Y-121006128D01*
X16750112Y-121006128D02*
X16464398Y-121006128D01*
X16464398Y-121006128D02*
X16321540Y-120934700D01*
X16321540Y-120934700D02*
X16250112Y-120791842D01*
X16250112Y-120791842D02*
X16250112Y-120220414D01*
X16250112Y-120220414D02*
X16321540Y-120077557D01*
X16321540Y-120077557D02*
X16464398Y-120006128D01*
X16464398Y-120006128D02*
X16750112Y-120006128D01*
X16750112Y-120006128D02*
X16892969Y-120077557D01*
X16892969Y-120077557D02*
X16964398Y-120220414D01*
X16964398Y-120220414D02*
X16964398Y-120363271D01*
X16964398Y-120363271D02*
X16250112Y-120506128D01*
X18178683Y-120934700D02*
X18035826Y-121006128D01*
X18035826Y-121006128D02*
X17750112Y-121006128D01*
X17750112Y-121006128D02*
X17607254Y-120934700D01*
X17607254Y-120934700D02*
X17535826Y-120791842D01*
X17535826Y-120791842D02*
X17535826Y-120220414D01*
X17535826Y-120220414D02*
X17607254Y-120077557D01*
X17607254Y-120077557D02*
X17750112Y-120006128D01*
X17750112Y-120006128D02*
X18035826Y-120006128D01*
X18035826Y-120006128D02*
X18178683Y-120077557D01*
X18178683Y-120077557D02*
X18250112Y-120220414D01*
X18250112Y-120220414D02*
X18250112Y-120363271D01*
X18250112Y-120363271D02*
X17535826Y-120506128D01*
X18678683Y-120006128D02*
X19250111Y-120006128D01*
X18892968Y-119506128D02*
X18892968Y-120791842D01*
X18892968Y-120791842D02*
X18964397Y-120934700D01*
X18964397Y-120934700D02*
X19107254Y-121006128D01*
X19107254Y-121006128D02*
X19250111Y-121006128D01*
X19750111Y-120863271D02*
X19821540Y-120934700D01*
X19821540Y-120934700D02*
X19750111Y-121006128D01*
X19750111Y-121006128D02*
X19678683Y-120934700D01*
X19678683Y-120934700D02*
X19750111Y-120863271D01*
X19750111Y-120863271D02*
X19750111Y-121006128D01*
X19750111Y-120077557D02*
X19821540Y-120148985D01*
X19821540Y-120148985D02*
X19750111Y-120220414D01*
X19750111Y-120220414D02*
X19678683Y-120148985D01*
X19678683Y-120148985D02*
X19750111Y-120077557D01*
X19750111Y-120077557D02*
X19750111Y-120220414D01*
D10*
D12*
X13634510Y-117998328D02*
X13634510Y-116498328D01*
X13634510Y-116498328D02*
X14491653Y-117998328D01*
X14491653Y-117998328D02*
X14491653Y-116498328D01*
X15205939Y-117998328D02*
X15205939Y-116998328D01*
X15205939Y-116498328D02*
X15134511Y-116569757D01*
X15134511Y-116569757D02*
X15205939Y-116641185D01*
X15205939Y-116641185D02*
X15277368Y-116569757D01*
X15277368Y-116569757D02*
X15205939Y-116498328D01*
X15205939Y-116498328D02*
X15205939Y-116641185D01*
X16563083Y-117926900D02*
X16420225Y-117998328D01*
X16420225Y-117998328D02*
X16134511Y-117998328D01*
X16134511Y-117998328D02*
X15991654Y-117926900D01*
X15991654Y-117926900D02*
X15920225Y-117855471D01*
X15920225Y-117855471D02*
X15848797Y-117712614D01*
X15848797Y-117712614D02*
X15848797Y-117284042D01*
X15848797Y-117284042D02*
X15920225Y-117141185D01*
X15920225Y-117141185D02*
X15991654Y-117069757D01*
X15991654Y-117069757D02*
X16134511Y-116998328D01*
X16134511Y-116998328D02*
X16420225Y-116998328D01*
X16420225Y-116998328D02*
X16563083Y-117069757D01*
X17205939Y-117998328D02*
X17205939Y-116498328D01*
X17848797Y-117998328D02*
X17848797Y-117212614D01*
X17848797Y-117212614D02*
X17777368Y-117069757D01*
X17777368Y-117069757D02*
X17634511Y-116998328D01*
X17634511Y-116998328D02*
X17420225Y-116998328D01*
X17420225Y-116998328D02*
X17277368Y-117069757D01*
X17277368Y-117069757D02*
X17205939Y-117141185D01*
X18777368Y-117998328D02*
X18634511Y-117926900D01*
X18634511Y-117926900D02*
X18563082Y-117855471D01*
X18563082Y-117855471D02*
X18491654Y-117712614D01*
X18491654Y-117712614D02*
X18491654Y-117284042D01*
X18491654Y-117284042D02*
X18563082Y-117141185D01*
X18563082Y-117141185D02*
X18634511Y-117069757D01*
X18634511Y-117069757D02*
X18777368Y-116998328D01*
X18777368Y-116998328D02*
X18991654Y-116998328D01*
X18991654Y-116998328D02*
X19134511Y-117069757D01*
X19134511Y-117069757D02*
X19205940Y-117141185D01*
X19205940Y-117141185D02*
X19277368Y-117284042D01*
X19277368Y-117284042D02*
X19277368Y-117712614D01*
X19277368Y-117712614D02*
X19205940Y-117855471D01*
X19205940Y-117855471D02*
X19134511Y-117926900D01*
X19134511Y-117926900D02*
X18991654Y-117998328D01*
X18991654Y-117998328D02*
X18777368Y-117998328D01*
X20134511Y-117998328D02*
X19991654Y-117926900D01*
X19991654Y-117926900D02*
X19920225Y-117784042D01*
X19920225Y-117784042D02*
X19920225Y-116498328D01*
X21348797Y-117998328D02*
X21348797Y-117212614D01*
X21348797Y-117212614D02*
X21277368Y-117069757D01*
X21277368Y-117069757D02*
X21134511Y-116998328D01*
X21134511Y-116998328D02*
X20848797Y-116998328D01*
X20848797Y-116998328D02*
X20705939Y-117069757D01*
X21348797Y-117926900D02*
X21205939Y-117998328D01*
X21205939Y-117998328D02*
X20848797Y-117998328D01*
X20848797Y-117998328D02*
X20705939Y-117926900D01*
X20705939Y-117926900D02*
X20634511Y-117784042D01*
X20634511Y-117784042D02*
X20634511Y-117641185D01*
X20634511Y-117641185D02*
X20705939Y-117498328D01*
X20705939Y-117498328D02*
X20848797Y-117426900D01*
X20848797Y-117426900D02*
X21205939Y-117426900D01*
X21205939Y-117426900D02*
X21348797Y-117355471D01*
X21991654Y-117926900D02*
X22134511Y-117998328D01*
X22134511Y-117998328D02*
X22420225Y-117998328D01*
X22420225Y-117998328D02*
X22563082Y-117926900D01*
X22563082Y-117926900D02*
X22634511Y-117784042D01*
X22634511Y-117784042D02*
X22634511Y-117712614D01*
X22634511Y-117712614D02*
X22563082Y-117569757D01*
X22563082Y-117569757D02*
X22420225Y-117498328D01*
X22420225Y-117498328D02*
X22205940Y-117498328D01*
X22205940Y-117498328D02*
X22063082Y-117426900D01*
X22063082Y-117426900D02*
X21991654Y-117284042D01*
X21991654Y-117284042D02*
X21991654Y-117212614D01*
X21991654Y-117212614D02*
X22063082Y-117069757D01*
X22063082Y-117069757D02*
X22205940Y-116998328D01*
X22205940Y-116998328D02*
X22420225Y-116998328D01*
X22420225Y-116998328D02*
X22563082Y-117069757D01*
X24420225Y-117998328D02*
X24420225Y-116498328D01*
X24420225Y-116498328D02*
X25277368Y-117998328D01*
X25277368Y-117998328D02*
X25277368Y-116498328D01*
X25991654Y-117998328D02*
X25991654Y-116998328D01*
X25991654Y-116498328D02*
X25920226Y-116569757D01*
X25920226Y-116569757D02*
X25991654Y-116641185D01*
X25991654Y-116641185D02*
X26063083Y-116569757D01*
X26063083Y-116569757D02*
X25991654Y-116498328D01*
X25991654Y-116498328D02*
X25991654Y-116641185D01*
X26920226Y-117998328D02*
X26777369Y-117926900D01*
X26777369Y-117926900D02*
X26705940Y-117784042D01*
X26705940Y-117784042D02*
X26705940Y-116498328D01*
X28063083Y-117926900D02*
X27920226Y-117998328D01*
X27920226Y-117998328D02*
X27634512Y-117998328D01*
X27634512Y-117998328D02*
X27491654Y-117926900D01*
X27491654Y-117926900D02*
X27420226Y-117784042D01*
X27420226Y-117784042D02*
X27420226Y-117212614D01*
X27420226Y-117212614D02*
X27491654Y-117069757D01*
X27491654Y-117069757D02*
X27634512Y-116998328D01*
X27634512Y-116998328D02*
X27920226Y-116998328D01*
X27920226Y-116998328D02*
X28063083Y-117069757D01*
X28063083Y-117069757D02*
X28134512Y-117212614D01*
X28134512Y-117212614D02*
X28134512Y-117355471D01*
X28134512Y-117355471D02*
X27420226Y-117498328D01*
X28705940Y-117926900D02*
X28848797Y-117998328D01*
X28848797Y-117998328D02*
X29134511Y-117998328D01*
X29134511Y-117998328D02*
X29277368Y-117926900D01*
X29277368Y-117926900D02*
X29348797Y-117784042D01*
X29348797Y-117784042D02*
X29348797Y-117712614D01*
X29348797Y-117712614D02*
X29277368Y-117569757D01*
X29277368Y-117569757D02*
X29134511Y-117498328D01*
X29134511Y-117498328D02*
X28920226Y-117498328D01*
X28920226Y-117498328D02*
X28777368Y-117426900D01*
X28777368Y-117426900D02*
X28705940Y-117284042D01*
X28705940Y-117284042D02*
X28705940Y-117212614D01*
X28705940Y-117212614D02*
X28777368Y-117069757D01*
X28777368Y-117069757D02*
X28920226Y-116998328D01*
X28920226Y-116998328D02*
X29134511Y-116998328D01*
X29134511Y-116998328D02*
X29277368Y-117069757D01*
D10*
D11*
X13464398Y-114577557D02*
X14178684Y-114577557D01*
X13321541Y-115006128D02*
X13821541Y-113506128D01*
X13821541Y-113506128D02*
X14321541Y-115006128D01*
X15464398Y-114934700D02*
X15321540Y-115006128D01*
X15321540Y-115006128D02*
X15035826Y-115006128D01*
X15035826Y-115006128D02*
X14892969Y-114934700D01*
X14892969Y-114934700D02*
X14821540Y-114863271D01*
X14821540Y-114863271D02*
X14750112Y-114720414D01*
X14750112Y-114720414D02*
X14750112Y-114291842D01*
X14750112Y-114291842D02*
X14821540Y-114148985D01*
X14821540Y-114148985D02*
X14892969Y-114077557D01*
X14892969Y-114077557D02*
X15035826Y-114006128D01*
X15035826Y-114006128D02*
X15321540Y-114006128D01*
X15321540Y-114006128D02*
X15464398Y-114077557D01*
X15892969Y-114006128D02*
X16464397Y-114006128D01*
X16107254Y-113506128D02*
X16107254Y-114791842D01*
X16107254Y-114791842D02*
X16178683Y-114934700D01*
X16178683Y-114934700D02*
X16321540Y-115006128D01*
X16321540Y-115006128D02*
X16464397Y-115006128D01*
X17607255Y-114006128D02*
X17607255Y-115006128D01*
X16964397Y-114006128D02*
X16964397Y-114791842D01*
X16964397Y-114791842D02*
X17035826Y-114934700D01*
X17035826Y-114934700D02*
X17178683Y-115006128D01*
X17178683Y-115006128D02*
X17392969Y-115006128D01*
X17392969Y-115006128D02*
X17535826Y-114934700D01*
X17535826Y-114934700D02*
X17607255Y-114863271D01*
X18964398Y-115006128D02*
X18964398Y-114220414D01*
X18964398Y-114220414D02*
X18892969Y-114077557D01*
X18892969Y-114077557D02*
X18750112Y-114006128D01*
X18750112Y-114006128D02*
X18464398Y-114006128D01*
X18464398Y-114006128D02*
X18321540Y-114077557D01*
X18964398Y-114934700D02*
X18821540Y-115006128D01*
X18821540Y-115006128D02*
X18464398Y-115006128D01*
X18464398Y-115006128D02*
X18321540Y-114934700D01*
X18321540Y-114934700D02*
X18250112Y-114791842D01*
X18250112Y-114791842D02*
X18250112Y-114648985D01*
X18250112Y-114648985D02*
X18321540Y-114506128D01*
X18321540Y-114506128D02*
X18464398Y-114434700D01*
X18464398Y-114434700D02*
X18821540Y-114434700D01*
X18821540Y-114434700D02*
X18964398Y-114363271D01*
X19892969Y-115006128D02*
X19750112Y-114934700D01*
X19750112Y-114934700D02*
X19678683Y-114791842D01*
X19678683Y-114791842D02*
X19678683Y-113506128D01*
X20678683Y-115006128D02*
X20535826Y-114934700D01*
X20535826Y-114934700D02*
X20464397Y-114791842D01*
X20464397Y-114791842D02*
X20464397Y-113506128D01*
X21107254Y-114006128D02*
X21464397Y-115006128D01*
X21821540Y-114006128D02*
X21464397Y-115006128D01*
X21464397Y-115006128D02*
X21321540Y-115363271D01*
X21321540Y-115363271D02*
X21250111Y-115434700D01*
X21250111Y-115434700D02*
X21107254Y-115506128D01*
X23535825Y-115006128D02*
X23535825Y-114006128D01*
X23535825Y-114291842D02*
X23607254Y-114148985D01*
X23607254Y-114148985D02*
X23678683Y-114077557D01*
X23678683Y-114077557D02*
X23821540Y-114006128D01*
X23821540Y-114006128D02*
X23964397Y-114006128D01*
X24678682Y-115006128D02*
X24535825Y-114934700D01*
X24535825Y-114934700D02*
X24464396Y-114863271D01*
X24464396Y-114863271D02*
X24392968Y-114720414D01*
X24392968Y-114720414D02*
X24392968Y-114291842D01*
X24392968Y-114291842D02*
X24464396Y-114148985D01*
X24464396Y-114148985D02*
X24535825Y-114077557D01*
X24535825Y-114077557D02*
X24678682Y-114006128D01*
X24678682Y-114006128D02*
X24892968Y-114006128D01*
X24892968Y-114006128D02*
X25035825Y-114077557D01*
X25035825Y-114077557D02*
X25107254Y-114148985D01*
X25107254Y-114148985D02*
X25178682Y-114291842D01*
X25178682Y-114291842D02*
X25178682Y-114720414D01*
X25178682Y-114720414D02*
X25107254Y-114863271D01*
X25107254Y-114863271D02*
X25035825Y-114934700D01*
X25035825Y-114934700D02*
X24892968Y-115006128D01*
X24892968Y-115006128D02*
X24678682Y-115006128D01*
X26464397Y-114006128D02*
X26464397Y-115006128D01*
X25821539Y-114006128D02*
X25821539Y-114791842D01*
X25821539Y-114791842D02*
X25892968Y-114934700D01*
X25892968Y-114934700D02*
X26035825Y-115006128D01*
X26035825Y-115006128D02*
X26250111Y-115006128D01*
X26250111Y-115006128D02*
X26392968Y-114934700D01*
X26392968Y-114934700D02*
X26464397Y-114863271D01*
X26964397Y-114006128D02*
X27535825Y-114006128D01*
X27178682Y-113506128D02*
X27178682Y-114791842D01*
X27178682Y-114791842D02*
X27250111Y-114934700D01*
X27250111Y-114934700D02*
X27392968Y-115006128D01*
X27392968Y-115006128D02*
X27535825Y-115006128D01*
X28607254Y-114934700D02*
X28464397Y-115006128D01*
X28464397Y-115006128D02*
X28178683Y-115006128D01*
X28178683Y-115006128D02*
X28035825Y-114934700D01*
X28035825Y-114934700D02*
X27964397Y-114791842D01*
X27964397Y-114791842D02*
X27964397Y-114220414D01*
X27964397Y-114220414D02*
X28035825Y-114077557D01*
X28035825Y-114077557D02*
X28178683Y-114006128D01*
X28178683Y-114006128D02*
X28464397Y-114006128D01*
X28464397Y-114006128D02*
X28607254Y-114077557D01*
X28607254Y-114077557D02*
X28678683Y-114220414D01*
X28678683Y-114220414D02*
X28678683Y-114363271D01*
X28678683Y-114363271D02*
X27964397Y-114506128D01*
X29964397Y-115006128D02*
X29964397Y-113506128D01*
X29964397Y-114934700D02*
X29821539Y-115006128D01*
X29821539Y-115006128D02*
X29535825Y-115006128D01*
X29535825Y-115006128D02*
X29392968Y-114934700D01*
X29392968Y-114934700D02*
X29321539Y-114863271D01*
X29321539Y-114863271D02*
X29250111Y-114720414D01*
X29250111Y-114720414D02*
X29250111Y-114291842D01*
X29250111Y-114291842D02*
X29321539Y-114148985D01*
X29321539Y-114148985D02*
X29392968Y-114077557D01*
X29392968Y-114077557D02*
X29535825Y-114006128D01*
X29535825Y-114006128D02*
X29821539Y-114006128D01*
X29821539Y-114006128D02*
X29964397Y-114077557D01*
X31607254Y-114006128D02*
X32178682Y-114006128D01*
X31821539Y-113506128D02*
X31821539Y-114791842D01*
X31821539Y-114791842D02*
X31892968Y-114934700D01*
X31892968Y-114934700D02*
X32035825Y-115006128D01*
X32035825Y-115006128D02*
X32178682Y-115006128D01*
X32678682Y-115006128D02*
X32678682Y-114006128D01*
X32678682Y-114291842D02*
X32750111Y-114148985D01*
X32750111Y-114148985D02*
X32821540Y-114077557D01*
X32821540Y-114077557D02*
X32964397Y-114006128D01*
X32964397Y-114006128D02*
X33107254Y-114006128D01*
X34250111Y-115006128D02*
X34250111Y-114220414D01*
X34250111Y-114220414D02*
X34178682Y-114077557D01*
X34178682Y-114077557D02*
X34035825Y-114006128D01*
X34035825Y-114006128D02*
X33750111Y-114006128D01*
X33750111Y-114006128D02*
X33607253Y-114077557D01*
X34250111Y-114934700D02*
X34107253Y-115006128D01*
X34107253Y-115006128D02*
X33750111Y-115006128D01*
X33750111Y-115006128D02*
X33607253Y-114934700D01*
X33607253Y-114934700D02*
X33535825Y-114791842D01*
X33535825Y-114791842D02*
X33535825Y-114648985D01*
X33535825Y-114648985D02*
X33607253Y-114506128D01*
X33607253Y-114506128D02*
X33750111Y-114434700D01*
X33750111Y-114434700D02*
X34107253Y-114434700D01*
X34107253Y-114434700D02*
X34250111Y-114363271D01*
X35607254Y-114934700D02*
X35464396Y-115006128D01*
X35464396Y-115006128D02*
X35178682Y-115006128D01*
X35178682Y-115006128D02*
X35035825Y-114934700D01*
X35035825Y-114934700D02*
X34964396Y-114863271D01*
X34964396Y-114863271D02*
X34892968Y-114720414D01*
X34892968Y-114720414D02*
X34892968Y-114291842D01*
X34892968Y-114291842D02*
X34964396Y-114148985D01*
X34964396Y-114148985D02*
X35035825Y-114077557D01*
X35035825Y-114077557D02*
X35178682Y-114006128D01*
X35178682Y-114006128D02*
X35464396Y-114006128D01*
X35464396Y-114006128D02*
X35607254Y-114077557D01*
X36821539Y-114934700D02*
X36678682Y-115006128D01*
X36678682Y-115006128D02*
X36392968Y-115006128D01*
X36392968Y-115006128D02*
X36250110Y-114934700D01*
X36250110Y-114934700D02*
X36178682Y-114791842D01*
X36178682Y-114791842D02*
X36178682Y-114220414D01*
X36178682Y-114220414D02*
X36250110Y-114077557D01*
X36250110Y-114077557D02*
X36392968Y-114006128D01*
X36392968Y-114006128D02*
X36678682Y-114006128D01*
X36678682Y-114006128D02*
X36821539Y-114077557D01*
X36821539Y-114077557D02*
X36892968Y-114220414D01*
X36892968Y-114220414D02*
X36892968Y-114363271D01*
X36892968Y-114363271D02*
X36178682Y-114506128D01*
X38535824Y-114006128D02*
X38892967Y-115006128D01*
X38892967Y-115006128D02*
X39250110Y-114006128D01*
X40392967Y-114934700D02*
X40250110Y-115006128D01*
X40250110Y-115006128D02*
X39964396Y-115006128D01*
X39964396Y-115006128D02*
X39821538Y-114934700D01*
X39821538Y-114934700D02*
X39750110Y-114791842D01*
X39750110Y-114791842D02*
X39750110Y-114220414D01*
X39750110Y-114220414D02*
X39821538Y-114077557D01*
X39821538Y-114077557D02*
X39964396Y-114006128D01*
X39964396Y-114006128D02*
X40250110Y-114006128D01*
X40250110Y-114006128D02*
X40392967Y-114077557D01*
X40392967Y-114077557D02*
X40464396Y-114220414D01*
X40464396Y-114220414D02*
X40464396Y-114363271D01*
X40464396Y-114363271D02*
X39750110Y-114506128D01*
X41107252Y-115006128D02*
X41107252Y-114006128D01*
X41107252Y-114291842D02*
X41178681Y-114148985D01*
X41178681Y-114148985D02*
X41250110Y-114077557D01*
X41250110Y-114077557D02*
X41392967Y-114006128D01*
X41392967Y-114006128D02*
X41535824Y-114006128D01*
X41964395Y-114934700D02*
X42107252Y-115006128D01*
X42107252Y-115006128D02*
X42392966Y-115006128D01*
X42392966Y-115006128D02*
X42535823Y-114934700D01*
X42535823Y-114934700D02*
X42607252Y-114791842D01*
X42607252Y-114791842D02*
X42607252Y-114720414D01*
X42607252Y-114720414D02*
X42535823Y-114577557D01*
X42535823Y-114577557D02*
X42392966Y-114506128D01*
X42392966Y-114506128D02*
X42178681Y-114506128D01*
X42178681Y-114506128D02*
X42035823Y-114434700D01*
X42035823Y-114434700D02*
X41964395Y-114291842D01*
X41964395Y-114291842D02*
X41964395Y-114220414D01*
X41964395Y-114220414D02*
X42035823Y-114077557D01*
X42035823Y-114077557D02*
X42178681Y-114006128D01*
X42178681Y-114006128D02*
X42392966Y-114006128D01*
X42392966Y-114006128D02*
X42535823Y-114077557D01*
X43250109Y-115006128D02*
X43250109Y-114006128D01*
X43250109Y-113506128D02*
X43178681Y-113577557D01*
X43178681Y-113577557D02*
X43250109Y-113648985D01*
X43250109Y-113648985D02*
X43321538Y-113577557D01*
X43321538Y-113577557D02*
X43250109Y-113506128D01*
X43250109Y-113506128D02*
X43250109Y-113648985D01*
X44178681Y-115006128D02*
X44035824Y-114934700D01*
X44035824Y-114934700D02*
X43964395Y-114863271D01*
X43964395Y-114863271D02*
X43892967Y-114720414D01*
X43892967Y-114720414D02*
X43892967Y-114291842D01*
X43892967Y-114291842D02*
X43964395Y-114148985D01*
X43964395Y-114148985D02*
X44035824Y-114077557D01*
X44035824Y-114077557D02*
X44178681Y-114006128D01*
X44178681Y-114006128D02*
X44392967Y-114006128D01*
X44392967Y-114006128D02*
X44535824Y-114077557D01*
X44535824Y-114077557D02*
X44607253Y-114148985D01*
X44607253Y-114148985D02*
X44678681Y-114291842D01*
X44678681Y-114291842D02*
X44678681Y-114720414D01*
X44678681Y-114720414D02*
X44607253Y-114863271D01*
X44607253Y-114863271D02*
X44535824Y-114934700D01*
X44535824Y-114934700D02*
X44392967Y-115006128D01*
X44392967Y-115006128D02*
X44178681Y-115006128D01*
X45321538Y-114006128D02*
X45321538Y-115006128D01*
X45321538Y-114148985D02*
X45392967Y-114077557D01*
X45392967Y-114077557D02*
X45535824Y-114006128D01*
X45535824Y-114006128D02*
X45750110Y-114006128D01*
X45750110Y-114006128D02*
X45892967Y-114077557D01*
X45892967Y-114077557D02*
X45964396Y-114220414D01*
X45964396Y-114220414D02*
X45964396Y-115006128D01*
X48035824Y-115006128D02*
X47892967Y-114934700D01*
X47892967Y-114934700D02*
X47821538Y-114863271D01*
X47821538Y-114863271D02*
X47750110Y-114720414D01*
X47750110Y-114720414D02*
X47750110Y-114291842D01*
X47750110Y-114291842D02*
X47821538Y-114148985D01*
X47821538Y-114148985D02*
X47892967Y-114077557D01*
X47892967Y-114077557D02*
X48035824Y-114006128D01*
X48035824Y-114006128D02*
X48250110Y-114006128D01*
X48250110Y-114006128D02*
X48392967Y-114077557D01*
X48392967Y-114077557D02*
X48464396Y-114148985D01*
X48464396Y-114148985D02*
X48535824Y-114291842D01*
X48535824Y-114291842D02*
X48535824Y-114720414D01*
X48535824Y-114720414D02*
X48464396Y-114863271D01*
X48464396Y-114863271D02*
X48392967Y-114934700D01*
X48392967Y-114934700D02*
X48250110Y-115006128D01*
X48250110Y-115006128D02*
X48035824Y-115006128D01*
X48964396Y-114006128D02*
X49535824Y-114006128D01*
X49178681Y-115006128D02*
X49178681Y-113720414D01*
X49178681Y-113720414D02*
X49250110Y-113577557D01*
X49250110Y-113577557D02*
X49392967Y-113506128D01*
X49392967Y-113506128D02*
X49535824Y-113506128D01*
X51107253Y-114934700D02*
X51250110Y-115006128D01*
X51250110Y-115006128D02*
X51535824Y-115006128D01*
X51535824Y-115006128D02*
X51678681Y-114934700D01*
X51678681Y-114934700D02*
X51750110Y-114791842D01*
X51750110Y-114791842D02*
X51750110Y-114720414D01*
X51750110Y-114720414D02*
X51678681Y-114577557D01*
X51678681Y-114577557D02*
X51535824Y-114506128D01*
X51535824Y-114506128D02*
X51321539Y-114506128D01*
X51321539Y-114506128D02*
X51178681Y-114434700D01*
X51178681Y-114434700D02*
X51107253Y-114291842D01*
X51107253Y-114291842D02*
X51107253Y-114220414D01*
X51107253Y-114220414D02*
X51178681Y-114077557D01*
X51178681Y-114077557D02*
X51321539Y-114006128D01*
X51321539Y-114006128D02*
X51535824Y-114006128D01*
X51535824Y-114006128D02*
X51678681Y-114077557D01*
X53035825Y-114934700D02*
X52892967Y-115006128D01*
X52892967Y-115006128D02*
X52607253Y-115006128D01*
X52607253Y-115006128D02*
X52464396Y-114934700D01*
X52464396Y-114934700D02*
X52392967Y-114863271D01*
X52392967Y-114863271D02*
X52321539Y-114720414D01*
X52321539Y-114720414D02*
X52321539Y-114291842D01*
X52321539Y-114291842D02*
X52392967Y-114148985D01*
X52392967Y-114148985D02*
X52464396Y-114077557D01*
X52464396Y-114077557D02*
X52607253Y-114006128D01*
X52607253Y-114006128D02*
X52892967Y-114006128D01*
X52892967Y-114006128D02*
X53035825Y-114077557D01*
X53678681Y-115006128D02*
X53678681Y-113506128D01*
X54321539Y-115006128D02*
X54321539Y-114220414D01*
X54321539Y-114220414D02*
X54250110Y-114077557D01*
X54250110Y-114077557D02*
X54107253Y-114006128D01*
X54107253Y-114006128D02*
X53892967Y-114006128D01*
X53892967Y-114006128D02*
X53750110Y-114077557D01*
X53750110Y-114077557D02*
X53678681Y-114148985D01*
X55607253Y-114934700D02*
X55464396Y-115006128D01*
X55464396Y-115006128D02*
X55178682Y-115006128D01*
X55178682Y-115006128D02*
X55035824Y-114934700D01*
X55035824Y-114934700D02*
X54964396Y-114791842D01*
X54964396Y-114791842D02*
X54964396Y-114220414D01*
X54964396Y-114220414D02*
X55035824Y-114077557D01*
X55035824Y-114077557D02*
X55178682Y-114006128D01*
X55178682Y-114006128D02*
X55464396Y-114006128D01*
X55464396Y-114006128D02*
X55607253Y-114077557D01*
X55607253Y-114077557D02*
X55678682Y-114220414D01*
X55678682Y-114220414D02*
X55678682Y-114363271D01*
X55678682Y-114363271D02*
X54964396Y-114506128D01*
X56321538Y-115006128D02*
X56321538Y-114006128D01*
X56321538Y-114148985D02*
X56392967Y-114077557D01*
X56392967Y-114077557D02*
X56535824Y-114006128D01*
X56535824Y-114006128D02*
X56750110Y-114006128D01*
X56750110Y-114006128D02*
X56892967Y-114077557D01*
X56892967Y-114077557D02*
X56964396Y-114220414D01*
X56964396Y-114220414D02*
X56964396Y-115006128D01*
X56964396Y-114220414D02*
X57035824Y-114077557D01*
X57035824Y-114077557D02*
X57178681Y-114006128D01*
X57178681Y-114006128D02*
X57392967Y-114006128D01*
X57392967Y-114006128D02*
X57535824Y-114077557D01*
X57535824Y-114077557D02*
X57607253Y-114220414D01*
X57607253Y-114220414D02*
X57607253Y-115006128D01*
X58964396Y-115006128D02*
X58964396Y-114220414D01*
X58964396Y-114220414D02*
X58892967Y-114077557D01*
X58892967Y-114077557D02*
X58750110Y-114006128D01*
X58750110Y-114006128D02*
X58464396Y-114006128D01*
X58464396Y-114006128D02*
X58321538Y-114077557D01*
X58964396Y-114934700D02*
X58821538Y-115006128D01*
X58821538Y-115006128D02*
X58464396Y-115006128D01*
X58464396Y-115006128D02*
X58321538Y-114934700D01*
X58321538Y-114934700D02*
X58250110Y-114791842D01*
X58250110Y-114791842D02*
X58250110Y-114648985D01*
X58250110Y-114648985D02*
X58321538Y-114506128D01*
X58321538Y-114506128D02*
X58464396Y-114434700D01*
X58464396Y-114434700D02*
X58821538Y-114434700D01*
X58821538Y-114434700D02*
X58964396Y-114363271D01*
X59464396Y-114006128D02*
X60035824Y-114006128D01*
X59678681Y-113506128D02*
X59678681Y-114791842D01*
X59678681Y-114791842D02*
X59750110Y-114934700D01*
X59750110Y-114934700D02*
X59892967Y-115006128D01*
X59892967Y-115006128D02*
X60035824Y-115006128D01*
X60535824Y-115006128D02*
X60535824Y-114006128D01*
X60535824Y-113506128D02*
X60464396Y-113577557D01*
X60464396Y-113577557D02*
X60535824Y-113648985D01*
X60535824Y-113648985D02*
X60607253Y-113577557D01*
X60607253Y-113577557D02*
X60535824Y-113506128D01*
X60535824Y-113506128D02*
X60535824Y-113648985D01*
X61892968Y-114934700D02*
X61750110Y-115006128D01*
X61750110Y-115006128D02*
X61464396Y-115006128D01*
X61464396Y-115006128D02*
X61321539Y-114934700D01*
X61321539Y-114934700D02*
X61250110Y-114863271D01*
X61250110Y-114863271D02*
X61178682Y-114720414D01*
X61178682Y-114720414D02*
X61178682Y-114291842D01*
X61178682Y-114291842D02*
X61250110Y-114148985D01*
X61250110Y-114148985D02*
X61321539Y-114077557D01*
X61321539Y-114077557D02*
X61464396Y-114006128D01*
X61464396Y-114006128D02*
X61750110Y-114006128D01*
X61750110Y-114006128D02*
X61892968Y-114077557D01*
D10*
D11*
X14035826Y-111220414D02*
X13535826Y-111220414D01*
X13535826Y-112006128D02*
X13535826Y-110506128D01*
X13535826Y-110506128D02*
X14250112Y-110506128D01*
X15035826Y-112006128D02*
X14892969Y-111934700D01*
X14892969Y-111934700D02*
X14821540Y-111863271D01*
X14821540Y-111863271D02*
X14750112Y-111720414D01*
X14750112Y-111720414D02*
X14750112Y-111291842D01*
X14750112Y-111291842D02*
X14821540Y-111148985D01*
X14821540Y-111148985D02*
X14892969Y-111077557D01*
X14892969Y-111077557D02*
X15035826Y-111006128D01*
X15035826Y-111006128D02*
X15250112Y-111006128D01*
X15250112Y-111006128D02*
X15392969Y-111077557D01*
X15392969Y-111077557D02*
X15464398Y-111148985D01*
X15464398Y-111148985D02*
X15535826Y-111291842D01*
X15535826Y-111291842D02*
X15535826Y-111720414D01*
X15535826Y-111720414D02*
X15464398Y-111863271D01*
X15464398Y-111863271D02*
X15392969Y-111934700D01*
X15392969Y-111934700D02*
X15250112Y-112006128D01*
X15250112Y-112006128D02*
X15035826Y-112006128D01*
X16178683Y-112006128D02*
X16178683Y-111006128D01*
X16178683Y-111291842D02*
X16250112Y-111148985D01*
X16250112Y-111148985D02*
X16321541Y-111077557D01*
X16321541Y-111077557D02*
X16464398Y-111006128D01*
X16464398Y-111006128D02*
X16607255Y-111006128D01*
X18250111Y-112006128D02*
X18250111Y-111006128D01*
X18250111Y-111148985D02*
X18321540Y-111077557D01*
X18321540Y-111077557D02*
X18464397Y-111006128D01*
X18464397Y-111006128D02*
X18678683Y-111006128D01*
X18678683Y-111006128D02*
X18821540Y-111077557D01*
X18821540Y-111077557D02*
X18892969Y-111220414D01*
X18892969Y-111220414D02*
X18892969Y-112006128D01*
X18892969Y-111220414D02*
X18964397Y-111077557D01*
X18964397Y-111077557D02*
X19107254Y-111006128D01*
X19107254Y-111006128D02*
X19321540Y-111006128D01*
X19321540Y-111006128D02*
X19464397Y-111077557D01*
X19464397Y-111077557D02*
X19535826Y-111220414D01*
X19535826Y-111220414D02*
X19535826Y-112006128D01*
X20250111Y-112006128D02*
X20250111Y-111006128D01*
X20250111Y-110506128D02*
X20178683Y-110577557D01*
X20178683Y-110577557D02*
X20250111Y-110648985D01*
X20250111Y-110648985D02*
X20321540Y-110577557D01*
X20321540Y-110577557D02*
X20250111Y-110506128D01*
X20250111Y-110506128D02*
X20250111Y-110648985D01*
X21178683Y-112006128D02*
X21035826Y-111934700D01*
X21035826Y-111934700D02*
X20964397Y-111791842D01*
X20964397Y-111791842D02*
X20964397Y-110506128D01*
X21964397Y-112006128D02*
X21821540Y-111934700D01*
X21821540Y-111934700D02*
X21750111Y-111791842D01*
X21750111Y-111791842D02*
X21750111Y-110506128D01*
X22535825Y-112006128D02*
X22535825Y-111006128D01*
X22535825Y-110506128D02*
X22464397Y-110577557D01*
X22464397Y-110577557D02*
X22535825Y-110648985D01*
X22535825Y-110648985D02*
X22607254Y-110577557D01*
X22607254Y-110577557D02*
X22535825Y-110506128D01*
X22535825Y-110506128D02*
X22535825Y-110648985D01*
X23250111Y-111006128D02*
X23250111Y-112006128D01*
X23250111Y-111148985D02*
X23321540Y-111077557D01*
X23321540Y-111077557D02*
X23464397Y-111006128D01*
X23464397Y-111006128D02*
X23678683Y-111006128D01*
X23678683Y-111006128D02*
X23821540Y-111077557D01*
X23821540Y-111077557D02*
X23892969Y-111220414D01*
X23892969Y-111220414D02*
X23892969Y-112006128D01*
X25250112Y-111006128D02*
X25250112Y-112220414D01*
X25250112Y-112220414D02*
X25178683Y-112363271D01*
X25178683Y-112363271D02*
X25107254Y-112434700D01*
X25107254Y-112434700D02*
X24964397Y-112506128D01*
X24964397Y-112506128D02*
X24750112Y-112506128D01*
X24750112Y-112506128D02*
X24607254Y-112434700D01*
X25250112Y-111934700D02*
X25107254Y-112006128D01*
X25107254Y-112006128D02*
X24821540Y-112006128D01*
X24821540Y-112006128D02*
X24678683Y-111934700D01*
X24678683Y-111934700D02*
X24607254Y-111863271D01*
X24607254Y-111863271D02*
X24535826Y-111720414D01*
X24535826Y-111720414D02*
X24535826Y-111291842D01*
X24535826Y-111291842D02*
X24607254Y-111148985D01*
X24607254Y-111148985D02*
X24678683Y-111077557D01*
X24678683Y-111077557D02*
X24821540Y-111006128D01*
X24821540Y-111006128D02*
X25107254Y-111006128D01*
X25107254Y-111006128D02*
X25250112Y-111077557D01*
X27321540Y-112006128D02*
X27178683Y-111934700D01*
X27178683Y-111934700D02*
X27107254Y-111863271D01*
X27107254Y-111863271D02*
X27035826Y-111720414D01*
X27035826Y-111720414D02*
X27035826Y-111291842D01*
X27035826Y-111291842D02*
X27107254Y-111148985D01*
X27107254Y-111148985D02*
X27178683Y-111077557D01*
X27178683Y-111077557D02*
X27321540Y-111006128D01*
X27321540Y-111006128D02*
X27535826Y-111006128D01*
X27535826Y-111006128D02*
X27678683Y-111077557D01*
X27678683Y-111077557D02*
X27750112Y-111148985D01*
X27750112Y-111148985D02*
X27821540Y-111291842D01*
X27821540Y-111291842D02*
X27821540Y-111720414D01*
X27821540Y-111720414D02*
X27750112Y-111863271D01*
X27750112Y-111863271D02*
X27678683Y-111934700D01*
X27678683Y-111934700D02*
X27535826Y-112006128D01*
X27535826Y-112006128D02*
X27321540Y-112006128D01*
X28464397Y-111006128D02*
X28464397Y-112006128D01*
X28464397Y-111148985D02*
X28535826Y-111077557D01*
X28535826Y-111077557D02*
X28678683Y-111006128D01*
X28678683Y-111006128D02*
X28892969Y-111006128D01*
X28892969Y-111006128D02*
X29035826Y-111077557D01*
X29035826Y-111077557D02*
X29107255Y-111220414D01*
X29107255Y-111220414D02*
X29107255Y-112006128D01*
X30964397Y-112006128D02*
X30964397Y-110506128D01*
X30964397Y-110506128D02*
X31535826Y-110506128D01*
X31535826Y-110506128D02*
X31678683Y-110577557D01*
X31678683Y-110577557D02*
X31750112Y-110648985D01*
X31750112Y-110648985D02*
X31821540Y-110791842D01*
X31821540Y-110791842D02*
X31821540Y-111006128D01*
X31821540Y-111006128D02*
X31750112Y-111148985D01*
X31750112Y-111148985D02*
X31678683Y-111220414D01*
X31678683Y-111220414D02*
X31535826Y-111291842D01*
X31535826Y-111291842D02*
X30964397Y-111291842D01*
X33321540Y-111863271D02*
X33250112Y-111934700D01*
X33250112Y-111934700D02*
X33035826Y-112006128D01*
X33035826Y-112006128D02*
X32892969Y-112006128D01*
X32892969Y-112006128D02*
X32678683Y-111934700D01*
X32678683Y-111934700D02*
X32535826Y-111791842D01*
X32535826Y-111791842D02*
X32464397Y-111648985D01*
X32464397Y-111648985D02*
X32392969Y-111363271D01*
X32392969Y-111363271D02*
X32392969Y-111148985D01*
X32392969Y-111148985D02*
X32464397Y-110863271D01*
X32464397Y-110863271D02*
X32535826Y-110720414D01*
X32535826Y-110720414D02*
X32678683Y-110577557D01*
X32678683Y-110577557D02*
X32892969Y-110506128D01*
X32892969Y-110506128D02*
X33035826Y-110506128D01*
X33035826Y-110506128D02*
X33250112Y-110577557D01*
X33250112Y-110577557D02*
X33321540Y-110648985D01*
X34464397Y-111220414D02*
X34678683Y-111291842D01*
X34678683Y-111291842D02*
X34750112Y-111363271D01*
X34750112Y-111363271D02*
X34821540Y-111506128D01*
X34821540Y-111506128D02*
X34821540Y-111720414D01*
X34821540Y-111720414D02*
X34750112Y-111863271D01*
X34750112Y-111863271D02*
X34678683Y-111934700D01*
X34678683Y-111934700D02*
X34535826Y-112006128D01*
X34535826Y-112006128D02*
X33964397Y-112006128D01*
X33964397Y-112006128D02*
X33964397Y-110506128D01*
X33964397Y-110506128D02*
X34464397Y-110506128D01*
X34464397Y-110506128D02*
X34607255Y-110577557D01*
X34607255Y-110577557D02*
X34678683Y-110648985D01*
X34678683Y-110648985D02*
X34750112Y-110791842D01*
X34750112Y-110791842D02*
X34750112Y-110934700D01*
X34750112Y-110934700D02*
X34678683Y-111077557D01*
X34678683Y-111077557D02*
X34607255Y-111148985D01*
X34607255Y-111148985D02*
X34464397Y-111220414D01*
X34464397Y-111220414D02*
X33964397Y-111220414D01*
D10*
D11*
D10*
D11*
D10*
D11*
X32080000Y-128820000D02*
X32080000Y-131820000D01*
D10*
D11*
X96080000Y-128820000D02*
X96080000Y-135320000D01*
X48078333Y-68024819D02*
X47745000Y-67548628D01*
X47506905Y-68024819D02*
X47506905Y-67024819D01*
X47506905Y-67024819D02*
X47887857Y-67024819D01*
X47887857Y-67024819D02*
X47983095Y-67072438D01*
X47983095Y-67072438D02*
X48030714Y-67120057D01*
X48030714Y-67120057D02*
X48078333Y-67215295D01*
X48078333Y-67215295D02*
X48078333Y-67358152D01*
X48078333Y-67358152D02*
X48030714Y-67453390D01*
X48030714Y-67453390D02*
X47983095Y-67501009D01*
X47983095Y-67501009D02*
X47887857Y-67548628D01*
X47887857Y-67548628D02*
X47506905Y-67548628D01*
X48411667Y-67024819D02*
X49030714Y-67024819D01*
X49030714Y-67024819D02*
X48697381Y-67405771D01*
X48697381Y-67405771D02*
X48840238Y-67405771D01*
X48840238Y-67405771D02*
X48935476Y-67453390D01*
X48935476Y-67453390D02*
X48983095Y-67501009D01*
X48983095Y-67501009D02*
X49030714Y-67596247D01*
X49030714Y-67596247D02*
X49030714Y-67834342D01*
X49030714Y-67834342D02*
X48983095Y-67929580D01*
X48983095Y-67929580D02*
X48935476Y-67977200D01*
X48935476Y-67977200D02*
X48840238Y-68024819D01*
X48840238Y-68024819D02*
X48554524Y-68024819D01*
X48554524Y-68024819D02*
X48459286Y-67977200D01*
X48459286Y-67977200D02*
X48411667Y-67929580D01*
X62739819Y-58728094D02*
X61739819Y-58728094D01*
X61739819Y-58728094D02*
X61739819Y-58489999D01*
X61739819Y-58489999D02*
X61787438Y-58347142D01*
X61787438Y-58347142D02*
X61882676Y-58251904D01*
X61882676Y-58251904D02*
X61977914Y-58204285D01*
X61977914Y-58204285D02*
X62168390Y-58156666D01*
X62168390Y-58156666D02*
X62311247Y-58156666D01*
X62311247Y-58156666D02*
X62501723Y-58204285D01*
X62501723Y-58204285D02*
X62596961Y-58251904D01*
X62596961Y-58251904D02*
X62692200Y-58347142D01*
X62692200Y-58347142D02*
X62739819Y-58489999D01*
X62739819Y-58489999D02*
X62739819Y-58728094D01*
X62739819Y-57204285D02*
X62739819Y-57775713D01*
X62739819Y-57489999D02*
X61739819Y-57489999D01*
X61739819Y-57489999D02*
X61882676Y-57585237D01*
X61882676Y-57585237D02*
X61977914Y-57680475D01*
X61977914Y-57680475D02*
X62025533Y-57775713D01*
X51499819Y-54206506D02*
X52214104Y-54206506D01*
X52214104Y-54206506D02*
X52356961Y-54254125D01*
X52356961Y-54254125D02*
X52452200Y-54349363D01*
X52452200Y-54349363D02*
X52499819Y-54492220D01*
X52499819Y-54492220D02*
X52499819Y-54587458D01*
X52499819Y-53206506D02*
X52499819Y-53777934D01*
X52499819Y-53492220D02*
X51499819Y-53492220D01*
X51499819Y-53492220D02*
X51642676Y-53587458D01*
X51642676Y-53587458D02*
X51737914Y-53682696D01*
X51737914Y-53682696D02*
X51785533Y-53777934D01*
X45470057Y-61895238D02*
X45422438Y-61990476D01*
X45422438Y-61990476D02*
X45327200Y-62085714D01*
X45327200Y-62085714D02*
X45184342Y-62228571D01*
X45184342Y-62228571D02*
X45136723Y-62323809D01*
X45136723Y-62323809D02*
X45136723Y-62419047D01*
X45374819Y-62371428D02*
X45327200Y-62466666D01*
X45327200Y-62466666D02*
X45231961Y-62561904D01*
X45231961Y-62561904D02*
X45041485Y-62609523D01*
X45041485Y-62609523D02*
X44708152Y-62609523D01*
X44708152Y-62609523D02*
X44517676Y-62561904D01*
X44517676Y-62561904D02*
X44422438Y-62466666D01*
X44422438Y-62466666D02*
X44374819Y-62371428D01*
X44374819Y-62371428D02*
X44374819Y-62180952D01*
X44374819Y-62180952D02*
X44422438Y-62085714D01*
X44422438Y-62085714D02*
X44517676Y-61990476D01*
X44517676Y-61990476D02*
X44708152Y-61942857D01*
X44708152Y-61942857D02*
X45041485Y-61942857D01*
X45041485Y-61942857D02*
X45231961Y-61990476D01*
X45231961Y-61990476D02*
X45327200Y-62085714D01*
X45327200Y-62085714D02*
X45374819Y-62180952D01*
X45374819Y-62180952D02*
X45374819Y-62371428D01*
X45374819Y-60990476D02*
X45374819Y-61561904D01*
X45374819Y-61276190D02*
X44374819Y-61276190D01*
X44374819Y-61276190D02*
X44517676Y-61371428D01*
X44517676Y-61371428D02*
X44612914Y-61466666D01*
X44612914Y-61466666D02*
X44660533Y-61561904D01*
X56308095Y-54784819D02*
X56308095Y-55594342D01*
X56308095Y-55594342D02*
X56355714Y-55689580D01*
X56355714Y-55689580D02*
X56403333Y-55737200D01*
X56403333Y-55737200D02*
X56498571Y-55784819D01*
X56498571Y-55784819D02*
X56689047Y-55784819D01*
X56689047Y-55784819D02*
X56784285Y-55737200D01*
X56784285Y-55737200D02*
X56831904Y-55689580D01*
X56831904Y-55689580D02*
X56879523Y-55594342D01*
X56879523Y-55594342D02*
X56879523Y-54784819D01*
X57308095Y-54880057D02*
X57355714Y-54832438D01*
X57355714Y-54832438D02*
X57450952Y-54784819D01*
X57450952Y-54784819D02*
X57689047Y-54784819D01*
X57689047Y-54784819D02*
X57784285Y-54832438D01*
X57784285Y-54832438D02*
X57831904Y-54880057D01*
X57831904Y-54880057D02*
X57879523Y-54975295D01*
X57879523Y-54975295D02*
X57879523Y-55070533D01*
X57879523Y-55070533D02*
X57831904Y-55213390D01*
X57831904Y-55213390D02*
X57260476Y-55784819D01*
X57260476Y-55784819D02*
X57879523Y-55784819D01*
X65899819Y-58728094D02*
X64899819Y-58728094D01*
X64899819Y-58728094D02*
X64899819Y-58489999D01*
X64899819Y-58489999D02*
X64947438Y-58347142D01*
X64947438Y-58347142D02*
X65042676Y-58251904D01*
X65042676Y-58251904D02*
X65137914Y-58204285D01*
X65137914Y-58204285D02*
X65328390Y-58156666D01*
X65328390Y-58156666D02*
X65471247Y-58156666D01*
X65471247Y-58156666D02*
X65661723Y-58204285D01*
X65661723Y-58204285D02*
X65756961Y-58251904D01*
X65756961Y-58251904D02*
X65852200Y-58347142D01*
X65852200Y-58347142D02*
X65899819Y-58489999D01*
X65899819Y-58489999D02*
X65899819Y-58728094D01*
X64995057Y-57775713D02*
X64947438Y-57728094D01*
X64947438Y-57728094D02*
X64899819Y-57632856D01*
X64899819Y-57632856D02*
X64899819Y-57394761D01*
X64899819Y-57394761D02*
X64947438Y-57299523D01*
X64947438Y-57299523D02*
X64995057Y-57251904D01*
X64995057Y-57251904D02*
X65090295Y-57204285D01*
X65090295Y-57204285D02*
X65185533Y-57204285D01*
X65185533Y-57204285D02*
X65328390Y-57251904D01*
X65328390Y-57251904D02*
X65899819Y-57823332D01*
X65899819Y-57823332D02*
X65899819Y-57204285D01*
X69614819Y-63976666D02*
X69138628Y-64309999D01*
X69614819Y-64548094D02*
X68614819Y-64548094D01*
X68614819Y-64548094D02*
X68614819Y-64167142D01*
X68614819Y-64167142D02*
X68662438Y-64071904D01*
X68662438Y-64071904D02*
X68710057Y-64024285D01*
X68710057Y-64024285D02*
X68805295Y-63976666D01*
X68805295Y-63976666D02*
X68948152Y-63976666D01*
X68948152Y-63976666D02*
X69043390Y-64024285D01*
X69043390Y-64024285D02*
X69091009Y-64071904D01*
X69091009Y-64071904D02*
X69138628Y-64167142D01*
X69138628Y-64167142D02*
X69138628Y-64548094D01*
X68710057Y-63595713D02*
X68662438Y-63548094D01*
X68662438Y-63548094D02*
X68614819Y-63452856D01*
X68614819Y-63452856D02*
X68614819Y-63214761D01*
X68614819Y-63214761D02*
X68662438Y-63119523D01*
X68662438Y-63119523D02*
X68710057Y-63071904D01*
X68710057Y-63071904D02*
X68805295Y-63024285D01*
X68805295Y-63024285D02*
X68900533Y-63024285D01*
X68900533Y-63024285D02*
X69043390Y-63071904D01*
X69043390Y-63071904D02*
X69614819Y-63643332D01*
X69614819Y-63643332D02*
X69614819Y-63024285D01*
X62929819Y-65608506D02*
X63644104Y-65608506D01*
X63644104Y-65608506D02*
X63786961Y-65656125D01*
X63786961Y-65656125D02*
X63882200Y-65751363D01*
X63882200Y-65751363D02*
X63929819Y-65894220D01*
X63929819Y-65894220D02*
X63929819Y-65989458D01*
X63025057Y-65179934D02*
X62977438Y-65132315D01*
X62977438Y-65132315D02*
X62929819Y-65037077D01*
X62929819Y-65037077D02*
X62929819Y-64798982D01*
X62929819Y-64798982D02*
X62977438Y-64703744D01*
X62977438Y-64703744D02*
X63025057Y-64656125D01*
X63025057Y-64656125D02*
X63120295Y-64608506D01*
X63120295Y-64608506D02*
X63215533Y-64608506D01*
X63215533Y-64608506D02*
X63358390Y-64656125D01*
X63358390Y-64656125D02*
X63929819Y-65227553D01*
X63929819Y-65227553D02*
X63929819Y-64608506D01*
X43274819Y-54206506D02*
X43989104Y-54206506D01*
X43989104Y-54206506D02*
X44131961Y-54254125D01*
X44131961Y-54254125D02*
X44227200Y-54349363D01*
X44227200Y-54349363D02*
X44274819Y-54492220D01*
X44274819Y-54492220D02*
X44274819Y-54587458D01*
X43274819Y-53825553D02*
X43274819Y-53206506D01*
X43274819Y-53206506D02*
X43655771Y-53539839D01*
X43655771Y-53539839D02*
X43655771Y-53396982D01*
X43655771Y-53396982D02*
X43703390Y-53301744D01*
X43703390Y-53301744D02*
X43751009Y-53254125D01*
X43751009Y-53254125D02*
X43846247Y-53206506D01*
X43846247Y-53206506D02*
X44084342Y-53206506D01*
X44084342Y-53206506D02*
X44179580Y-53254125D01*
X44179580Y-53254125D02*
X44227200Y-53301744D01*
X44227200Y-53301744D02*
X44274819Y-53396982D01*
X44274819Y-53396982D02*
X44274819Y-53682696D01*
X44274819Y-53682696D02*
X44227200Y-53777934D01*
X44227200Y-53777934D02*
X44179580Y-53825553D01*
X66439819Y-63976666D02*
X65963628Y-64309999D01*
X66439819Y-64548094D02*
X65439819Y-64548094D01*
X65439819Y-64548094D02*
X65439819Y-64167142D01*
X65439819Y-64167142D02*
X65487438Y-64071904D01*
X65487438Y-64071904D02*
X65535057Y-64024285D01*
X65535057Y-64024285D02*
X65630295Y-63976666D01*
X65630295Y-63976666D02*
X65773152Y-63976666D01*
X65773152Y-63976666D02*
X65868390Y-64024285D01*
X65868390Y-64024285D02*
X65916009Y-64071904D01*
X65916009Y-64071904D02*
X65963628Y-64167142D01*
X65963628Y-64167142D02*
X65963628Y-64548094D01*
X66439819Y-63024285D02*
X66439819Y-63595713D01*
X66439819Y-63309999D02*
X65439819Y-63309999D01*
X65439819Y-63309999D02*
X65582676Y-63405237D01*
X65582676Y-63405237D02*
X65677914Y-63500475D01*
X65677914Y-63500475D02*
X65725533Y-63595713D01*
D14*
%TO.C,R3*%
X47245000Y-68350000D02*
X49245000Y-68350000D01*
X49245000Y-70490000D02*
X47245000Y-70490000D01*
%TO.C,D1*%
X63185000Y-59090000D02*
X63185000Y-56890000D01*
X65135000Y-59090000D02*
X65135000Y-56890000D01*
%TO.C,J1*%
X53315000Y-46955000D02*
X60935000Y-46955000D01*
X53315000Y-49495000D02*
X53315000Y-46955000D01*
X53315000Y-54575000D02*
X53315000Y-53305000D01*
X54331000Y-49495000D02*
X54331000Y-52035000D01*
X54839000Y-49495000D02*
X54839000Y-52035000D01*
X56871000Y-49495000D02*
X56871000Y-52035000D01*
X57379000Y-49495000D02*
X57379000Y-52035000D01*
X59411000Y-49495000D02*
X59411000Y-52035000D01*
X59919000Y-49495000D02*
X59919000Y-52035000D01*
X60935000Y-46955000D02*
X60935000Y-49495000D01*
X60935000Y-49495000D02*
X53315000Y-49495000D01*
%TO.C,Q1*%
X45920000Y-56680000D02*
X50561000Y-56680000D01*
X45920000Y-59949000D02*
X47430000Y-59949000D01*
X45920000Y-63650000D02*
X47430000Y-63650000D01*
X45920000Y-66920000D02*
X45920000Y-56680000D01*
X45920000Y-66920000D02*
X50561000Y-66920000D01*
X47430000Y-66920000D02*
X47430000Y-56680000D01*
X50561000Y-66920000D02*
X50561000Y-56680000D01*
%TO.C,U2*%
X57070000Y-56095000D02*
X53620000Y-56095000D01*
X57070000Y-56095000D02*
X59020000Y-56095000D01*
X57070000Y-64965000D02*
X55120000Y-64965000D01*
X57070000Y-64965000D02*
X59020000Y-64965000D01*
X54070000Y-55630000D02*
G75*
G02*
X53670000Y-55630000I-200000J0D01*
G01*
X53670000Y-55630000D02*
G75*
G02*
X54070000Y-55630000I200000J0D01*
G01*
%TO.C,D2*%
X66345000Y-59090000D02*
X66345000Y-56890000D01*
X68295000Y-59090000D02*
X68295000Y-56890000D01*
%TO.C,R2*%
X66240000Y-64810000D02*
X66240000Y-62810000D01*
X68380000Y-62810000D02*
X68380000Y-64810000D01*
%TO.C,J2*%
X52045000Y-71565000D02*
X62205000Y-71565000D01*
X52045000Y-74105000D02*
X52045000Y-71565000D01*
X53061000Y-71565000D02*
X53061000Y-69025000D01*
X53569000Y-71565000D02*
X53569000Y-69025000D01*
X55601000Y-71565000D02*
X55601000Y-69025000D01*
X56109000Y-71565000D02*
X56109000Y-69025000D01*
X58141000Y-71565000D02*
X58141000Y-69025000D01*
X58649000Y-71565000D02*
X58649000Y-69025000D01*
X60681000Y-71565000D02*
X60681000Y-69025000D01*
X61189000Y-71565000D02*
X61189000Y-69025000D01*
X62205000Y-66485000D02*
X62205000Y-67755000D01*
X62205000Y-71565000D02*
X62205000Y-74105000D01*
X62205000Y-74105000D02*
X52045000Y-74105000D01*
%TO.C,J3*%
X45090000Y-46955000D02*
X50170000Y-46955000D01*
X45090000Y-49495000D02*
X45090000Y-46955000D01*
X45090000Y-54575000D02*
X45090000Y-53305000D01*
X46106000Y-49495000D02*
X46106000Y-52035000D01*
X46614000Y-49495000D02*
X46614000Y-52035000D01*
X48646000Y-49495000D02*
X48646000Y-52035000D01*
X49154000Y-49495000D02*
X49154000Y-52035000D01*
X50170000Y-46955000D02*
X50170000Y-49495000D01*
X50170000Y-49495000D02*
X45090000Y-49495000D01*
%TO.C,R1*%
X63065000Y-64810000D02*
X63065000Y-62810000D01*
X65205000Y-62810000D02*
X65205000Y-64810000D01*
%TD*%
M02*
