%TF.GenerationSoftware,KiCad,Pcbnew,8.0.1*%
%TF.CreationDate,2024-06-17T11:29:09-04:00*%
%TF.ProjectId,Bluetooth Mosfet,426c7565-746f-46f7-9468-204d6f736665,1*%
%TF.SameCoordinates,Original*%
%TF.FileFunction,Copper,L1,Top*%
%TF.FilePolarity,Positive*%
%FSLAX46Y46*%
G04 Gerber Fmt 4.6, Leading zero omitted, Abs format (unit mm)*
G04 Created by KiCad (PCBNEW 8.0.1) date 2024-06-17 11:29:09*
%MOMM*%
%LPD*%
G01*
G04 APERTURE LIST*
%ADD10C,0.100000*%
%ADD11C,0.150000*%
%ADD12C,0.300000*%
%ADD13C,0.400000*%
%ADD14C,0.240000*%
%TA.AperFunction,NonConductor*%
%ADD15C,0.240000*%
%TD*%
%TA.AperFunction,SMDPad,CuDef*%
%ADD16R,1.400000X1.700000*%
%TD*%
%TA.AperFunction,SMDPad,CuDef*%
%ADD17R,1.700000X1.400000*%
%TD*%
%TA.AperFunction,SMDPad,CuDef*%
%ADD18R,1.700000X2.500000*%
%TD*%
%TA.AperFunction,ComponentPad*%
%ADD19R,2.000000X1.905000*%
%TD*%
%TA.AperFunction,ComponentPad*%
%ADD20O,2.000000X1.905000*%
%TD*%
%TA.AperFunction,SMDPad,CuDef*%
%ADD21R,2.000000X0.600000*%
%TD*%
%TA.AperFunction,Conductor*%
%ADD22C,0.500000*%
%TD*%
G04 APERTURE END LIST*
D10*
D11*
X12080000Y-103320000D02*
X120080000Y-103320000D01*
X120080000Y-135320000D01*
X12080000Y-135320000D01*
X12080000Y-103320000D01*
D10*
D11*
X10000000Y-10000000D02*
X122080000Y-10000000D01*
X122080000Y-137320000D01*
X10000000Y-137320000D01*
X10000000Y-10000000D01*
D10*
D11*
X12000000Y-12000000D02*
X120080000Y-12000000D01*
X120080000Y-135320000D01*
X12000000Y-135320000D01*
X12000000Y-12000000D01*
D10*
D11*
X60000000Y-12000000D02*
X60000000Y-10000000D01*
D10*
D11*
X110000000Y-12000000D02*
X110000000Y-10000000D01*
D10*
D11*
X36089160Y-11593604D02*
X35346303Y-11593604D01*
X35717731Y-11593604D02*
X35717731Y-10293604D01*
X35717731Y-10293604D02*
X35593922Y-10479319D01*
X35593922Y-10479319D02*
X35470112Y-10603128D01*
X35470112Y-10603128D02*
X35346303Y-10665033D01*
D10*
D11*
X85346303Y-10417414D02*
X85408207Y-10355509D01*
X85408207Y-10355509D02*
X85532017Y-10293604D01*
X85532017Y-10293604D02*
X85841541Y-10293604D01*
X85841541Y-10293604D02*
X85965350Y-10355509D01*
X85965350Y-10355509D02*
X86027255Y-10417414D01*
X86027255Y-10417414D02*
X86089160Y-10541223D01*
X86089160Y-10541223D02*
X86089160Y-10665033D01*
X86089160Y-10665033D02*
X86027255Y-10850747D01*
X86027255Y-10850747D02*
X85284398Y-11593604D01*
X85284398Y-11593604D02*
X86089160Y-11593604D01*
D10*
D11*
X60000000Y-135320000D02*
X60000000Y-137320000D01*
D10*
D11*
X110000000Y-135320000D02*
X110000000Y-137320000D01*
D10*
D11*
X36089160Y-136913604D02*
X35346303Y-136913604D01*
X35717731Y-136913604D02*
X35717731Y-135613604D01*
X35717731Y-135613604D02*
X35593922Y-135799319D01*
X35593922Y-135799319D02*
X35470112Y-135923128D01*
X35470112Y-135923128D02*
X35346303Y-135985033D01*
D10*
D11*
X85346303Y-135737414D02*
X85408207Y-135675509D01*
X85408207Y-135675509D02*
X85532017Y-135613604D01*
X85532017Y-135613604D02*
X85841541Y-135613604D01*
X85841541Y-135613604D02*
X85965350Y-135675509D01*
X85965350Y-135675509D02*
X86027255Y-135737414D01*
X86027255Y-135737414D02*
X86089160Y-135861223D01*
X86089160Y-135861223D02*
X86089160Y-135985033D01*
X86089160Y-135985033D02*
X86027255Y-136170747D01*
X86027255Y-136170747D02*
X85284398Y-136913604D01*
X85284398Y-136913604D02*
X86089160Y-136913604D01*
D10*
D11*
X10000000Y-60000000D02*
X12000000Y-60000000D01*
D10*
D11*
X10000000Y-110000000D02*
X12000000Y-110000000D01*
D10*
D11*
X10690476Y-35222176D02*
X11309523Y-35222176D01*
X10566666Y-35593604D02*
X10999999Y-34293604D01*
X10999999Y-34293604D02*
X11433333Y-35593604D01*
D10*
D11*
X11092857Y-84912652D02*
X11278571Y-84974557D01*
X11278571Y-84974557D02*
X11340476Y-85036461D01*
X11340476Y-85036461D02*
X11402380Y-85160271D01*
X11402380Y-85160271D02*
X11402380Y-85345985D01*
X11402380Y-85345985D02*
X11340476Y-85469795D01*
X11340476Y-85469795D02*
X11278571Y-85531700D01*
X11278571Y-85531700D02*
X11154761Y-85593604D01*
X11154761Y-85593604D02*
X10659523Y-85593604D01*
X10659523Y-85593604D02*
X10659523Y-84293604D01*
X10659523Y-84293604D02*
X11092857Y-84293604D01*
X11092857Y-84293604D02*
X11216666Y-84355509D01*
X11216666Y-84355509D02*
X11278571Y-84417414D01*
X11278571Y-84417414D02*
X11340476Y-84541223D01*
X11340476Y-84541223D02*
X11340476Y-84665033D01*
X11340476Y-84665033D02*
X11278571Y-84788842D01*
X11278571Y-84788842D02*
X11216666Y-84850747D01*
X11216666Y-84850747D02*
X11092857Y-84912652D01*
X11092857Y-84912652D02*
X10659523Y-84912652D01*
D10*
D11*
X11402380Y-135469795D02*
X11340476Y-135531700D01*
X11340476Y-135531700D02*
X11154761Y-135593604D01*
X11154761Y-135593604D02*
X11030952Y-135593604D01*
X11030952Y-135593604D02*
X10845238Y-135531700D01*
X10845238Y-135531700D02*
X10721428Y-135407890D01*
X10721428Y-135407890D02*
X10659523Y-135284080D01*
X10659523Y-135284080D02*
X10597619Y-135036461D01*
X10597619Y-135036461D02*
X10597619Y-134850747D01*
X10597619Y-134850747D02*
X10659523Y-134603128D01*
X10659523Y-134603128D02*
X10721428Y-134479319D01*
X10721428Y-134479319D02*
X10845238Y-134355509D01*
X10845238Y-134355509D02*
X11030952Y-134293604D01*
X11030952Y-134293604D02*
X11154761Y-134293604D01*
X11154761Y-134293604D02*
X11340476Y-134355509D01*
X11340476Y-134355509D02*
X11402380Y-134417414D01*
D10*
D11*
X122080000Y-60000000D02*
X120080000Y-60000000D01*
D10*
D11*
X122080000Y-110000000D02*
X120080000Y-110000000D01*
D10*
D11*
X120770476Y-35222176D02*
X121389523Y-35222176D01*
X120646666Y-35593604D02*
X121079999Y-34293604D01*
X121079999Y-34293604D02*
X121513333Y-35593604D01*
D10*
D11*
X121172857Y-84912652D02*
X121358571Y-84974557D01*
X121358571Y-84974557D02*
X121420476Y-85036461D01*
X121420476Y-85036461D02*
X121482380Y-85160271D01*
X121482380Y-85160271D02*
X121482380Y-85345985D01*
X121482380Y-85345985D02*
X121420476Y-85469795D01*
X121420476Y-85469795D02*
X121358571Y-85531700D01*
X121358571Y-85531700D02*
X121234761Y-85593604D01*
X121234761Y-85593604D02*
X120739523Y-85593604D01*
X120739523Y-85593604D02*
X120739523Y-84293604D01*
X120739523Y-84293604D02*
X121172857Y-84293604D01*
X121172857Y-84293604D02*
X121296666Y-84355509D01*
X121296666Y-84355509D02*
X121358571Y-84417414D01*
X121358571Y-84417414D02*
X121420476Y-84541223D01*
X121420476Y-84541223D02*
X121420476Y-84665033D01*
X121420476Y-84665033D02*
X121358571Y-84788842D01*
X121358571Y-84788842D02*
X121296666Y-84850747D01*
X121296666Y-84850747D02*
X121172857Y-84912652D01*
X121172857Y-84912652D02*
X120739523Y-84912652D01*
D10*
D11*
X121482380Y-135469795D02*
X121420476Y-135531700D01*
X121420476Y-135531700D02*
X121234761Y-135593604D01*
X121234761Y-135593604D02*
X121110952Y-135593604D01*
X121110952Y-135593604D02*
X120925238Y-135531700D01*
X120925238Y-135531700D02*
X120801428Y-135407890D01*
X120801428Y-135407890D02*
X120739523Y-135284080D01*
X120739523Y-135284080D02*
X120677619Y-135036461D01*
X120677619Y-135036461D02*
X120677619Y-134850747D01*
X120677619Y-134850747D02*
X120739523Y-134603128D01*
X120739523Y-134603128D02*
X120801428Y-134479319D01*
X120801428Y-134479319D02*
X120925238Y-134355509D01*
X120925238Y-134355509D02*
X121110952Y-134293604D01*
X121110952Y-134293604D02*
X121234761Y-134293604D01*
X121234761Y-134293604D02*
X121420476Y-134355509D01*
X121420476Y-134355509D02*
X121482380Y-134417414D01*
D10*
D11*
X35535826Y-131106128D02*
X35535826Y-129606128D01*
X35535826Y-129606128D02*
X35892969Y-129606128D01*
X35892969Y-129606128D02*
X36107255Y-129677557D01*
X36107255Y-129677557D02*
X36250112Y-129820414D01*
X36250112Y-129820414D02*
X36321541Y-129963271D01*
X36321541Y-129963271D02*
X36392969Y-130248985D01*
X36392969Y-130248985D02*
X36392969Y-130463271D01*
X36392969Y-130463271D02*
X36321541Y-130748985D01*
X36321541Y-130748985D02*
X36250112Y-130891842D01*
X36250112Y-130891842D02*
X36107255Y-131034700D01*
X36107255Y-131034700D02*
X35892969Y-131106128D01*
X35892969Y-131106128D02*
X35535826Y-131106128D01*
X37678684Y-131106128D02*
X37678684Y-130320414D01*
X37678684Y-130320414D02*
X37607255Y-130177557D01*
X37607255Y-130177557D02*
X37464398Y-130106128D01*
X37464398Y-130106128D02*
X37178684Y-130106128D01*
X37178684Y-130106128D02*
X37035826Y-130177557D01*
X37678684Y-131034700D02*
X37535826Y-131106128D01*
X37535826Y-131106128D02*
X37178684Y-131106128D01*
X37178684Y-131106128D02*
X37035826Y-131034700D01*
X37035826Y-131034700D02*
X36964398Y-130891842D01*
X36964398Y-130891842D02*
X36964398Y-130748985D01*
X36964398Y-130748985D02*
X37035826Y-130606128D01*
X37035826Y-130606128D02*
X37178684Y-130534700D01*
X37178684Y-130534700D02*
X37535826Y-130534700D01*
X37535826Y-130534700D02*
X37678684Y-130463271D01*
X38178684Y-130106128D02*
X38750112Y-130106128D01*
X38392969Y-129606128D02*
X38392969Y-130891842D01*
X38392969Y-130891842D02*
X38464398Y-131034700D01*
X38464398Y-131034700D02*
X38607255Y-131106128D01*
X38607255Y-131106128D02*
X38750112Y-131106128D01*
X39821541Y-131034700D02*
X39678684Y-131106128D01*
X39678684Y-131106128D02*
X39392970Y-131106128D01*
X39392970Y-131106128D02*
X39250112Y-131034700D01*
X39250112Y-131034700D02*
X39178684Y-130891842D01*
X39178684Y-130891842D02*
X39178684Y-130320414D01*
X39178684Y-130320414D02*
X39250112Y-130177557D01*
X39250112Y-130177557D02*
X39392970Y-130106128D01*
X39392970Y-130106128D02*
X39678684Y-130106128D01*
X39678684Y-130106128D02*
X39821541Y-130177557D01*
X39821541Y-130177557D02*
X39892970Y-130320414D01*
X39892970Y-130320414D02*
X39892970Y-130463271D01*
X39892970Y-130463271D02*
X39178684Y-130606128D01*
X40535826Y-130963271D02*
X40607255Y-131034700D01*
X40607255Y-131034700D02*
X40535826Y-131106128D01*
X40535826Y-131106128D02*
X40464398Y-131034700D01*
X40464398Y-131034700D02*
X40535826Y-130963271D01*
X40535826Y-130963271D02*
X40535826Y-131106128D01*
X40535826Y-130177557D02*
X40607255Y-130248985D01*
X40607255Y-130248985D02*
X40535826Y-130320414D01*
X40535826Y-130320414D02*
X40464398Y-130248985D01*
X40464398Y-130248985D02*
X40535826Y-130177557D01*
X40535826Y-130177557D02*
X40535826Y-130320414D01*
X42321541Y-129748985D02*
X42392969Y-129677557D01*
X42392969Y-129677557D02*
X42535827Y-129606128D01*
X42535827Y-129606128D02*
X42892969Y-129606128D01*
X42892969Y-129606128D02*
X43035827Y-129677557D01*
X43035827Y-129677557D02*
X43107255Y-129748985D01*
X43107255Y-129748985D02*
X43178684Y-129891842D01*
X43178684Y-129891842D02*
X43178684Y-130034700D01*
X43178684Y-130034700D02*
X43107255Y-130248985D01*
X43107255Y-130248985D02*
X42250112Y-131106128D01*
X42250112Y-131106128D02*
X43178684Y-131106128D01*
X44107255Y-129606128D02*
X44250112Y-129606128D01*
X44250112Y-129606128D02*
X44392969Y-129677557D01*
X44392969Y-129677557D02*
X44464398Y-129748985D01*
X44464398Y-129748985D02*
X44535826Y-129891842D01*
X44535826Y-129891842D02*
X44607255Y-130177557D01*
X44607255Y-130177557D02*
X44607255Y-130534700D01*
X44607255Y-130534700D02*
X44535826Y-130820414D01*
X44535826Y-130820414D02*
X44464398Y-130963271D01*
X44464398Y-130963271D02*
X44392969Y-131034700D01*
X44392969Y-131034700D02*
X44250112Y-131106128D01*
X44250112Y-131106128D02*
X44107255Y-131106128D01*
X44107255Y-131106128D02*
X43964398Y-131034700D01*
X43964398Y-131034700D02*
X43892969Y-130963271D01*
X43892969Y-130963271D02*
X43821540Y-130820414D01*
X43821540Y-130820414D02*
X43750112Y-130534700D01*
X43750112Y-130534700D02*
X43750112Y-130177557D01*
X43750112Y-130177557D02*
X43821540Y-129891842D01*
X43821540Y-129891842D02*
X43892969Y-129748985D01*
X43892969Y-129748985D02*
X43964398Y-129677557D01*
X43964398Y-129677557D02*
X44107255Y-129606128D01*
X45178683Y-129748985D02*
X45250111Y-129677557D01*
X45250111Y-129677557D02*
X45392969Y-129606128D01*
X45392969Y-129606128D02*
X45750111Y-129606128D01*
X45750111Y-129606128D02*
X45892969Y-129677557D01*
X45892969Y-129677557D02*
X45964397Y-129748985D01*
X45964397Y-129748985D02*
X46035826Y-129891842D01*
X46035826Y-129891842D02*
X46035826Y-130034700D01*
X46035826Y-130034700D02*
X45964397Y-130248985D01*
X45964397Y-130248985D02*
X45107254Y-131106128D01*
X45107254Y-131106128D02*
X46035826Y-131106128D01*
X47321540Y-130106128D02*
X47321540Y-131106128D01*
X46964397Y-129534700D02*
X46607254Y-130606128D01*
X46607254Y-130606128D02*
X47535825Y-130606128D01*
X48107253Y-130534700D02*
X49250111Y-130534700D01*
X50250111Y-129606128D02*
X50392968Y-129606128D01*
X50392968Y-129606128D02*
X50535825Y-129677557D01*
X50535825Y-129677557D02*
X50607254Y-129748985D01*
X50607254Y-129748985D02*
X50678682Y-129891842D01*
X50678682Y-129891842D02*
X50750111Y-130177557D01*
X50750111Y-130177557D02*
X50750111Y-130534700D01*
X50750111Y-130534700D02*
X50678682Y-130820414D01*
X50678682Y-130820414D02*
X50607254Y-130963271D01*
X50607254Y-130963271D02*
X50535825Y-131034700D01*
X50535825Y-131034700D02*
X50392968Y-131106128D01*
X50392968Y-131106128D02*
X50250111Y-131106128D01*
X50250111Y-131106128D02*
X50107254Y-131034700D01*
X50107254Y-131034700D02*
X50035825Y-130963271D01*
X50035825Y-130963271D02*
X49964396Y-130820414D01*
X49964396Y-130820414D02*
X49892968Y-130534700D01*
X49892968Y-130534700D02*
X49892968Y-130177557D01*
X49892968Y-130177557D02*
X49964396Y-129891842D01*
X49964396Y-129891842D02*
X50035825Y-129748985D01*
X50035825Y-129748985D02*
X50107254Y-129677557D01*
X50107254Y-129677557D02*
X50250111Y-129606128D01*
X52035825Y-129606128D02*
X51750110Y-129606128D01*
X51750110Y-129606128D02*
X51607253Y-129677557D01*
X51607253Y-129677557D02*
X51535825Y-129748985D01*
X51535825Y-129748985D02*
X51392967Y-129963271D01*
X51392967Y-129963271D02*
X51321539Y-130248985D01*
X51321539Y-130248985D02*
X51321539Y-130820414D01*
X51321539Y-130820414D02*
X51392967Y-130963271D01*
X51392967Y-130963271D02*
X51464396Y-131034700D01*
X51464396Y-131034700D02*
X51607253Y-131106128D01*
X51607253Y-131106128D02*
X51892967Y-131106128D01*
X51892967Y-131106128D02*
X52035825Y-131034700D01*
X52035825Y-131034700D02*
X52107253Y-130963271D01*
X52107253Y-130963271D02*
X52178682Y-130820414D01*
X52178682Y-130820414D02*
X52178682Y-130463271D01*
X52178682Y-130463271D02*
X52107253Y-130320414D01*
X52107253Y-130320414D02*
X52035825Y-130248985D01*
X52035825Y-130248985D02*
X51892967Y-130177557D01*
X51892967Y-130177557D02*
X51607253Y-130177557D01*
X51607253Y-130177557D02*
X51464396Y-130248985D01*
X51464396Y-130248985D02*
X51392967Y-130320414D01*
X51392967Y-130320414D02*
X51321539Y-130463271D01*
X52821538Y-130534700D02*
X53964396Y-130534700D01*
X55464396Y-131106128D02*
X54607253Y-131106128D01*
X55035824Y-131106128D02*
X55035824Y-129606128D01*
X55035824Y-129606128D02*
X54892967Y-129820414D01*
X54892967Y-129820414D02*
X54750110Y-129963271D01*
X54750110Y-129963271D02*
X54607253Y-130034700D01*
X55964395Y-129606128D02*
X56964395Y-129606128D01*
X56964395Y-129606128D02*
X56321538Y-131106128D01*
D10*
D11*
X12080000Y-131820000D02*
X120080000Y-131820000D01*
D10*
D11*
X13535826Y-133906128D02*
X13535826Y-132406128D01*
X14392969Y-133906128D02*
X13750112Y-133048985D01*
X14392969Y-132406128D02*
X13535826Y-133263271D01*
X15035826Y-133906128D02*
X15035826Y-132906128D01*
X15035826Y-132406128D02*
X14964398Y-132477557D01*
X14964398Y-132477557D02*
X15035826Y-132548985D01*
X15035826Y-132548985D02*
X15107255Y-132477557D01*
X15107255Y-132477557D02*
X15035826Y-132406128D01*
X15035826Y-132406128D02*
X15035826Y-132548985D01*
X16607255Y-133763271D02*
X16535827Y-133834700D01*
X16535827Y-133834700D02*
X16321541Y-133906128D01*
X16321541Y-133906128D02*
X16178684Y-133906128D01*
X16178684Y-133906128D02*
X15964398Y-133834700D01*
X15964398Y-133834700D02*
X15821541Y-133691842D01*
X15821541Y-133691842D02*
X15750112Y-133548985D01*
X15750112Y-133548985D02*
X15678684Y-133263271D01*
X15678684Y-133263271D02*
X15678684Y-133048985D01*
X15678684Y-133048985D02*
X15750112Y-132763271D01*
X15750112Y-132763271D02*
X15821541Y-132620414D01*
X15821541Y-132620414D02*
X15964398Y-132477557D01*
X15964398Y-132477557D02*
X16178684Y-132406128D01*
X16178684Y-132406128D02*
X16321541Y-132406128D01*
X16321541Y-132406128D02*
X16535827Y-132477557D01*
X16535827Y-132477557D02*
X16607255Y-132548985D01*
X17892970Y-133906128D02*
X17892970Y-133120414D01*
X17892970Y-133120414D02*
X17821541Y-132977557D01*
X17821541Y-132977557D02*
X17678684Y-132906128D01*
X17678684Y-132906128D02*
X17392970Y-132906128D01*
X17392970Y-132906128D02*
X17250112Y-132977557D01*
X17892970Y-133834700D02*
X17750112Y-133906128D01*
X17750112Y-133906128D02*
X17392970Y-133906128D01*
X17392970Y-133906128D02*
X17250112Y-133834700D01*
X17250112Y-133834700D02*
X17178684Y-133691842D01*
X17178684Y-133691842D02*
X17178684Y-133548985D01*
X17178684Y-133548985D02*
X17250112Y-133406128D01*
X17250112Y-133406128D02*
X17392970Y-133334700D01*
X17392970Y-133334700D02*
X17750112Y-133334700D01*
X17750112Y-133334700D02*
X17892970Y-133263271D01*
X19250113Y-133906128D02*
X19250113Y-132406128D01*
X19250113Y-133834700D02*
X19107255Y-133906128D01*
X19107255Y-133906128D02*
X18821541Y-133906128D01*
X18821541Y-133906128D02*
X18678684Y-133834700D01*
X18678684Y-133834700D02*
X18607255Y-133763271D01*
X18607255Y-133763271D02*
X18535827Y-133620414D01*
X18535827Y-133620414D02*
X18535827Y-133191842D01*
X18535827Y-133191842D02*
X18607255Y-133048985D01*
X18607255Y-133048985D02*
X18678684Y-132977557D01*
X18678684Y-132977557D02*
X18821541Y-132906128D01*
X18821541Y-132906128D02*
X19107255Y-132906128D01*
X19107255Y-132906128D02*
X19250113Y-132977557D01*
X21107255Y-133120414D02*
X21607255Y-133120414D01*
X21821541Y-133906128D02*
X21107255Y-133906128D01*
X21107255Y-133906128D02*
X21107255Y-132406128D01*
X21107255Y-132406128D02*
X21821541Y-132406128D01*
X22464398Y-133763271D02*
X22535827Y-133834700D01*
X22535827Y-133834700D02*
X22464398Y-133906128D01*
X22464398Y-133906128D02*
X22392970Y-133834700D01*
X22392970Y-133834700D02*
X22464398Y-133763271D01*
X22464398Y-133763271D02*
X22464398Y-133906128D01*
X23178684Y-133906128D02*
X23178684Y-132406128D01*
X23178684Y-132406128D02*
X23535827Y-132406128D01*
X23535827Y-132406128D02*
X23750113Y-132477557D01*
X23750113Y-132477557D02*
X23892970Y-132620414D01*
X23892970Y-132620414D02*
X23964399Y-132763271D01*
X23964399Y-132763271D02*
X24035827Y-133048985D01*
X24035827Y-133048985D02*
X24035827Y-133263271D01*
X24035827Y-133263271D02*
X23964399Y-133548985D01*
X23964399Y-133548985D02*
X23892970Y-133691842D01*
X23892970Y-133691842D02*
X23750113Y-133834700D01*
X23750113Y-133834700D02*
X23535827Y-133906128D01*
X23535827Y-133906128D02*
X23178684Y-133906128D01*
X24678684Y-133763271D02*
X24750113Y-133834700D01*
X24750113Y-133834700D02*
X24678684Y-133906128D01*
X24678684Y-133906128D02*
X24607256Y-133834700D01*
X24607256Y-133834700D02*
X24678684Y-133763271D01*
X24678684Y-133763271D02*
X24678684Y-133906128D01*
X25321542Y-133477557D02*
X26035828Y-133477557D01*
X25178685Y-133906128D02*
X25678685Y-132406128D01*
X25678685Y-132406128D02*
X26178685Y-133906128D01*
X26678684Y-133763271D02*
X26750113Y-133834700D01*
X26750113Y-133834700D02*
X26678684Y-133906128D01*
X26678684Y-133906128D02*
X26607256Y-133834700D01*
X26607256Y-133834700D02*
X26678684Y-133763271D01*
X26678684Y-133763271D02*
X26678684Y-133906128D01*
X28750113Y-133048985D02*
X28607256Y-132977557D01*
X28607256Y-132977557D02*
X28535827Y-132906128D01*
X28535827Y-132906128D02*
X28464399Y-132763271D01*
X28464399Y-132763271D02*
X28464399Y-132691842D01*
X28464399Y-132691842D02*
X28535827Y-132548985D01*
X28535827Y-132548985D02*
X28607256Y-132477557D01*
X28607256Y-132477557D02*
X28750113Y-132406128D01*
X28750113Y-132406128D02*
X29035827Y-132406128D01*
X29035827Y-132406128D02*
X29178685Y-132477557D01*
X29178685Y-132477557D02*
X29250113Y-132548985D01*
X29250113Y-132548985D02*
X29321542Y-132691842D01*
X29321542Y-132691842D02*
X29321542Y-132763271D01*
X29321542Y-132763271D02*
X29250113Y-132906128D01*
X29250113Y-132906128D02*
X29178685Y-132977557D01*
X29178685Y-132977557D02*
X29035827Y-133048985D01*
X29035827Y-133048985D02*
X28750113Y-133048985D01*
X28750113Y-133048985D02*
X28607256Y-133120414D01*
X28607256Y-133120414D02*
X28535827Y-133191842D01*
X28535827Y-133191842D02*
X28464399Y-133334700D01*
X28464399Y-133334700D02*
X28464399Y-133620414D01*
X28464399Y-133620414D02*
X28535827Y-133763271D01*
X28535827Y-133763271D02*
X28607256Y-133834700D01*
X28607256Y-133834700D02*
X28750113Y-133906128D01*
X28750113Y-133906128D02*
X29035827Y-133906128D01*
X29035827Y-133906128D02*
X29178685Y-133834700D01*
X29178685Y-133834700D02*
X29250113Y-133763271D01*
X29250113Y-133763271D02*
X29321542Y-133620414D01*
X29321542Y-133620414D02*
X29321542Y-133334700D01*
X29321542Y-133334700D02*
X29250113Y-133191842D01*
X29250113Y-133191842D02*
X29178685Y-133120414D01*
X29178685Y-133120414D02*
X29035827Y-133048985D01*
X29964398Y-133763271D02*
X30035827Y-133834700D01*
X30035827Y-133834700D02*
X29964398Y-133906128D01*
X29964398Y-133906128D02*
X29892970Y-133834700D01*
X29892970Y-133834700D02*
X29964398Y-133763271D01*
X29964398Y-133763271D02*
X29964398Y-133906128D01*
X30964399Y-132406128D02*
X31107256Y-132406128D01*
X31107256Y-132406128D02*
X31250113Y-132477557D01*
X31250113Y-132477557D02*
X31321542Y-132548985D01*
X31321542Y-132548985D02*
X31392970Y-132691842D01*
X31392970Y-132691842D02*
X31464399Y-132977557D01*
X31464399Y-132977557D02*
X31464399Y-133334700D01*
X31464399Y-133334700D02*
X31392970Y-133620414D01*
X31392970Y-133620414D02*
X31321542Y-133763271D01*
X31321542Y-133763271D02*
X31250113Y-133834700D01*
X31250113Y-133834700D02*
X31107256Y-133906128D01*
X31107256Y-133906128D02*
X30964399Y-133906128D01*
X30964399Y-133906128D02*
X30821542Y-133834700D01*
X30821542Y-133834700D02*
X30750113Y-133763271D01*
X30750113Y-133763271D02*
X30678684Y-133620414D01*
X30678684Y-133620414D02*
X30607256Y-133334700D01*
X30607256Y-133334700D02*
X30607256Y-132977557D01*
X30607256Y-132977557D02*
X30678684Y-132691842D01*
X30678684Y-132691842D02*
X30750113Y-132548985D01*
X30750113Y-132548985D02*
X30821542Y-132477557D01*
X30821542Y-132477557D02*
X30964399Y-132406128D01*
X32107255Y-133763271D02*
X32178684Y-133834700D01*
X32178684Y-133834700D02*
X32107255Y-133906128D01*
X32107255Y-133906128D02*
X32035827Y-133834700D01*
X32035827Y-133834700D02*
X32107255Y-133763271D01*
X32107255Y-133763271D02*
X32107255Y-133906128D01*
X33607256Y-133906128D02*
X32750113Y-133906128D01*
X33178684Y-133906128D02*
X33178684Y-132406128D01*
X33178684Y-132406128D02*
X33035827Y-132620414D01*
X33035827Y-132620414D02*
X32892970Y-132763271D01*
X32892970Y-132763271D02*
X32750113Y-132834700D01*
D10*
D11*
X12080000Y-128820000D02*
X120080000Y-128820000D01*
D10*
D12*
X99491653Y-131098328D02*
X98991653Y-130384042D01*
X98634510Y-131098328D02*
X98634510Y-129598328D01*
X98634510Y-129598328D02*
X99205939Y-129598328D01*
X99205939Y-129598328D02*
X99348796Y-129669757D01*
X99348796Y-129669757D02*
X99420225Y-129741185D01*
X99420225Y-129741185D02*
X99491653Y-129884042D01*
X99491653Y-129884042D02*
X99491653Y-130098328D01*
X99491653Y-130098328D02*
X99420225Y-130241185D01*
X99420225Y-130241185D02*
X99348796Y-130312614D01*
X99348796Y-130312614D02*
X99205939Y-130384042D01*
X99205939Y-130384042D02*
X98634510Y-130384042D01*
X100705939Y-131026900D02*
X100563082Y-131098328D01*
X100563082Y-131098328D02*
X100277368Y-131098328D01*
X100277368Y-131098328D02*
X100134510Y-131026900D01*
X100134510Y-131026900D02*
X100063082Y-130884042D01*
X100063082Y-130884042D02*
X100063082Y-130312614D01*
X100063082Y-130312614D02*
X100134510Y-130169757D01*
X100134510Y-130169757D02*
X100277368Y-130098328D01*
X100277368Y-130098328D02*
X100563082Y-130098328D01*
X100563082Y-130098328D02*
X100705939Y-130169757D01*
X100705939Y-130169757D02*
X100777368Y-130312614D01*
X100777368Y-130312614D02*
X100777368Y-130455471D01*
X100777368Y-130455471D02*
X100063082Y-130598328D01*
X101277367Y-130098328D02*
X101634510Y-131098328D01*
X101634510Y-131098328D02*
X101991653Y-130098328D01*
X102563081Y-130955471D02*
X102634510Y-131026900D01*
X102634510Y-131026900D02*
X102563081Y-131098328D01*
X102563081Y-131098328D02*
X102491653Y-131026900D01*
X102491653Y-131026900D02*
X102563081Y-130955471D01*
X102563081Y-130955471D02*
X102563081Y-131098328D01*
X102563081Y-130169757D02*
X102634510Y-130241185D01*
X102634510Y-130241185D02*
X102563081Y-130312614D01*
X102563081Y-130312614D02*
X102491653Y-130241185D01*
X102491653Y-130241185D02*
X102563081Y-130169757D01*
X102563081Y-130169757D02*
X102563081Y-130312614D01*
X105205939Y-131098328D02*
X104348796Y-131098328D01*
X104777367Y-131098328D02*
X104777367Y-129598328D01*
X104777367Y-129598328D02*
X104634510Y-129812614D01*
X104634510Y-129812614D02*
X104491653Y-129955471D01*
X104491653Y-129955471D02*
X104348796Y-130026900D01*
D10*
D11*
X13464398Y-131034700D02*
X13678684Y-131106128D01*
X13678684Y-131106128D02*
X14035826Y-131106128D01*
X14035826Y-131106128D02*
X14178684Y-131034700D01*
X14178684Y-131034700D02*
X14250112Y-130963271D01*
X14250112Y-130963271D02*
X14321541Y-130820414D01*
X14321541Y-130820414D02*
X14321541Y-130677557D01*
X14321541Y-130677557D02*
X14250112Y-130534700D01*
X14250112Y-130534700D02*
X14178684Y-130463271D01*
X14178684Y-130463271D02*
X14035826Y-130391842D01*
X14035826Y-130391842D02*
X13750112Y-130320414D01*
X13750112Y-130320414D02*
X13607255Y-130248985D01*
X13607255Y-130248985D02*
X13535826Y-130177557D01*
X13535826Y-130177557D02*
X13464398Y-130034700D01*
X13464398Y-130034700D02*
X13464398Y-129891842D01*
X13464398Y-129891842D02*
X13535826Y-129748985D01*
X13535826Y-129748985D02*
X13607255Y-129677557D01*
X13607255Y-129677557D02*
X13750112Y-129606128D01*
X13750112Y-129606128D02*
X14107255Y-129606128D01*
X14107255Y-129606128D02*
X14321541Y-129677557D01*
X14964397Y-131106128D02*
X14964397Y-130106128D01*
X14964397Y-129606128D02*
X14892969Y-129677557D01*
X14892969Y-129677557D02*
X14964397Y-129748985D01*
X14964397Y-129748985D02*
X15035826Y-129677557D01*
X15035826Y-129677557D02*
X14964397Y-129606128D01*
X14964397Y-129606128D02*
X14964397Y-129748985D01*
X15535826Y-130106128D02*
X16321541Y-130106128D01*
X16321541Y-130106128D02*
X15535826Y-131106128D01*
X15535826Y-131106128D02*
X16321541Y-131106128D01*
X17464398Y-131034700D02*
X17321541Y-131106128D01*
X17321541Y-131106128D02*
X17035827Y-131106128D01*
X17035827Y-131106128D02*
X16892969Y-131034700D01*
X16892969Y-131034700D02*
X16821541Y-130891842D01*
X16821541Y-130891842D02*
X16821541Y-130320414D01*
X16821541Y-130320414D02*
X16892969Y-130177557D01*
X16892969Y-130177557D02*
X17035827Y-130106128D01*
X17035827Y-130106128D02*
X17321541Y-130106128D01*
X17321541Y-130106128D02*
X17464398Y-130177557D01*
X17464398Y-130177557D02*
X17535827Y-130320414D01*
X17535827Y-130320414D02*
X17535827Y-130463271D01*
X17535827Y-130463271D02*
X16821541Y-130606128D01*
X18178683Y-130963271D02*
X18250112Y-131034700D01*
X18250112Y-131034700D02*
X18178683Y-131106128D01*
X18178683Y-131106128D02*
X18107255Y-131034700D01*
X18107255Y-131034700D02*
X18178683Y-130963271D01*
X18178683Y-130963271D02*
X18178683Y-131106128D01*
X18178683Y-130177557D02*
X18250112Y-130248985D01*
X18250112Y-130248985D02*
X18178683Y-130320414D01*
X18178683Y-130320414D02*
X18107255Y-130248985D01*
X18107255Y-130248985D02*
X18178683Y-130177557D01*
X18178683Y-130177557D02*
X18178683Y-130320414D01*
X20035826Y-129606128D02*
X20035826Y-130820414D01*
X20035826Y-130820414D02*
X20107255Y-130963271D01*
X20107255Y-130963271D02*
X20178684Y-131034700D01*
X20178684Y-131034700D02*
X20321541Y-131106128D01*
X20321541Y-131106128D02*
X20607255Y-131106128D01*
X20607255Y-131106128D02*
X20750112Y-131034700D01*
X20750112Y-131034700D02*
X20821541Y-130963271D01*
X20821541Y-130963271D02*
X20892969Y-130820414D01*
X20892969Y-130820414D02*
X20892969Y-129606128D01*
X21535827Y-131034700D02*
X21678684Y-131106128D01*
X21678684Y-131106128D02*
X21964398Y-131106128D01*
X21964398Y-131106128D02*
X22107255Y-131034700D01*
X22107255Y-131034700D02*
X22178684Y-130891842D01*
X22178684Y-130891842D02*
X22178684Y-130820414D01*
X22178684Y-130820414D02*
X22107255Y-130677557D01*
X22107255Y-130677557D02*
X21964398Y-130606128D01*
X21964398Y-130606128D02*
X21750113Y-130606128D01*
X21750113Y-130606128D02*
X21607255Y-130534700D01*
X21607255Y-130534700D02*
X21535827Y-130391842D01*
X21535827Y-130391842D02*
X21535827Y-130320414D01*
X21535827Y-130320414D02*
X21607255Y-130177557D01*
X21607255Y-130177557D02*
X21750113Y-130106128D01*
X21750113Y-130106128D02*
X21964398Y-130106128D01*
X21964398Y-130106128D02*
X22107255Y-130177557D01*
X23392970Y-131034700D02*
X23250113Y-131106128D01*
X23250113Y-131106128D02*
X22964399Y-131106128D01*
X22964399Y-131106128D02*
X22821541Y-131034700D01*
X22821541Y-131034700D02*
X22750113Y-130891842D01*
X22750113Y-130891842D02*
X22750113Y-130320414D01*
X22750113Y-130320414D02*
X22821541Y-130177557D01*
X22821541Y-130177557D02*
X22964399Y-130106128D01*
X22964399Y-130106128D02*
X23250113Y-130106128D01*
X23250113Y-130106128D02*
X23392970Y-130177557D01*
X23392970Y-130177557D02*
X23464399Y-130320414D01*
X23464399Y-130320414D02*
X23464399Y-130463271D01*
X23464399Y-130463271D02*
X22750113Y-130606128D01*
X24107255Y-131106128D02*
X24107255Y-130106128D01*
X24107255Y-130391842D02*
X24178684Y-130248985D01*
X24178684Y-130248985D02*
X24250113Y-130177557D01*
X24250113Y-130177557D02*
X24392970Y-130106128D01*
X24392970Y-130106128D02*
X24535827Y-130106128D01*
D10*
D11*
X98535826Y-133906128D02*
X98535826Y-132406128D01*
X99892970Y-133906128D02*
X99892970Y-132406128D01*
X99892970Y-133834700D02*
X99750112Y-133906128D01*
X99750112Y-133906128D02*
X99464398Y-133906128D01*
X99464398Y-133906128D02*
X99321541Y-133834700D01*
X99321541Y-133834700D02*
X99250112Y-133763271D01*
X99250112Y-133763271D02*
X99178684Y-133620414D01*
X99178684Y-133620414D02*
X99178684Y-133191842D01*
X99178684Y-133191842D02*
X99250112Y-133048985D01*
X99250112Y-133048985D02*
X99321541Y-132977557D01*
X99321541Y-132977557D02*
X99464398Y-132906128D01*
X99464398Y-132906128D02*
X99750112Y-132906128D01*
X99750112Y-132906128D02*
X99892970Y-132977557D01*
X100607255Y-133763271D02*
X100678684Y-133834700D01*
X100678684Y-133834700D02*
X100607255Y-133906128D01*
X100607255Y-133906128D02*
X100535827Y-133834700D01*
X100535827Y-133834700D02*
X100607255Y-133763271D01*
X100607255Y-133763271D02*
X100607255Y-133906128D01*
X100607255Y-132977557D02*
X100678684Y-133048985D01*
X100678684Y-133048985D02*
X100607255Y-133120414D01*
X100607255Y-133120414D02*
X100535827Y-133048985D01*
X100535827Y-133048985D02*
X100607255Y-132977557D01*
X100607255Y-132977557D02*
X100607255Y-133120414D01*
X103250113Y-133906128D02*
X102392970Y-133906128D01*
X102821541Y-133906128D02*
X102821541Y-132406128D01*
X102821541Y-132406128D02*
X102678684Y-132620414D01*
X102678684Y-132620414D02*
X102535827Y-132763271D01*
X102535827Y-132763271D02*
X102392970Y-132834700D01*
X104964398Y-132334700D02*
X103678684Y-134263271D01*
X106250113Y-133906128D02*
X105392970Y-133906128D01*
X105821541Y-133906128D02*
X105821541Y-132406128D01*
X105821541Y-132406128D02*
X105678684Y-132620414D01*
X105678684Y-132620414D02*
X105535827Y-132763271D01*
X105535827Y-132763271D02*
X105392970Y-132834700D01*
D10*
D11*
X12080000Y-124820000D02*
X120080000Y-124820000D01*
D10*
D13*
X13771728Y-125524438D02*
X14914585Y-125524438D01*
X14093157Y-127524438D02*
X14343157Y-125524438D01*
X15331252Y-127524438D02*
X15497919Y-126191104D01*
X15581252Y-125524438D02*
X15474109Y-125619676D01*
X15474109Y-125619676D02*
X15557443Y-125714914D01*
X15557443Y-125714914D02*
X15664586Y-125619676D01*
X15664586Y-125619676D02*
X15581252Y-125524438D01*
X15581252Y-125524438D02*
X15557443Y-125714914D01*
X16164586Y-126191104D02*
X16926490Y-126191104D01*
X16533633Y-125524438D02*
X16319348Y-127238723D01*
X16319348Y-127238723D02*
X16390776Y-127429200D01*
X16390776Y-127429200D02*
X16569348Y-127524438D01*
X16569348Y-127524438D02*
X16759824Y-127524438D01*
X17712205Y-127524438D02*
X17533633Y-127429200D01*
X17533633Y-127429200D02*
X17462205Y-127238723D01*
X17462205Y-127238723D02*
X17676490Y-125524438D01*
X19247919Y-127429200D02*
X19045538Y-127524438D01*
X19045538Y-127524438D02*
X18664585Y-127524438D01*
X18664585Y-127524438D02*
X18486014Y-127429200D01*
X18486014Y-127429200D02*
X18414585Y-127238723D01*
X18414585Y-127238723D02*
X18509824Y-126476819D01*
X18509824Y-126476819D02*
X18628871Y-126286342D01*
X18628871Y-126286342D02*
X18831252Y-126191104D01*
X18831252Y-126191104D02*
X19212204Y-126191104D01*
X19212204Y-126191104D02*
X19390776Y-126286342D01*
X19390776Y-126286342D02*
X19462204Y-126476819D01*
X19462204Y-126476819D02*
X19438395Y-126667295D01*
X19438395Y-126667295D02*
X18462204Y-126857771D01*
X20212205Y-127333961D02*
X20295538Y-127429200D01*
X20295538Y-127429200D02*
X20188395Y-127524438D01*
X20188395Y-127524438D02*
X20105062Y-127429200D01*
X20105062Y-127429200D02*
X20212205Y-127333961D01*
X20212205Y-127333961D02*
X20188395Y-127524438D01*
X20343157Y-126286342D02*
X20426490Y-126381580D01*
X20426490Y-126381580D02*
X20319348Y-126476819D01*
X20319348Y-126476819D02*
X20236014Y-126381580D01*
X20236014Y-126381580D02*
X20343157Y-126286342D01*
X20343157Y-126286342D02*
X20319348Y-126476819D01*
X23462205Y-126476819D02*
X23736015Y-126572057D01*
X23736015Y-126572057D02*
X23819348Y-126667295D01*
X23819348Y-126667295D02*
X23890777Y-126857771D01*
X23890777Y-126857771D02*
X23855062Y-127143485D01*
X23855062Y-127143485D02*
X23736015Y-127333961D01*
X23736015Y-127333961D02*
X23628872Y-127429200D01*
X23628872Y-127429200D02*
X23426491Y-127524438D01*
X23426491Y-127524438D02*
X22664586Y-127524438D01*
X22664586Y-127524438D02*
X22914586Y-125524438D01*
X22914586Y-125524438D02*
X23581253Y-125524438D01*
X23581253Y-125524438D02*
X23759824Y-125619676D01*
X23759824Y-125619676D02*
X23843158Y-125714914D01*
X23843158Y-125714914D02*
X23914586Y-125905390D01*
X23914586Y-125905390D02*
X23890777Y-126095866D01*
X23890777Y-126095866D02*
X23771729Y-126286342D01*
X23771729Y-126286342D02*
X23664586Y-126381580D01*
X23664586Y-126381580D02*
X23462205Y-126476819D01*
X23462205Y-126476819D02*
X22795539Y-126476819D01*
X24950301Y-127524438D02*
X24771729Y-127429200D01*
X24771729Y-127429200D02*
X24700301Y-127238723D01*
X24700301Y-127238723D02*
X24914586Y-125524438D01*
X26736015Y-126191104D02*
X26569348Y-127524438D01*
X25878872Y-126191104D02*
X25747920Y-127238723D01*
X25747920Y-127238723D02*
X25819348Y-127429200D01*
X25819348Y-127429200D02*
X25997920Y-127524438D01*
X25997920Y-127524438D02*
X26283634Y-127524438D01*
X26283634Y-127524438D02*
X26486015Y-127429200D01*
X26486015Y-127429200D02*
X26593158Y-127333961D01*
X28295539Y-127429200D02*
X28093158Y-127524438D01*
X28093158Y-127524438D02*
X27712205Y-127524438D01*
X27712205Y-127524438D02*
X27533634Y-127429200D01*
X27533634Y-127429200D02*
X27462205Y-127238723D01*
X27462205Y-127238723D02*
X27557444Y-126476819D01*
X27557444Y-126476819D02*
X27676491Y-126286342D01*
X27676491Y-126286342D02*
X27878872Y-126191104D01*
X27878872Y-126191104D02*
X28259824Y-126191104D01*
X28259824Y-126191104D02*
X28438396Y-126286342D01*
X28438396Y-126286342D02*
X28509824Y-126476819D01*
X28509824Y-126476819D02*
X28486015Y-126667295D01*
X28486015Y-126667295D02*
X27509824Y-126857771D01*
X29116968Y-126191104D02*
X29878872Y-126191104D01*
X29486015Y-125524438D02*
X29271730Y-127238723D01*
X29271730Y-127238723D02*
X29343158Y-127429200D01*
X29343158Y-127429200D02*
X29521730Y-127524438D01*
X29521730Y-127524438D02*
X29712206Y-127524438D01*
X30664587Y-127524438D02*
X30486015Y-127429200D01*
X30486015Y-127429200D02*
X30402682Y-127333961D01*
X30402682Y-127333961D02*
X30331253Y-127143485D01*
X30331253Y-127143485D02*
X30402682Y-126572057D01*
X30402682Y-126572057D02*
X30521729Y-126381580D01*
X30521729Y-126381580D02*
X30628872Y-126286342D01*
X30628872Y-126286342D02*
X30831253Y-126191104D01*
X30831253Y-126191104D02*
X31116967Y-126191104D01*
X31116967Y-126191104D02*
X31295539Y-126286342D01*
X31295539Y-126286342D02*
X31378872Y-126381580D01*
X31378872Y-126381580D02*
X31450301Y-126572057D01*
X31450301Y-126572057D02*
X31378872Y-127143485D01*
X31378872Y-127143485D02*
X31259825Y-127333961D01*
X31259825Y-127333961D02*
X31152682Y-127429200D01*
X31152682Y-127429200D02*
X30950301Y-127524438D01*
X30950301Y-127524438D02*
X30664587Y-127524438D01*
X32474111Y-127524438D02*
X32295539Y-127429200D01*
X32295539Y-127429200D02*
X32212206Y-127333961D01*
X32212206Y-127333961D02*
X32140777Y-127143485D01*
X32140777Y-127143485D02*
X32212206Y-126572057D01*
X32212206Y-126572057D02*
X32331253Y-126381580D01*
X32331253Y-126381580D02*
X32438396Y-126286342D01*
X32438396Y-126286342D02*
X32640777Y-126191104D01*
X32640777Y-126191104D02*
X32926491Y-126191104D01*
X32926491Y-126191104D02*
X33105063Y-126286342D01*
X33105063Y-126286342D02*
X33188396Y-126381580D01*
X33188396Y-126381580D02*
X33259825Y-126572057D01*
X33259825Y-126572057D02*
X33188396Y-127143485D01*
X33188396Y-127143485D02*
X33069349Y-127333961D01*
X33069349Y-127333961D02*
X32962206Y-127429200D01*
X32962206Y-127429200D02*
X32759825Y-127524438D01*
X32759825Y-127524438D02*
X32474111Y-127524438D01*
X33878873Y-126191104D02*
X34640777Y-126191104D01*
X34247920Y-125524438D02*
X34033635Y-127238723D01*
X34033635Y-127238723D02*
X34105063Y-127429200D01*
X34105063Y-127429200D02*
X34283635Y-127524438D01*
X34283635Y-127524438D02*
X34474111Y-127524438D01*
X35140777Y-127524438D02*
X35390777Y-125524438D01*
X35997920Y-127524438D02*
X36128872Y-126476819D01*
X36128872Y-126476819D02*
X36057444Y-126286342D01*
X36057444Y-126286342D02*
X35878872Y-126191104D01*
X35878872Y-126191104D02*
X35593158Y-126191104D01*
X35593158Y-126191104D02*
X35390777Y-126286342D01*
X35390777Y-126286342D02*
X35283634Y-126381580D01*
X37045539Y-126762533D02*
X38569349Y-126762533D01*
X40593158Y-127333961D02*
X40486015Y-127429200D01*
X40486015Y-127429200D02*
X40188396Y-127524438D01*
X40188396Y-127524438D02*
X39997920Y-127524438D01*
X39997920Y-127524438D02*
X39724110Y-127429200D01*
X39724110Y-127429200D02*
X39557444Y-127238723D01*
X39557444Y-127238723D02*
X39486015Y-127048247D01*
X39486015Y-127048247D02*
X39438396Y-126667295D01*
X39438396Y-126667295D02*
X39474110Y-126381580D01*
X39474110Y-126381580D02*
X39616967Y-126000628D01*
X39616967Y-126000628D02*
X39736015Y-125810152D01*
X39736015Y-125810152D02*
X39950301Y-125619676D01*
X39950301Y-125619676D02*
X40247920Y-125524438D01*
X40247920Y-125524438D02*
X40438396Y-125524438D01*
X40438396Y-125524438D02*
X40712206Y-125619676D01*
X40712206Y-125619676D02*
X40795539Y-125714914D01*
X41712206Y-127524438D02*
X41533634Y-127429200D01*
X41533634Y-127429200D02*
X41450301Y-127333961D01*
X41450301Y-127333961D02*
X41378872Y-127143485D01*
X41378872Y-127143485D02*
X41450301Y-126572057D01*
X41450301Y-126572057D02*
X41569348Y-126381580D01*
X41569348Y-126381580D02*
X41676491Y-126286342D01*
X41676491Y-126286342D02*
X41878872Y-126191104D01*
X41878872Y-126191104D02*
X42164586Y-126191104D01*
X42164586Y-126191104D02*
X42343158Y-126286342D01*
X42343158Y-126286342D02*
X42426491Y-126381580D01*
X42426491Y-126381580D02*
X42497920Y-126572057D01*
X42497920Y-126572057D02*
X42426491Y-127143485D01*
X42426491Y-127143485D02*
X42307444Y-127333961D01*
X42307444Y-127333961D02*
X42200301Y-127429200D01*
X42200301Y-127429200D02*
X41997920Y-127524438D01*
X41997920Y-127524438D02*
X41712206Y-127524438D01*
X43402682Y-126191104D02*
X43236015Y-127524438D01*
X43378872Y-126381580D02*
X43486015Y-126286342D01*
X43486015Y-126286342D02*
X43688396Y-126191104D01*
X43688396Y-126191104D02*
X43974110Y-126191104D01*
X43974110Y-126191104D02*
X44152682Y-126286342D01*
X44152682Y-126286342D02*
X44224110Y-126476819D01*
X44224110Y-126476819D02*
X44093158Y-127524438D01*
X44926492Y-126191104D02*
X45688396Y-126191104D01*
X45295539Y-125524438D02*
X45081254Y-127238723D01*
X45081254Y-127238723D02*
X45152682Y-127429200D01*
X45152682Y-127429200D02*
X45331254Y-127524438D01*
X45331254Y-127524438D02*
X45521730Y-127524438D01*
X46188396Y-127524438D02*
X46355063Y-126191104D01*
X46307444Y-126572057D02*
X46426491Y-126381580D01*
X46426491Y-126381580D02*
X46533634Y-126286342D01*
X46533634Y-126286342D02*
X46736015Y-126191104D01*
X46736015Y-126191104D02*
X46926491Y-126191104D01*
X47712206Y-127524438D02*
X47533634Y-127429200D01*
X47533634Y-127429200D02*
X47450301Y-127333961D01*
X47450301Y-127333961D02*
X47378872Y-127143485D01*
X47378872Y-127143485D02*
X47450301Y-126572057D01*
X47450301Y-126572057D02*
X47569348Y-126381580D01*
X47569348Y-126381580D02*
X47676491Y-126286342D01*
X47676491Y-126286342D02*
X47878872Y-126191104D01*
X47878872Y-126191104D02*
X48164586Y-126191104D01*
X48164586Y-126191104D02*
X48343158Y-126286342D01*
X48343158Y-126286342D02*
X48426491Y-126381580D01*
X48426491Y-126381580D02*
X48497920Y-126572057D01*
X48497920Y-126572057D02*
X48426491Y-127143485D01*
X48426491Y-127143485D02*
X48307444Y-127333961D01*
X48307444Y-127333961D02*
X48200301Y-127429200D01*
X48200301Y-127429200D02*
X47997920Y-127524438D01*
X47997920Y-127524438D02*
X47712206Y-127524438D01*
X49521730Y-127524438D02*
X49343158Y-127429200D01*
X49343158Y-127429200D02*
X49271730Y-127238723D01*
X49271730Y-127238723D02*
X49486015Y-125524438D01*
X50569349Y-127524438D02*
X50390777Y-127429200D01*
X50390777Y-127429200D02*
X50319349Y-127238723D01*
X50319349Y-127238723D02*
X50533634Y-125524438D01*
X52105063Y-127429200D02*
X51902682Y-127524438D01*
X51902682Y-127524438D02*
X51521729Y-127524438D01*
X51521729Y-127524438D02*
X51343158Y-127429200D01*
X51343158Y-127429200D02*
X51271729Y-127238723D01*
X51271729Y-127238723D02*
X51366968Y-126476819D01*
X51366968Y-126476819D02*
X51486015Y-126286342D01*
X51486015Y-126286342D02*
X51688396Y-126191104D01*
X51688396Y-126191104D02*
X52069348Y-126191104D01*
X52069348Y-126191104D02*
X52247920Y-126286342D01*
X52247920Y-126286342D02*
X52319348Y-126476819D01*
X52319348Y-126476819D02*
X52295539Y-126667295D01*
X52295539Y-126667295D02*
X51319348Y-126857771D01*
X53902682Y-127524438D02*
X54152682Y-125524438D01*
X53914587Y-127429200D02*
X53712206Y-127524438D01*
X53712206Y-127524438D02*
X53331254Y-127524438D01*
X53331254Y-127524438D02*
X53152682Y-127429200D01*
X53152682Y-127429200D02*
X53069349Y-127333961D01*
X53069349Y-127333961D02*
X52997920Y-127143485D01*
X52997920Y-127143485D02*
X53069349Y-126572057D01*
X53069349Y-126572057D02*
X53188396Y-126381580D01*
X53188396Y-126381580D02*
X53295539Y-126286342D01*
X53295539Y-126286342D02*
X53497920Y-126191104D01*
X53497920Y-126191104D02*
X53878873Y-126191104D01*
X53878873Y-126191104D02*
X54057444Y-126286342D01*
X56378873Y-127524438D02*
X56628873Y-125524438D01*
X56628873Y-125524438D02*
X57116968Y-126953009D01*
X57116968Y-126953009D02*
X57962207Y-125524438D01*
X57962207Y-125524438D02*
X57712207Y-127524438D01*
X58950302Y-127524438D02*
X58771730Y-127429200D01*
X58771730Y-127429200D02*
X58688397Y-127333961D01*
X58688397Y-127333961D02*
X58616968Y-127143485D01*
X58616968Y-127143485D02*
X58688397Y-126572057D01*
X58688397Y-126572057D02*
X58807444Y-126381580D01*
X58807444Y-126381580D02*
X58914587Y-126286342D01*
X58914587Y-126286342D02*
X59116968Y-126191104D01*
X59116968Y-126191104D02*
X59402682Y-126191104D01*
X59402682Y-126191104D02*
X59581254Y-126286342D01*
X59581254Y-126286342D02*
X59664587Y-126381580D01*
X59664587Y-126381580D02*
X59736016Y-126572057D01*
X59736016Y-126572057D02*
X59664587Y-127143485D01*
X59664587Y-127143485D02*
X59545540Y-127333961D01*
X59545540Y-127333961D02*
X59438397Y-127429200D01*
X59438397Y-127429200D02*
X59236016Y-127524438D01*
X59236016Y-127524438D02*
X58950302Y-127524438D01*
X60390778Y-127429200D02*
X60569349Y-127524438D01*
X60569349Y-127524438D02*
X60950302Y-127524438D01*
X60950302Y-127524438D02*
X61152683Y-127429200D01*
X61152683Y-127429200D02*
X61271730Y-127238723D01*
X61271730Y-127238723D02*
X61283635Y-127143485D01*
X61283635Y-127143485D02*
X61212206Y-126953009D01*
X61212206Y-126953009D02*
X61033635Y-126857771D01*
X61033635Y-126857771D02*
X60747921Y-126857771D01*
X60747921Y-126857771D02*
X60569349Y-126762533D01*
X60569349Y-126762533D02*
X60497921Y-126572057D01*
X60497921Y-126572057D02*
X60509826Y-126476819D01*
X60509826Y-126476819D02*
X60628873Y-126286342D01*
X60628873Y-126286342D02*
X60831254Y-126191104D01*
X60831254Y-126191104D02*
X61116968Y-126191104D01*
X61116968Y-126191104D02*
X61295540Y-126286342D01*
X61974112Y-126191104D02*
X62736016Y-126191104D01*
X62093159Y-127524438D02*
X62307445Y-125810152D01*
X62307445Y-125810152D02*
X62426493Y-125619676D01*
X62426493Y-125619676D02*
X62628874Y-125524438D01*
X62628874Y-125524438D02*
X62819350Y-125524438D01*
X64009826Y-127429200D02*
X63807445Y-127524438D01*
X63807445Y-127524438D02*
X63426492Y-127524438D01*
X63426492Y-127524438D02*
X63247921Y-127429200D01*
X63247921Y-127429200D02*
X63176492Y-127238723D01*
X63176492Y-127238723D02*
X63271731Y-126476819D01*
X63271731Y-126476819D02*
X63390778Y-126286342D01*
X63390778Y-126286342D02*
X63593159Y-126191104D01*
X63593159Y-126191104D02*
X63974111Y-126191104D01*
X63974111Y-126191104D02*
X64152683Y-126286342D01*
X64152683Y-126286342D02*
X64224111Y-126476819D01*
X64224111Y-126476819D02*
X64200302Y-126667295D01*
X64200302Y-126667295D02*
X63224111Y-126857771D01*
X64831255Y-126191104D02*
X65593159Y-126191104D01*
X65200302Y-125524438D02*
X64986017Y-127238723D01*
X64986017Y-127238723D02*
X65057445Y-127429200D01*
X65057445Y-127429200D02*
X65236017Y-127524438D01*
X65236017Y-127524438D02*
X65426493Y-127524438D01*
X68414588Y-126476819D02*
X68688398Y-126572057D01*
X68688398Y-126572057D02*
X68771731Y-126667295D01*
X68771731Y-126667295D02*
X68843160Y-126857771D01*
X68843160Y-126857771D02*
X68807445Y-127143485D01*
X68807445Y-127143485D02*
X68688398Y-127333961D01*
X68688398Y-127333961D02*
X68581255Y-127429200D01*
X68581255Y-127429200D02*
X68378874Y-127524438D01*
X68378874Y-127524438D02*
X67616969Y-127524438D01*
X67616969Y-127524438D02*
X67866969Y-125524438D01*
X67866969Y-125524438D02*
X68533636Y-125524438D01*
X68533636Y-125524438D02*
X68712207Y-125619676D01*
X68712207Y-125619676D02*
X68795541Y-125714914D01*
X68795541Y-125714914D02*
X68866969Y-125905390D01*
X68866969Y-125905390D02*
X68843160Y-126095866D01*
X68843160Y-126095866D02*
X68724112Y-126286342D01*
X68724112Y-126286342D02*
X68616969Y-126381580D01*
X68616969Y-126381580D02*
X68414588Y-126476819D01*
X68414588Y-126476819D02*
X67747922Y-126476819D01*
X69902684Y-127524438D02*
X69724112Y-127429200D01*
X69724112Y-127429200D02*
X69640779Y-127333961D01*
X69640779Y-127333961D02*
X69569350Y-127143485D01*
X69569350Y-127143485D02*
X69640779Y-126572057D01*
X69640779Y-126572057D02*
X69759826Y-126381580D01*
X69759826Y-126381580D02*
X69866969Y-126286342D01*
X69866969Y-126286342D02*
X70069350Y-126191104D01*
X70069350Y-126191104D02*
X70355064Y-126191104D01*
X70355064Y-126191104D02*
X70533636Y-126286342D01*
X70533636Y-126286342D02*
X70616969Y-126381580D01*
X70616969Y-126381580D02*
X70688398Y-126572057D01*
X70688398Y-126572057D02*
X70616969Y-127143485D01*
X70616969Y-127143485D02*
X70497922Y-127333961D01*
X70497922Y-127333961D02*
X70390779Y-127429200D01*
X70390779Y-127429200D02*
X70188398Y-127524438D01*
X70188398Y-127524438D02*
X69902684Y-127524438D01*
X72283636Y-127524438D02*
X72414588Y-126476819D01*
X72414588Y-126476819D02*
X72343160Y-126286342D01*
X72343160Y-126286342D02*
X72164588Y-126191104D01*
X72164588Y-126191104D02*
X71783636Y-126191104D01*
X71783636Y-126191104D02*
X71581255Y-126286342D01*
X72295541Y-127429200D02*
X72093160Y-127524438D01*
X72093160Y-127524438D02*
X71616969Y-127524438D01*
X71616969Y-127524438D02*
X71438398Y-127429200D01*
X71438398Y-127429200D02*
X71366969Y-127238723D01*
X71366969Y-127238723D02*
X71390779Y-127048247D01*
X71390779Y-127048247D02*
X71509827Y-126857771D01*
X71509827Y-126857771D02*
X71712208Y-126762533D01*
X71712208Y-126762533D02*
X72188398Y-126762533D01*
X72188398Y-126762533D02*
X72390779Y-126667295D01*
X73236017Y-127524438D02*
X73402684Y-126191104D01*
X73355065Y-126572057D02*
X73474112Y-126381580D01*
X73474112Y-126381580D02*
X73581255Y-126286342D01*
X73581255Y-126286342D02*
X73783636Y-126191104D01*
X73783636Y-126191104D02*
X73974112Y-126191104D01*
X75331255Y-127524438D02*
X75581255Y-125524438D01*
X75343160Y-127429200D02*
X75140779Y-127524438D01*
X75140779Y-127524438D02*
X74759827Y-127524438D01*
X74759827Y-127524438D02*
X74581255Y-127429200D01*
X74581255Y-127429200D02*
X74497922Y-127333961D01*
X74497922Y-127333961D02*
X74426493Y-127143485D01*
X74426493Y-127143485D02*
X74497922Y-126572057D01*
X74497922Y-126572057D02*
X74616969Y-126381580D01*
X74616969Y-126381580D02*
X74724112Y-126286342D01*
X74724112Y-126286342D02*
X74926493Y-126191104D01*
X74926493Y-126191104D02*
X75307446Y-126191104D01*
X75307446Y-126191104D02*
X75486017Y-126286342D01*
D10*
D11*
X14035826Y-122920414D02*
X13535826Y-122920414D01*
X13535826Y-123706128D02*
X13535826Y-122206128D01*
X13535826Y-122206128D02*
X14250112Y-122206128D01*
X14821540Y-123706128D02*
X14821540Y-122706128D01*
X14821540Y-122206128D02*
X14750112Y-122277557D01*
X14750112Y-122277557D02*
X14821540Y-122348985D01*
X14821540Y-122348985D02*
X14892969Y-122277557D01*
X14892969Y-122277557D02*
X14821540Y-122206128D01*
X14821540Y-122206128D02*
X14821540Y-122348985D01*
X15750112Y-123706128D02*
X15607255Y-123634700D01*
X15607255Y-123634700D02*
X15535826Y-123491842D01*
X15535826Y-123491842D02*
X15535826Y-122206128D01*
X16892969Y-123634700D02*
X16750112Y-123706128D01*
X16750112Y-123706128D02*
X16464398Y-123706128D01*
X16464398Y-123706128D02*
X16321540Y-123634700D01*
X16321540Y-123634700D02*
X16250112Y-123491842D01*
X16250112Y-123491842D02*
X16250112Y-122920414D01*
X16250112Y-122920414D02*
X16321540Y-122777557D01*
X16321540Y-122777557D02*
X16464398Y-122706128D01*
X16464398Y-122706128D02*
X16750112Y-122706128D01*
X16750112Y-122706128D02*
X16892969Y-122777557D01*
X16892969Y-122777557D02*
X16964398Y-122920414D01*
X16964398Y-122920414D02*
X16964398Y-123063271D01*
X16964398Y-123063271D02*
X16250112Y-123206128D01*
X17607254Y-123563271D02*
X17678683Y-123634700D01*
X17678683Y-123634700D02*
X17607254Y-123706128D01*
X17607254Y-123706128D02*
X17535826Y-123634700D01*
X17535826Y-123634700D02*
X17607254Y-123563271D01*
X17607254Y-123563271D02*
X17607254Y-123706128D01*
X17607254Y-122777557D02*
X17678683Y-122848985D01*
X17678683Y-122848985D02*
X17607254Y-122920414D01*
X17607254Y-122920414D02*
X17535826Y-122848985D01*
X17535826Y-122848985D02*
X17607254Y-122777557D01*
X17607254Y-122777557D02*
X17607254Y-122920414D01*
X19964397Y-122920414D02*
X20178683Y-122991842D01*
X20178683Y-122991842D02*
X20250112Y-123063271D01*
X20250112Y-123063271D02*
X20321540Y-123206128D01*
X20321540Y-123206128D02*
X20321540Y-123420414D01*
X20321540Y-123420414D02*
X20250112Y-123563271D01*
X20250112Y-123563271D02*
X20178683Y-123634700D01*
X20178683Y-123634700D02*
X20035826Y-123706128D01*
X20035826Y-123706128D02*
X19464397Y-123706128D01*
X19464397Y-123706128D02*
X19464397Y-122206128D01*
X19464397Y-122206128D02*
X19964397Y-122206128D01*
X19964397Y-122206128D02*
X20107255Y-122277557D01*
X20107255Y-122277557D02*
X20178683Y-122348985D01*
X20178683Y-122348985D02*
X20250112Y-122491842D01*
X20250112Y-122491842D02*
X20250112Y-122634700D01*
X20250112Y-122634700D02*
X20178683Y-122777557D01*
X20178683Y-122777557D02*
X20107255Y-122848985D01*
X20107255Y-122848985D02*
X19964397Y-122920414D01*
X19964397Y-122920414D02*
X19464397Y-122920414D01*
X21178683Y-123706128D02*
X21035826Y-123634700D01*
X21035826Y-123634700D02*
X20964397Y-123491842D01*
X20964397Y-123491842D02*
X20964397Y-122206128D01*
X22392969Y-122706128D02*
X22392969Y-123706128D01*
X21750111Y-122706128D02*
X21750111Y-123491842D01*
X21750111Y-123491842D02*
X21821540Y-123634700D01*
X21821540Y-123634700D02*
X21964397Y-123706128D01*
X21964397Y-123706128D02*
X22178683Y-123706128D01*
X22178683Y-123706128D02*
X22321540Y-123634700D01*
X22321540Y-123634700D02*
X22392969Y-123563271D01*
X23678683Y-123634700D02*
X23535826Y-123706128D01*
X23535826Y-123706128D02*
X23250112Y-123706128D01*
X23250112Y-123706128D02*
X23107254Y-123634700D01*
X23107254Y-123634700D02*
X23035826Y-123491842D01*
X23035826Y-123491842D02*
X23035826Y-122920414D01*
X23035826Y-122920414D02*
X23107254Y-122777557D01*
X23107254Y-122777557D02*
X23250112Y-122706128D01*
X23250112Y-122706128D02*
X23535826Y-122706128D01*
X23535826Y-122706128D02*
X23678683Y-122777557D01*
X23678683Y-122777557D02*
X23750112Y-122920414D01*
X23750112Y-122920414D02*
X23750112Y-123063271D01*
X23750112Y-123063271D02*
X23035826Y-123206128D01*
X24178683Y-122706128D02*
X24750111Y-122706128D01*
X24392968Y-122206128D02*
X24392968Y-123491842D01*
X24392968Y-123491842D02*
X24464397Y-123634700D01*
X24464397Y-123634700D02*
X24607254Y-123706128D01*
X24607254Y-123706128D02*
X24750111Y-123706128D01*
X25464397Y-123706128D02*
X25321540Y-123634700D01*
X25321540Y-123634700D02*
X25250111Y-123563271D01*
X25250111Y-123563271D02*
X25178683Y-123420414D01*
X25178683Y-123420414D02*
X25178683Y-122991842D01*
X25178683Y-122991842D02*
X25250111Y-122848985D01*
X25250111Y-122848985D02*
X25321540Y-122777557D01*
X25321540Y-122777557D02*
X25464397Y-122706128D01*
X25464397Y-122706128D02*
X25678683Y-122706128D01*
X25678683Y-122706128D02*
X25821540Y-122777557D01*
X25821540Y-122777557D02*
X25892969Y-122848985D01*
X25892969Y-122848985D02*
X25964397Y-122991842D01*
X25964397Y-122991842D02*
X25964397Y-123420414D01*
X25964397Y-123420414D02*
X25892969Y-123563271D01*
X25892969Y-123563271D02*
X25821540Y-123634700D01*
X25821540Y-123634700D02*
X25678683Y-123706128D01*
X25678683Y-123706128D02*
X25464397Y-123706128D01*
X26821540Y-123706128D02*
X26678683Y-123634700D01*
X26678683Y-123634700D02*
X26607254Y-123563271D01*
X26607254Y-123563271D02*
X26535826Y-123420414D01*
X26535826Y-123420414D02*
X26535826Y-122991842D01*
X26535826Y-122991842D02*
X26607254Y-122848985D01*
X26607254Y-122848985D02*
X26678683Y-122777557D01*
X26678683Y-122777557D02*
X26821540Y-122706128D01*
X26821540Y-122706128D02*
X27035826Y-122706128D01*
X27035826Y-122706128D02*
X27178683Y-122777557D01*
X27178683Y-122777557D02*
X27250112Y-122848985D01*
X27250112Y-122848985D02*
X27321540Y-122991842D01*
X27321540Y-122991842D02*
X27321540Y-123420414D01*
X27321540Y-123420414D02*
X27250112Y-123563271D01*
X27250112Y-123563271D02*
X27178683Y-123634700D01*
X27178683Y-123634700D02*
X27035826Y-123706128D01*
X27035826Y-123706128D02*
X26821540Y-123706128D01*
X27750112Y-122706128D02*
X28321540Y-122706128D01*
X27964397Y-122206128D02*
X27964397Y-123491842D01*
X27964397Y-123491842D02*
X28035826Y-123634700D01*
X28035826Y-123634700D02*
X28178683Y-123706128D01*
X28178683Y-123706128D02*
X28321540Y-123706128D01*
X28821540Y-123706128D02*
X28821540Y-122206128D01*
X29464398Y-123706128D02*
X29464398Y-122920414D01*
X29464398Y-122920414D02*
X29392969Y-122777557D01*
X29392969Y-122777557D02*
X29250112Y-122706128D01*
X29250112Y-122706128D02*
X29035826Y-122706128D01*
X29035826Y-122706128D02*
X28892969Y-122777557D01*
X28892969Y-122777557D02*
X28821540Y-122848985D01*
X31321540Y-123706128D02*
X31321540Y-122206128D01*
X31321540Y-122206128D02*
X31821540Y-123277557D01*
X31821540Y-123277557D02*
X32321540Y-122206128D01*
X32321540Y-122206128D02*
X32321540Y-123706128D01*
X33250112Y-123706128D02*
X33107255Y-123634700D01*
X33107255Y-123634700D02*
X33035826Y-123563271D01*
X33035826Y-123563271D02*
X32964398Y-123420414D01*
X32964398Y-123420414D02*
X32964398Y-122991842D01*
X32964398Y-122991842D02*
X33035826Y-122848985D01*
X33035826Y-122848985D02*
X33107255Y-122777557D01*
X33107255Y-122777557D02*
X33250112Y-122706128D01*
X33250112Y-122706128D02*
X33464398Y-122706128D01*
X33464398Y-122706128D02*
X33607255Y-122777557D01*
X33607255Y-122777557D02*
X33678684Y-122848985D01*
X33678684Y-122848985D02*
X33750112Y-122991842D01*
X33750112Y-122991842D02*
X33750112Y-123420414D01*
X33750112Y-123420414D02*
X33678684Y-123563271D01*
X33678684Y-123563271D02*
X33607255Y-123634700D01*
X33607255Y-123634700D02*
X33464398Y-123706128D01*
X33464398Y-123706128D02*
X33250112Y-123706128D01*
X34321541Y-123634700D02*
X34464398Y-123706128D01*
X34464398Y-123706128D02*
X34750112Y-123706128D01*
X34750112Y-123706128D02*
X34892969Y-123634700D01*
X34892969Y-123634700D02*
X34964398Y-123491842D01*
X34964398Y-123491842D02*
X34964398Y-123420414D01*
X34964398Y-123420414D02*
X34892969Y-123277557D01*
X34892969Y-123277557D02*
X34750112Y-123206128D01*
X34750112Y-123206128D02*
X34535827Y-123206128D01*
X34535827Y-123206128D02*
X34392969Y-123134700D01*
X34392969Y-123134700D02*
X34321541Y-122991842D01*
X34321541Y-122991842D02*
X34321541Y-122920414D01*
X34321541Y-122920414D02*
X34392969Y-122777557D01*
X34392969Y-122777557D02*
X34535827Y-122706128D01*
X34535827Y-122706128D02*
X34750112Y-122706128D01*
X34750112Y-122706128D02*
X34892969Y-122777557D01*
X35392970Y-122706128D02*
X35964398Y-122706128D01*
X35607255Y-123706128D02*
X35607255Y-122420414D01*
X35607255Y-122420414D02*
X35678684Y-122277557D01*
X35678684Y-122277557D02*
X35821541Y-122206128D01*
X35821541Y-122206128D02*
X35964398Y-122206128D01*
X37035827Y-123634700D02*
X36892970Y-123706128D01*
X36892970Y-123706128D02*
X36607256Y-123706128D01*
X36607256Y-123706128D02*
X36464398Y-123634700D01*
X36464398Y-123634700D02*
X36392970Y-123491842D01*
X36392970Y-123491842D02*
X36392970Y-122920414D01*
X36392970Y-122920414D02*
X36464398Y-122777557D01*
X36464398Y-122777557D02*
X36607256Y-122706128D01*
X36607256Y-122706128D02*
X36892970Y-122706128D01*
X36892970Y-122706128D02*
X37035827Y-122777557D01*
X37035827Y-122777557D02*
X37107256Y-122920414D01*
X37107256Y-122920414D02*
X37107256Y-123063271D01*
X37107256Y-123063271D02*
X36392970Y-123206128D01*
X37535827Y-122706128D02*
X38107255Y-122706128D01*
X37750112Y-122206128D02*
X37750112Y-123491842D01*
X37750112Y-123491842D02*
X37821541Y-123634700D01*
X37821541Y-123634700D02*
X37964398Y-123706128D01*
X37964398Y-123706128D02*
X38107255Y-123706128D01*
X38607255Y-123563271D02*
X38678684Y-123634700D01*
X38678684Y-123634700D02*
X38607255Y-123706128D01*
X38607255Y-123706128D02*
X38535827Y-123634700D01*
X38535827Y-123634700D02*
X38607255Y-123563271D01*
X38607255Y-123563271D02*
X38607255Y-123706128D01*
X39321541Y-123706128D02*
X39321541Y-122206128D01*
X39464399Y-123134700D02*
X39892970Y-123706128D01*
X39892970Y-122706128D02*
X39321541Y-123277557D01*
X40535827Y-123706128D02*
X40535827Y-122706128D01*
X40535827Y-122206128D02*
X40464399Y-122277557D01*
X40464399Y-122277557D02*
X40535827Y-122348985D01*
X40535827Y-122348985D02*
X40607256Y-122277557D01*
X40607256Y-122277557D02*
X40535827Y-122206128D01*
X40535827Y-122206128D02*
X40535827Y-122348985D01*
X41892971Y-123634700D02*
X41750113Y-123706128D01*
X41750113Y-123706128D02*
X41464399Y-123706128D01*
X41464399Y-123706128D02*
X41321542Y-123634700D01*
X41321542Y-123634700D02*
X41250113Y-123563271D01*
X41250113Y-123563271D02*
X41178685Y-123420414D01*
X41178685Y-123420414D02*
X41178685Y-122991842D01*
X41178685Y-122991842D02*
X41250113Y-122848985D01*
X41250113Y-122848985D02*
X41321542Y-122777557D01*
X41321542Y-122777557D02*
X41464399Y-122706128D01*
X41464399Y-122706128D02*
X41750113Y-122706128D01*
X41750113Y-122706128D02*
X41892971Y-122777557D01*
X43178685Y-123706128D02*
X43178685Y-122920414D01*
X43178685Y-122920414D02*
X43107256Y-122777557D01*
X43107256Y-122777557D02*
X42964399Y-122706128D01*
X42964399Y-122706128D02*
X42678685Y-122706128D01*
X42678685Y-122706128D02*
X42535827Y-122777557D01*
X43178685Y-123634700D02*
X43035827Y-123706128D01*
X43035827Y-123706128D02*
X42678685Y-123706128D01*
X42678685Y-123706128D02*
X42535827Y-123634700D01*
X42535827Y-123634700D02*
X42464399Y-123491842D01*
X42464399Y-123491842D02*
X42464399Y-123348985D01*
X42464399Y-123348985D02*
X42535827Y-123206128D01*
X42535827Y-123206128D02*
X42678685Y-123134700D01*
X42678685Y-123134700D02*
X43035827Y-123134700D01*
X43035827Y-123134700D02*
X43178685Y-123063271D01*
X44535828Y-123706128D02*
X44535828Y-122206128D01*
X44535828Y-123634700D02*
X44392970Y-123706128D01*
X44392970Y-123706128D02*
X44107256Y-123706128D01*
X44107256Y-123706128D02*
X43964399Y-123634700D01*
X43964399Y-123634700D02*
X43892970Y-123563271D01*
X43892970Y-123563271D02*
X43821542Y-123420414D01*
X43821542Y-123420414D02*
X43821542Y-122991842D01*
X43821542Y-122991842D02*
X43892970Y-122848985D01*
X43892970Y-122848985D02*
X43964399Y-122777557D01*
X43964399Y-122777557D02*
X44107256Y-122706128D01*
X44107256Y-122706128D02*
X44392970Y-122706128D01*
X44392970Y-122706128D02*
X44535828Y-122777557D01*
X44892971Y-123848985D02*
X46035828Y-123848985D01*
X46392970Y-122706128D02*
X46392970Y-124206128D01*
X46392970Y-122777557D02*
X46535828Y-122706128D01*
X46535828Y-122706128D02*
X46821542Y-122706128D01*
X46821542Y-122706128D02*
X46964399Y-122777557D01*
X46964399Y-122777557D02*
X47035828Y-122848985D01*
X47035828Y-122848985D02*
X47107256Y-122991842D01*
X47107256Y-122991842D02*
X47107256Y-123420414D01*
X47107256Y-123420414D02*
X47035828Y-123563271D01*
X47035828Y-123563271D02*
X46964399Y-123634700D01*
X46964399Y-123634700D02*
X46821542Y-123706128D01*
X46821542Y-123706128D02*
X46535828Y-123706128D01*
X46535828Y-123706128D02*
X46392970Y-123634700D01*
X48392971Y-123634700D02*
X48250113Y-123706128D01*
X48250113Y-123706128D02*
X47964399Y-123706128D01*
X47964399Y-123706128D02*
X47821542Y-123634700D01*
X47821542Y-123634700D02*
X47750113Y-123563271D01*
X47750113Y-123563271D02*
X47678685Y-123420414D01*
X47678685Y-123420414D02*
X47678685Y-122991842D01*
X47678685Y-122991842D02*
X47750113Y-122848985D01*
X47750113Y-122848985D02*
X47821542Y-122777557D01*
X47821542Y-122777557D02*
X47964399Y-122706128D01*
X47964399Y-122706128D02*
X48250113Y-122706128D01*
X48250113Y-122706128D02*
X48392971Y-122777557D01*
X49035827Y-123706128D02*
X49035827Y-122206128D01*
X49035827Y-122777557D02*
X49178685Y-122706128D01*
X49178685Y-122706128D02*
X49464399Y-122706128D01*
X49464399Y-122706128D02*
X49607256Y-122777557D01*
X49607256Y-122777557D02*
X49678685Y-122848985D01*
X49678685Y-122848985D02*
X49750113Y-122991842D01*
X49750113Y-122991842D02*
X49750113Y-123420414D01*
X49750113Y-123420414D02*
X49678685Y-123563271D01*
X49678685Y-123563271D02*
X49607256Y-123634700D01*
X49607256Y-123634700D02*
X49464399Y-123706128D01*
X49464399Y-123706128D02*
X49178685Y-123706128D01*
X49178685Y-123706128D02*
X49035827Y-123634700D01*
D10*
D11*
X12080000Y-118820000D02*
X120080000Y-118820000D01*
D10*
D11*
X13464398Y-120934700D02*
X13678684Y-121006128D01*
X13678684Y-121006128D02*
X14035826Y-121006128D01*
X14035826Y-121006128D02*
X14178684Y-120934700D01*
X14178684Y-120934700D02*
X14250112Y-120863271D01*
X14250112Y-120863271D02*
X14321541Y-120720414D01*
X14321541Y-120720414D02*
X14321541Y-120577557D01*
X14321541Y-120577557D02*
X14250112Y-120434700D01*
X14250112Y-120434700D02*
X14178684Y-120363271D01*
X14178684Y-120363271D02*
X14035826Y-120291842D01*
X14035826Y-120291842D02*
X13750112Y-120220414D01*
X13750112Y-120220414D02*
X13607255Y-120148985D01*
X13607255Y-120148985D02*
X13535826Y-120077557D01*
X13535826Y-120077557D02*
X13464398Y-119934700D01*
X13464398Y-119934700D02*
X13464398Y-119791842D01*
X13464398Y-119791842D02*
X13535826Y-119648985D01*
X13535826Y-119648985D02*
X13607255Y-119577557D01*
X13607255Y-119577557D02*
X13750112Y-119506128D01*
X13750112Y-119506128D02*
X14107255Y-119506128D01*
X14107255Y-119506128D02*
X14321541Y-119577557D01*
X14964397Y-121006128D02*
X14964397Y-119506128D01*
X15607255Y-121006128D02*
X15607255Y-120220414D01*
X15607255Y-120220414D02*
X15535826Y-120077557D01*
X15535826Y-120077557D02*
X15392969Y-120006128D01*
X15392969Y-120006128D02*
X15178683Y-120006128D01*
X15178683Y-120006128D02*
X15035826Y-120077557D01*
X15035826Y-120077557D02*
X14964397Y-120148985D01*
X16892969Y-120934700D02*
X16750112Y-121006128D01*
X16750112Y-121006128D02*
X16464398Y-121006128D01*
X16464398Y-121006128D02*
X16321540Y-120934700D01*
X16321540Y-120934700D02*
X16250112Y-120791842D01*
X16250112Y-120791842D02*
X16250112Y-120220414D01*
X16250112Y-120220414D02*
X16321540Y-120077557D01*
X16321540Y-120077557D02*
X16464398Y-120006128D01*
X16464398Y-120006128D02*
X16750112Y-120006128D01*
X16750112Y-120006128D02*
X16892969Y-120077557D01*
X16892969Y-120077557D02*
X16964398Y-120220414D01*
X16964398Y-120220414D02*
X16964398Y-120363271D01*
X16964398Y-120363271D02*
X16250112Y-120506128D01*
X18178683Y-120934700D02*
X18035826Y-121006128D01*
X18035826Y-121006128D02*
X17750112Y-121006128D01*
X17750112Y-121006128D02*
X17607254Y-120934700D01*
X17607254Y-120934700D02*
X17535826Y-120791842D01*
X17535826Y-120791842D02*
X17535826Y-120220414D01*
X17535826Y-120220414D02*
X17607254Y-120077557D01*
X17607254Y-120077557D02*
X17750112Y-120006128D01*
X17750112Y-120006128D02*
X18035826Y-120006128D01*
X18035826Y-120006128D02*
X18178683Y-120077557D01*
X18178683Y-120077557D02*
X18250112Y-120220414D01*
X18250112Y-120220414D02*
X18250112Y-120363271D01*
X18250112Y-120363271D02*
X17535826Y-120506128D01*
X18678683Y-120006128D02*
X19250111Y-120006128D01*
X18892968Y-119506128D02*
X18892968Y-120791842D01*
X18892968Y-120791842D02*
X18964397Y-120934700D01*
X18964397Y-120934700D02*
X19107254Y-121006128D01*
X19107254Y-121006128D02*
X19250111Y-121006128D01*
X19750111Y-120863271D02*
X19821540Y-120934700D01*
X19821540Y-120934700D02*
X19750111Y-121006128D01*
X19750111Y-121006128D02*
X19678683Y-120934700D01*
X19678683Y-120934700D02*
X19750111Y-120863271D01*
X19750111Y-120863271D02*
X19750111Y-121006128D01*
X19750111Y-120077557D02*
X19821540Y-120148985D01*
X19821540Y-120148985D02*
X19750111Y-120220414D01*
X19750111Y-120220414D02*
X19678683Y-120148985D01*
X19678683Y-120148985D02*
X19750111Y-120077557D01*
X19750111Y-120077557D02*
X19750111Y-120220414D01*
D10*
D12*
X13634510Y-117998328D02*
X13634510Y-116498328D01*
X13634510Y-116498328D02*
X14491653Y-117998328D01*
X14491653Y-117998328D02*
X14491653Y-116498328D01*
X15205939Y-117998328D02*
X15205939Y-116998328D01*
X15205939Y-116498328D02*
X15134511Y-116569757D01*
X15134511Y-116569757D02*
X15205939Y-116641185D01*
X15205939Y-116641185D02*
X15277368Y-116569757D01*
X15277368Y-116569757D02*
X15205939Y-116498328D01*
X15205939Y-116498328D02*
X15205939Y-116641185D01*
X16563083Y-117926900D02*
X16420225Y-117998328D01*
X16420225Y-117998328D02*
X16134511Y-117998328D01*
X16134511Y-117998328D02*
X15991654Y-117926900D01*
X15991654Y-117926900D02*
X15920225Y-117855471D01*
X15920225Y-117855471D02*
X15848797Y-117712614D01*
X15848797Y-117712614D02*
X15848797Y-117284042D01*
X15848797Y-117284042D02*
X15920225Y-117141185D01*
X15920225Y-117141185D02*
X15991654Y-117069757D01*
X15991654Y-117069757D02*
X16134511Y-116998328D01*
X16134511Y-116998328D02*
X16420225Y-116998328D01*
X16420225Y-116998328D02*
X16563083Y-117069757D01*
X17205939Y-117998328D02*
X17205939Y-116498328D01*
X17848797Y-117998328D02*
X17848797Y-117212614D01*
X17848797Y-117212614D02*
X17777368Y-117069757D01*
X17777368Y-117069757D02*
X17634511Y-116998328D01*
X17634511Y-116998328D02*
X17420225Y-116998328D01*
X17420225Y-116998328D02*
X17277368Y-117069757D01*
X17277368Y-117069757D02*
X17205939Y-117141185D01*
X18777368Y-117998328D02*
X18634511Y-117926900D01*
X18634511Y-117926900D02*
X18563082Y-117855471D01*
X18563082Y-117855471D02*
X18491654Y-117712614D01*
X18491654Y-117712614D02*
X18491654Y-117284042D01*
X18491654Y-117284042D02*
X18563082Y-117141185D01*
X18563082Y-117141185D02*
X18634511Y-117069757D01*
X18634511Y-117069757D02*
X18777368Y-116998328D01*
X18777368Y-116998328D02*
X18991654Y-116998328D01*
X18991654Y-116998328D02*
X19134511Y-117069757D01*
X19134511Y-117069757D02*
X19205940Y-117141185D01*
X19205940Y-117141185D02*
X19277368Y-117284042D01*
X19277368Y-117284042D02*
X19277368Y-117712614D01*
X19277368Y-117712614D02*
X19205940Y-117855471D01*
X19205940Y-117855471D02*
X19134511Y-117926900D01*
X19134511Y-117926900D02*
X18991654Y-117998328D01*
X18991654Y-117998328D02*
X18777368Y-117998328D01*
X20134511Y-117998328D02*
X19991654Y-117926900D01*
X19991654Y-117926900D02*
X19920225Y-117784042D01*
X19920225Y-117784042D02*
X19920225Y-116498328D01*
X21348797Y-117998328D02*
X21348797Y-117212614D01*
X21348797Y-117212614D02*
X21277368Y-117069757D01*
X21277368Y-117069757D02*
X21134511Y-116998328D01*
X21134511Y-116998328D02*
X20848797Y-116998328D01*
X20848797Y-116998328D02*
X20705939Y-117069757D01*
X21348797Y-117926900D02*
X21205939Y-117998328D01*
X21205939Y-117998328D02*
X20848797Y-117998328D01*
X20848797Y-117998328D02*
X20705939Y-117926900D01*
X20705939Y-117926900D02*
X20634511Y-117784042D01*
X20634511Y-117784042D02*
X20634511Y-117641185D01*
X20634511Y-117641185D02*
X20705939Y-117498328D01*
X20705939Y-117498328D02*
X20848797Y-117426900D01*
X20848797Y-117426900D02*
X21205939Y-117426900D01*
X21205939Y-117426900D02*
X21348797Y-117355471D01*
X21991654Y-117926900D02*
X22134511Y-117998328D01*
X22134511Y-117998328D02*
X22420225Y-117998328D01*
X22420225Y-117998328D02*
X22563082Y-117926900D01*
X22563082Y-117926900D02*
X22634511Y-117784042D01*
X22634511Y-117784042D02*
X22634511Y-117712614D01*
X22634511Y-117712614D02*
X22563082Y-117569757D01*
X22563082Y-117569757D02*
X22420225Y-117498328D01*
X22420225Y-117498328D02*
X22205940Y-117498328D01*
X22205940Y-117498328D02*
X22063082Y-117426900D01*
X22063082Y-117426900D02*
X21991654Y-117284042D01*
X21991654Y-117284042D02*
X21991654Y-117212614D01*
X21991654Y-117212614D02*
X22063082Y-117069757D01*
X22063082Y-117069757D02*
X22205940Y-116998328D01*
X22205940Y-116998328D02*
X22420225Y-116998328D01*
X22420225Y-116998328D02*
X22563082Y-117069757D01*
X24420225Y-117998328D02*
X24420225Y-116498328D01*
X24420225Y-116498328D02*
X25277368Y-117998328D01*
X25277368Y-117998328D02*
X25277368Y-116498328D01*
X25991654Y-117998328D02*
X25991654Y-116998328D01*
X25991654Y-116498328D02*
X25920226Y-116569757D01*
X25920226Y-116569757D02*
X25991654Y-116641185D01*
X25991654Y-116641185D02*
X26063083Y-116569757D01*
X26063083Y-116569757D02*
X25991654Y-116498328D01*
X25991654Y-116498328D02*
X25991654Y-116641185D01*
X26920226Y-117998328D02*
X26777369Y-117926900D01*
X26777369Y-117926900D02*
X26705940Y-117784042D01*
X26705940Y-117784042D02*
X26705940Y-116498328D01*
X28063083Y-117926900D02*
X27920226Y-117998328D01*
X27920226Y-117998328D02*
X27634512Y-117998328D01*
X27634512Y-117998328D02*
X27491654Y-117926900D01*
X27491654Y-117926900D02*
X27420226Y-117784042D01*
X27420226Y-117784042D02*
X27420226Y-117212614D01*
X27420226Y-117212614D02*
X27491654Y-117069757D01*
X27491654Y-117069757D02*
X27634512Y-116998328D01*
X27634512Y-116998328D02*
X27920226Y-116998328D01*
X27920226Y-116998328D02*
X28063083Y-117069757D01*
X28063083Y-117069757D02*
X28134512Y-117212614D01*
X28134512Y-117212614D02*
X28134512Y-117355471D01*
X28134512Y-117355471D02*
X27420226Y-117498328D01*
X28705940Y-117926900D02*
X28848797Y-117998328D01*
X28848797Y-117998328D02*
X29134511Y-117998328D01*
X29134511Y-117998328D02*
X29277368Y-117926900D01*
X29277368Y-117926900D02*
X29348797Y-117784042D01*
X29348797Y-117784042D02*
X29348797Y-117712614D01*
X29348797Y-117712614D02*
X29277368Y-117569757D01*
X29277368Y-117569757D02*
X29134511Y-117498328D01*
X29134511Y-117498328D02*
X28920226Y-117498328D01*
X28920226Y-117498328D02*
X28777368Y-117426900D01*
X28777368Y-117426900D02*
X28705940Y-117284042D01*
X28705940Y-117284042D02*
X28705940Y-117212614D01*
X28705940Y-117212614D02*
X28777368Y-117069757D01*
X28777368Y-117069757D02*
X28920226Y-116998328D01*
X28920226Y-116998328D02*
X29134511Y-116998328D01*
X29134511Y-116998328D02*
X29277368Y-117069757D01*
D10*
D11*
X13464398Y-114577557D02*
X14178684Y-114577557D01*
X13321541Y-115006128D02*
X13821541Y-113506128D01*
X13821541Y-113506128D02*
X14321541Y-115006128D01*
X15464398Y-114934700D02*
X15321540Y-115006128D01*
X15321540Y-115006128D02*
X15035826Y-115006128D01*
X15035826Y-115006128D02*
X14892969Y-114934700D01*
X14892969Y-114934700D02*
X14821540Y-114863271D01*
X14821540Y-114863271D02*
X14750112Y-114720414D01*
X14750112Y-114720414D02*
X14750112Y-114291842D01*
X14750112Y-114291842D02*
X14821540Y-114148985D01*
X14821540Y-114148985D02*
X14892969Y-114077557D01*
X14892969Y-114077557D02*
X15035826Y-114006128D01*
X15035826Y-114006128D02*
X15321540Y-114006128D01*
X15321540Y-114006128D02*
X15464398Y-114077557D01*
X15892969Y-114006128D02*
X16464397Y-114006128D01*
X16107254Y-113506128D02*
X16107254Y-114791842D01*
X16107254Y-114791842D02*
X16178683Y-114934700D01*
X16178683Y-114934700D02*
X16321540Y-115006128D01*
X16321540Y-115006128D02*
X16464397Y-115006128D01*
X17607255Y-114006128D02*
X17607255Y-115006128D01*
X16964397Y-114006128D02*
X16964397Y-114791842D01*
X16964397Y-114791842D02*
X17035826Y-114934700D01*
X17035826Y-114934700D02*
X17178683Y-115006128D01*
X17178683Y-115006128D02*
X17392969Y-115006128D01*
X17392969Y-115006128D02*
X17535826Y-114934700D01*
X17535826Y-114934700D02*
X17607255Y-114863271D01*
X18964398Y-115006128D02*
X18964398Y-114220414D01*
X18964398Y-114220414D02*
X18892969Y-114077557D01*
X18892969Y-114077557D02*
X18750112Y-114006128D01*
X18750112Y-114006128D02*
X18464398Y-114006128D01*
X18464398Y-114006128D02*
X18321540Y-114077557D01*
X18964398Y-114934700D02*
X18821540Y-115006128D01*
X18821540Y-115006128D02*
X18464398Y-115006128D01*
X18464398Y-115006128D02*
X18321540Y-114934700D01*
X18321540Y-114934700D02*
X18250112Y-114791842D01*
X18250112Y-114791842D02*
X18250112Y-114648985D01*
X18250112Y-114648985D02*
X18321540Y-114506128D01*
X18321540Y-114506128D02*
X18464398Y-114434700D01*
X18464398Y-114434700D02*
X18821540Y-114434700D01*
X18821540Y-114434700D02*
X18964398Y-114363271D01*
X19892969Y-115006128D02*
X19750112Y-114934700D01*
X19750112Y-114934700D02*
X19678683Y-114791842D01*
X19678683Y-114791842D02*
X19678683Y-113506128D01*
X20678683Y-115006128D02*
X20535826Y-114934700D01*
X20535826Y-114934700D02*
X20464397Y-114791842D01*
X20464397Y-114791842D02*
X20464397Y-113506128D01*
X21107254Y-114006128D02*
X21464397Y-115006128D01*
X21821540Y-114006128D02*
X21464397Y-115006128D01*
X21464397Y-115006128D02*
X21321540Y-115363271D01*
X21321540Y-115363271D02*
X21250111Y-115434700D01*
X21250111Y-115434700D02*
X21107254Y-115506128D01*
X23535825Y-115006128D02*
X23535825Y-114006128D01*
X23535825Y-114291842D02*
X23607254Y-114148985D01*
X23607254Y-114148985D02*
X23678683Y-114077557D01*
X23678683Y-114077557D02*
X23821540Y-114006128D01*
X23821540Y-114006128D02*
X23964397Y-114006128D01*
X24678682Y-115006128D02*
X24535825Y-114934700D01*
X24535825Y-114934700D02*
X24464396Y-114863271D01*
X24464396Y-114863271D02*
X24392968Y-114720414D01*
X24392968Y-114720414D02*
X24392968Y-114291842D01*
X24392968Y-114291842D02*
X24464396Y-114148985D01*
X24464396Y-114148985D02*
X24535825Y-114077557D01*
X24535825Y-114077557D02*
X24678682Y-114006128D01*
X24678682Y-114006128D02*
X24892968Y-114006128D01*
X24892968Y-114006128D02*
X25035825Y-114077557D01*
X25035825Y-114077557D02*
X25107254Y-114148985D01*
X25107254Y-114148985D02*
X25178682Y-114291842D01*
X25178682Y-114291842D02*
X25178682Y-114720414D01*
X25178682Y-114720414D02*
X25107254Y-114863271D01*
X25107254Y-114863271D02*
X25035825Y-114934700D01*
X25035825Y-114934700D02*
X24892968Y-115006128D01*
X24892968Y-115006128D02*
X24678682Y-115006128D01*
X26464397Y-114006128D02*
X26464397Y-115006128D01*
X25821539Y-114006128D02*
X25821539Y-114791842D01*
X25821539Y-114791842D02*
X25892968Y-114934700D01*
X25892968Y-114934700D02*
X26035825Y-115006128D01*
X26035825Y-115006128D02*
X26250111Y-115006128D01*
X26250111Y-115006128D02*
X26392968Y-114934700D01*
X26392968Y-114934700D02*
X26464397Y-114863271D01*
X26964397Y-114006128D02*
X27535825Y-114006128D01*
X27178682Y-113506128D02*
X27178682Y-114791842D01*
X27178682Y-114791842D02*
X27250111Y-114934700D01*
X27250111Y-114934700D02*
X27392968Y-115006128D01*
X27392968Y-115006128D02*
X27535825Y-115006128D01*
X28607254Y-114934700D02*
X28464397Y-115006128D01*
X28464397Y-115006128D02*
X28178683Y-115006128D01*
X28178683Y-115006128D02*
X28035825Y-114934700D01*
X28035825Y-114934700D02*
X27964397Y-114791842D01*
X27964397Y-114791842D02*
X27964397Y-114220414D01*
X27964397Y-114220414D02*
X28035825Y-114077557D01*
X28035825Y-114077557D02*
X28178683Y-114006128D01*
X28178683Y-114006128D02*
X28464397Y-114006128D01*
X28464397Y-114006128D02*
X28607254Y-114077557D01*
X28607254Y-114077557D02*
X28678683Y-114220414D01*
X28678683Y-114220414D02*
X28678683Y-114363271D01*
X28678683Y-114363271D02*
X27964397Y-114506128D01*
X29964397Y-115006128D02*
X29964397Y-113506128D01*
X29964397Y-114934700D02*
X29821539Y-115006128D01*
X29821539Y-115006128D02*
X29535825Y-115006128D01*
X29535825Y-115006128D02*
X29392968Y-114934700D01*
X29392968Y-114934700D02*
X29321539Y-114863271D01*
X29321539Y-114863271D02*
X29250111Y-114720414D01*
X29250111Y-114720414D02*
X29250111Y-114291842D01*
X29250111Y-114291842D02*
X29321539Y-114148985D01*
X29321539Y-114148985D02*
X29392968Y-114077557D01*
X29392968Y-114077557D02*
X29535825Y-114006128D01*
X29535825Y-114006128D02*
X29821539Y-114006128D01*
X29821539Y-114006128D02*
X29964397Y-114077557D01*
X31607254Y-114006128D02*
X32178682Y-114006128D01*
X31821539Y-113506128D02*
X31821539Y-114791842D01*
X31821539Y-114791842D02*
X31892968Y-114934700D01*
X31892968Y-114934700D02*
X32035825Y-115006128D01*
X32035825Y-115006128D02*
X32178682Y-115006128D01*
X32678682Y-115006128D02*
X32678682Y-114006128D01*
X32678682Y-114291842D02*
X32750111Y-114148985D01*
X32750111Y-114148985D02*
X32821540Y-114077557D01*
X32821540Y-114077557D02*
X32964397Y-114006128D01*
X32964397Y-114006128D02*
X33107254Y-114006128D01*
X34250111Y-115006128D02*
X34250111Y-114220414D01*
X34250111Y-114220414D02*
X34178682Y-114077557D01*
X34178682Y-114077557D02*
X34035825Y-114006128D01*
X34035825Y-114006128D02*
X33750111Y-114006128D01*
X33750111Y-114006128D02*
X33607253Y-114077557D01*
X34250111Y-114934700D02*
X34107253Y-115006128D01*
X34107253Y-115006128D02*
X33750111Y-115006128D01*
X33750111Y-115006128D02*
X33607253Y-114934700D01*
X33607253Y-114934700D02*
X33535825Y-114791842D01*
X33535825Y-114791842D02*
X33535825Y-114648985D01*
X33535825Y-114648985D02*
X33607253Y-114506128D01*
X33607253Y-114506128D02*
X33750111Y-114434700D01*
X33750111Y-114434700D02*
X34107253Y-114434700D01*
X34107253Y-114434700D02*
X34250111Y-114363271D01*
X35607254Y-114934700D02*
X35464396Y-115006128D01*
X35464396Y-115006128D02*
X35178682Y-115006128D01*
X35178682Y-115006128D02*
X35035825Y-114934700D01*
X35035825Y-114934700D02*
X34964396Y-114863271D01*
X34964396Y-114863271D02*
X34892968Y-114720414D01*
X34892968Y-114720414D02*
X34892968Y-114291842D01*
X34892968Y-114291842D02*
X34964396Y-114148985D01*
X34964396Y-114148985D02*
X35035825Y-114077557D01*
X35035825Y-114077557D02*
X35178682Y-114006128D01*
X35178682Y-114006128D02*
X35464396Y-114006128D01*
X35464396Y-114006128D02*
X35607254Y-114077557D01*
X36821539Y-114934700D02*
X36678682Y-115006128D01*
X36678682Y-115006128D02*
X36392968Y-115006128D01*
X36392968Y-115006128D02*
X36250110Y-114934700D01*
X36250110Y-114934700D02*
X36178682Y-114791842D01*
X36178682Y-114791842D02*
X36178682Y-114220414D01*
X36178682Y-114220414D02*
X36250110Y-114077557D01*
X36250110Y-114077557D02*
X36392968Y-114006128D01*
X36392968Y-114006128D02*
X36678682Y-114006128D01*
X36678682Y-114006128D02*
X36821539Y-114077557D01*
X36821539Y-114077557D02*
X36892968Y-114220414D01*
X36892968Y-114220414D02*
X36892968Y-114363271D01*
X36892968Y-114363271D02*
X36178682Y-114506128D01*
X38535824Y-114006128D02*
X38892967Y-115006128D01*
X38892967Y-115006128D02*
X39250110Y-114006128D01*
X40392967Y-114934700D02*
X40250110Y-115006128D01*
X40250110Y-115006128D02*
X39964396Y-115006128D01*
X39964396Y-115006128D02*
X39821538Y-114934700D01*
X39821538Y-114934700D02*
X39750110Y-114791842D01*
X39750110Y-114791842D02*
X39750110Y-114220414D01*
X39750110Y-114220414D02*
X39821538Y-114077557D01*
X39821538Y-114077557D02*
X39964396Y-114006128D01*
X39964396Y-114006128D02*
X40250110Y-114006128D01*
X40250110Y-114006128D02*
X40392967Y-114077557D01*
X40392967Y-114077557D02*
X40464396Y-114220414D01*
X40464396Y-114220414D02*
X40464396Y-114363271D01*
X40464396Y-114363271D02*
X39750110Y-114506128D01*
X41107252Y-115006128D02*
X41107252Y-114006128D01*
X41107252Y-114291842D02*
X41178681Y-114148985D01*
X41178681Y-114148985D02*
X41250110Y-114077557D01*
X41250110Y-114077557D02*
X41392967Y-114006128D01*
X41392967Y-114006128D02*
X41535824Y-114006128D01*
X41964395Y-114934700D02*
X42107252Y-115006128D01*
X42107252Y-115006128D02*
X42392966Y-115006128D01*
X42392966Y-115006128D02*
X42535823Y-114934700D01*
X42535823Y-114934700D02*
X42607252Y-114791842D01*
X42607252Y-114791842D02*
X42607252Y-114720414D01*
X42607252Y-114720414D02*
X42535823Y-114577557D01*
X42535823Y-114577557D02*
X42392966Y-114506128D01*
X42392966Y-114506128D02*
X42178681Y-114506128D01*
X42178681Y-114506128D02*
X42035823Y-114434700D01*
X42035823Y-114434700D02*
X41964395Y-114291842D01*
X41964395Y-114291842D02*
X41964395Y-114220414D01*
X41964395Y-114220414D02*
X42035823Y-114077557D01*
X42035823Y-114077557D02*
X42178681Y-114006128D01*
X42178681Y-114006128D02*
X42392966Y-114006128D01*
X42392966Y-114006128D02*
X42535823Y-114077557D01*
X43250109Y-115006128D02*
X43250109Y-114006128D01*
X43250109Y-113506128D02*
X43178681Y-113577557D01*
X43178681Y-113577557D02*
X43250109Y-113648985D01*
X43250109Y-113648985D02*
X43321538Y-113577557D01*
X43321538Y-113577557D02*
X43250109Y-113506128D01*
X43250109Y-113506128D02*
X43250109Y-113648985D01*
X44178681Y-115006128D02*
X44035824Y-114934700D01*
X44035824Y-114934700D02*
X43964395Y-114863271D01*
X43964395Y-114863271D02*
X43892967Y-114720414D01*
X43892967Y-114720414D02*
X43892967Y-114291842D01*
X43892967Y-114291842D02*
X43964395Y-114148985D01*
X43964395Y-114148985D02*
X44035824Y-114077557D01*
X44035824Y-114077557D02*
X44178681Y-114006128D01*
X44178681Y-114006128D02*
X44392967Y-114006128D01*
X44392967Y-114006128D02*
X44535824Y-114077557D01*
X44535824Y-114077557D02*
X44607253Y-114148985D01*
X44607253Y-114148985D02*
X44678681Y-114291842D01*
X44678681Y-114291842D02*
X44678681Y-114720414D01*
X44678681Y-114720414D02*
X44607253Y-114863271D01*
X44607253Y-114863271D02*
X44535824Y-114934700D01*
X44535824Y-114934700D02*
X44392967Y-115006128D01*
X44392967Y-115006128D02*
X44178681Y-115006128D01*
X45321538Y-114006128D02*
X45321538Y-115006128D01*
X45321538Y-114148985D02*
X45392967Y-114077557D01*
X45392967Y-114077557D02*
X45535824Y-114006128D01*
X45535824Y-114006128D02*
X45750110Y-114006128D01*
X45750110Y-114006128D02*
X45892967Y-114077557D01*
X45892967Y-114077557D02*
X45964396Y-114220414D01*
X45964396Y-114220414D02*
X45964396Y-115006128D01*
X48035824Y-115006128D02*
X47892967Y-114934700D01*
X47892967Y-114934700D02*
X47821538Y-114863271D01*
X47821538Y-114863271D02*
X47750110Y-114720414D01*
X47750110Y-114720414D02*
X47750110Y-114291842D01*
X47750110Y-114291842D02*
X47821538Y-114148985D01*
X47821538Y-114148985D02*
X47892967Y-114077557D01*
X47892967Y-114077557D02*
X48035824Y-114006128D01*
X48035824Y-114006128D02*
X48250110Y-114006128D01*
X48250110Y-114006128D02*
X48392967Y-114077557D01*
X48392967Y-114077557D02*
X48464396Y-114148985D01*
X48464396Y-114148985D02*
X48535824Y-114291842D01*
X48535824Y-114291842D02*
X48535824Y-114720414D01*
X48535824Y-114720414D02*
X48464396Y-114863271D01*
X48464396Y-114863271D02*
X48392967Y-114934700D01*
X48392967Y-114934700D02*
X48250110Y-115006128D01*
X48250110Y-115006128D02*
X48035824Y-115006128D01*
X48964396Y-114006128D02*
X49535824Y-114006128D01*
X49178681Y-115006128D02*
X49178681Y-113720414D01*
X49178681Y-113720414D02*
X49250110Y-113577557D01*
X49250110Y-113577557D02*
X49392967Y-113506128D01*
X49392967Y-113506128D02*
X49535824Y-113506128D01*
X51107253Y-114934700D02*
X51250110Y-115006128D01*
X51250110Y-115006128D02*
X51535824Y-115006128D01*
X51535824Y-115006128D02*
X51678681Y-114934700D01*
X51678681Y-114934700D02*
X51750110Y-114791842D01*
X51750110Y-114791842D02*
X51750110Y-114720414D01*
X51750110Y-114720414D02*
X51678681Y-114577557D01*
X51678681Y-114577557D02*
X51535824Y-114506128D01*
X51535824Y-114506128D02*
X51321539Y-114506128D01*
X51321539Y-114506128D02*
X51178681Y-114434700D01*
X51178681Y-114434700D02*
X51107253Y-114291842D01*
X51107253Y-114291842D02*
X51107253Y-114220414D01*
X51107253Y-114220414D02*
X51178681Y-114077557D01*
X51178681Y-114077557D02*
X51321539Y-114006128D01*
X51321539Y-114006128D02*
X51535824Y-114006128D01*
X51535824Y-114006128D02*
X51678681Y-114077557D01*
X53035825Y-114934700D02*
X52892967Y-115006128D01*
X52892967Y-115006128D02*
X52607253Y-115006128D01*
X52607253Y-115006128D02*
X52464396Y-114934700D01*
X52464396Y-114934700D02*
X52392967Y-114863271D01*
X52392967Y-114863271D02*
X52321539Y-114720414D01*
X52321539Y-114720414D02*
X52321539Y-114291842D01*
X52321539Y-114291842D02*
X52392967Y-114148985D01*
X52392967Y-114148985D02*
X52464396Y-114077557D01*
X52464396Y-114077557D02*
X52607253Y-114006128D01*
X52607253Y-114006128D02*
X52892967Y-114006128D01*
X52892967Y-114006128D02*
X53035825Y-114077557D01*
X53678681Y-115006128D02*
X53678681Y-113506128D01*
X54321539Y-115006128D02*
X54321539Y-114220414D01*
X54321539Y-114220414D02*
X54250110Y-114077557D01*
X54250110Y-114077557D02*
X54107253Y-114006128D01*
X54107253Y-114006128D02*
X53892967Y-114006128D01*
X53892967Y-114006128D02*
X53750110Y-114077557D01*
X53750110Y-114077557D02*
X53678681Y-114148985D01*
X55607253Y-114934700D02*
X55464396Y-115006128D01*
X55464396Y-115006128D02*
X55178682Y-115006128D01*
X55178682Y-115006128D02*
X55035824Y-114934700D01*
X55035824Y-114934700D02*
X54964396Y-114791842D01*
X54964396Y-114791842D02*
X54964396Y-114220414D01*
X54964396Y-114220414D02*
X55035824Y-114077557D01*
X55035824Y-114077557D02*
X55178682Y-114006128D01*
X55178682Y-114006128D02*
X55464396Y-114006128D01*
X55464396Y-114006128D02*
X55607253Y-114077557D01*
X55607253Y-114077557D02*
X55678682Y-114220414D01*
X55678682Y-114220414D02*
X55678682Y-114363271D01*
X55678682Y-114363271D02*
X54964396Y-114506128D01*
X56321538Y-115006128D02*
X56321538Y-114006128D01*
X56321538Y-114148985D02*
X56392967Y-114077557D01*
X56392967Y-114077557D02*
X56535824Y-114006128D01*
X56535824Y-114006128D02*
X56750110Y-114006128D01*
X56750110Y-114006128D02*
X56892967Y-114077557D01*
X56892967Y-114077557D02*
X56964396Y-114220414D01*
X56964396Y-114220414D02*
X56964396Y-115006128D01*
X56964396Y-114220414D02*
X57035824Y-114077557D01*
X57035824Y-114077557D02*
X57178681Y-114006128D01*
X57178681Y-114006128D02*
X57392967Y-114006128D01*
X57392967Y-114006128D02*
X57535824Y-114077557D01*
X57535824Y-114077557D02*
X57607253Y-114220414D01*
X57607253Y-114220414D02*
X57607253Y-115006128D01*
X58964396Y-115006128D02*
X58964396Y-114220414D01*
X58964396Y-114220414D02*
X58892967Y-114077557D01*
X58892967Y-114077557D02*
X58750110Y-114006128D01*
X58750110Y-114006128D02*
X58464396Y-114006128D01*
X58464396Y-114006128D02*
X58321538Y-114077557D01*
X58964396Y-114934700D02*
X58821538Y-115006128D01*
X58821538Y-115006128D02*
X58464396Y-115006128D01*
X58464396Y-115006128D02*
X58321538Y-114934700D01*
X58321538Y-114934700D02*
X58250110Y-114791842D01*
X58250110Y-114791842D02*
X58250110Y-114648985D01*
X58250110Y-114648985D02*
X58321538Y-114506128D01*
X58321538Y-114506128D02*
X58464396Y-114434700D01*
X58464396Y-114434700D02*
X58821538Y-114434700D01*
X58821538Y-114434700D02*
X58964396Y-114363271D01*
X59464396Y-114006128D02*
X60035824Y-114006128D01*
X59678681Y-113506128D02*
X59678681Y-114791842D01*
X59678681Y-114791842D02*
X59750110Y-114934700D01*
X59750110Y-114934700D02*
X59892967Y-115006128D01*
X59892967Y-115006128D02*
X60035824Y-115006128D01*
X60535824Y-115006128D02*
X60535824Y-114006128D01*
X60535824Y-113506128D02*
X60464396Y-113577557D01*
X60464396Y-113577557D02*
X60535824Y-113648985D01*
X60535824Y-113648985D02*
X60607253Y-113577557D01*
X60607253Y-113577557D02*
X60535824Y-113506128D01*
X60535824Y-113506128D02*
X60535824Y-113648985D01*
X61892968Y-114934700D02*
X61750110Y-115006128D01*
X61750110Y-115006128D02*
X61464396Y-115006128D01*
X61464396Y-115006128D02*
X61321539Y-114934700D01*
X61321539Y-114934700D02*
X61250110Y-114863271D01*
X61250110Y-114863271D02*
X61178682Y-114720414D01*
X61178682Y-114720414D02*
X61178682Y-114291842D01*
X61178682Y-114291842D02*
X61250110Y-114148985D01*
X61250110Y-114148985D02*
X61321539Y-114077557D01*
X61321539Y-114077557D02*
X61464396Y-114006128D01*
X61464396Y-114006128D02*
X61750110Y-114006128D01*
X61750110Y-114006128D02*
X61892968Y-114077557D01*
D10*
D11*
X14035826Y-111220414D02*
X13535826Y-111220414D01*
X13535826Y-112006128D02*
X13535826Y-110506128D01*
X13535826Y-110506128D02*
X14250112Y-110506128D01*
X15035826Y-112006128D02*
X14892969Y-111934700D01*
X14892969Y-111934700D02*
X14821540Y-111863271D01*
X14821540Y-111863271D02*
X14750112Y-111720414D01*
X14750112Y-111720414D02*
X14750112Y-111291842D01*
X14750112Y-111291842D02*
X14821540Y-111148985D01*
X14821540Y-111148985D02*
X14892969Y-111077557D01*
X14892969Y-111077557D02*
X15035826Y-111006128D01*
X15035826Y-111006128D02*
X15250112Y-111006128D01*
X15250112Y-111006128D02*
X15392969Y-111077557D01*
X15392969Y-111077557D02*
X15464398Y-111148985D01*
X15464398Y-111148985D02*
X15535826Y-111291842D01*
X15535826Y-111291842D02*
X15535826Y-111720414D01*
X15535826Y-111720414D02*
X15464398Y-111863271D01*
X15464398Y-111863271D02*
X15392969Y-111934700D01*
X15392969Y-111934700D02*
X15250112Y-112006128D01*
X15250112Y-112006128D02*
X15035826Y-112006128D01*
X16178683Y-112006128D02*
X16178683Y-111006128D01*
X16178683Y-111291842D02*
X16250112Y-111148985D01*
X16250112Y-111148985D02*
X16321541Y-111077557D01*
X16321541Y-111077557D02*
X16464398Y-111006128D01*
X16464398Y-111006128D02*
X16607255Y-111006128D01*
X18250111Y-112006128D02*
X18250111Y-111006128D01*
X18250111Y-111148985D02*
X18321540Y-111077557D01*
X18321540Y-111077557D02*
X18464397Y-111006128D01*
X18464397Y-111006128D02*
X18678683Y-111006128D01*
X18678683Y-111006128D02*
X18821540Y-111077557D01*
X18821540Y-111077557D02*
X18892969Y-111220414D01*
X18892969Y-111220414D02*
X18892969Y-112006128D01*
X18892969Y-111220414D02*
X18964397Y-111077557D01*
X18964397Y-111077557D02*
X19107254Y-111006128D01*
X19107254Y-111006128D02*
X19321540Y-111006128D01*
X19321540Y-111006128D02*
X19464397Y-111077557D01*
X19464397Y-111077557D02*
X19535826Y-111220414D01*
X19535826Y-111220414D02*
X19535826Y-112006128D01*
X20250111Y-112006128D02*
X20250111Y-111006128D01*
X20250111Y-110506128D02*
X20178683Y-110577557D01*
X20178683Y-110577557D02*
X20250111Y-110648985D01*
X20250111Y-110648985D02*
X20321540Y-110577557D01*
X20321540Y-110577557D02*
X20250111Y-110506128D01*
X20250111Y-110506128D02*
X20250111Y-110648985D01*
X21178683Y-112006128D02*
X21035826Y-111934700D01*
X21035826Y-111934700D02*
X20964397Y-111791842D01*
X20964397Y-111791842D02*
X20964397Y-110506128D01*
X21964397Y-112006128D02*
X21821540Y-111934700D01*
X21821540Y-111934700D02*
X21750111Y-111791842D01*
X21750111Y-111791842D02*
X21750111Y-110506128D01*
X22535825Y-112006128D02*
X22535825Y-111006128D01*
X22535825Y-110506128D02*
X22464397Y-110577557D01*
X22464397Y-110577557D02*
X22535825Y-110648985D01*
X22535825Y-110648985D02*
X22607254Y-110577557D01*
X22607254Y-110577557D02*
X22535825Y-110506128D01*
X22535825Y-110506128D02*
X22535825Y-110648985D01*
X23250111Y-111006128D02*
X23250111Y-112006128D01*
X23250111Y-111148985D02*
X23321540Y-111077557D01*
X23321540Y-111077557D02*
X23464397Y-111006128D01*
X23464397Y-111006128D02*
X23678683Y-111006128D01*
X23678683Y-111006128D02*
X23821540Y-111077557D01*
X23821540Y-111077557D02*
X23892969Y-111220414D01*
X23892969Y-111220414D02*
X23892969Y-112006128D01*
X25250112Y-111006128D02*
X25250112Y-112220414D01*
X25250112Y-112220414D02*
X25178683Y-112363271D01*
X25178683Y-112363271D02*
X25107254Y-112434700D01*
X25107254Y-112434700D02*
X24964397Y-112506128D01*
X24964397Y-112506128D02*
X24750112Y-112506128D01*
X24750112Y-112506128D02*
X24607254Y-112434700D01*
X25250112Y-111934700D02*
X25107254Y-112006128D01*
X25107254Y-112006128D02*
X24821540Y-112006128D01*
X24821540Y-112006128D02*
X24678683Y-111934700D01*
X24678683Y-111934700D02*
X24607254Y-111863271D01*
X24607254Y-111863271D02*
X24535826Y-111720414D01*
X24535826Y-111720414D02*
X24535826Y-111291842D01*
X24535826Y-111291842D02*
X24607254Y-111148985D01*
X24607254Y-111148985D02*
X24678683Y-111077557D01*
X24678683Y-111077557D02*
X24821540Y-111006128D01*
X24821540Y-111006128D02*
X25107254Y-111006128D01*
X25107254Y-111006128D02*
X25250112Y-111077557D01*
X27321540Y-112006128D02*
X27178683Y-111934700D01*
X27178683Y-111934700D02*
X27107254Y-111863271D01*
X27107254Y-111863271D02*
X27035826Y-111720414D01*
X27035826Y-111720414D02*
X27035826Y-111291842D01*
X27035826Y-111291842D02*
X27107254Y-111148985D01*
X27107254Y-111148985D02*
X27178683Y-111077557D01*
X27178683Y-111077557D02*
X27321540Y-111006128D01*
X27321540Y-111006128D02*
X27535826Y-111006128D01*
X27535826Y-111006128D02*
X27678683Y-111077557D01*
X27678683Y-111077557D02*
X27750112Y-111148985D01*
X27750112Y-111148985D02*
X27821540Y-111291842D01*
X27821540Y-111291842D02*
X27821540Y-111720414D01*
X27821540Y-111720414D02*
X27750112Y-111863271D01*
X27750112Y-111863271D02*
X27678683Y-111934700D01*
X27678683Y-111934700D02*
X27535826Y-112006128D01*
X27535826Y-112006128D02*
X27321540Y-112006128D01*
X28464397Y-111006128D02*
X28464397Y-112006128D01*
X28464397Y-111148985D02*
X28535826Y-111077557D01*
X28535826Y-111077557D02*
X28678683Y-111006128D01*
X28678683Y-111006128D02*
X28892969Y-111006128D01*
X28892969Y-111006128D02*
X29035826Y-111077557D01*
X29035826Y-111077557D02*
X29107255Y-111220414D01*
X29107255Y-111220414D02*
X29107255Y-112006128D01*
X30964397Y-112006128D02*
X30964397Y-110506128D01*
X30964397Y-110506128D02*
X31535826Y-110506128D01*
X31535826Y-110506128D02*
X31678683Y-110577557D01*
X31678683Y-110577557D02*
X31750112Y-110648985D01*
X31750112Y-110648985D02*
X31821540Y-110791842D01*
X31821540Y-110791842D02*
X31821540Y-111006128D01*
X31821540Y-111006128D02*
X31750112Y-111148985D01*
X31750112Y-111148985D02*
X31678683Y-111220414D01*
X31678683Y-111220414D02*
X31535826Y-111291842D01*
X31535826Y-111291842D02*
X30964397Y-111291842D01*
X33321540Y-111863271D02*
X33250112Y-111934700D01*
X33250112Y-111934700D02*
X33035826Y-112006128D01*
X33035826Y-112006128D02*
X32892969Y-112006128D01*
X32892969Y-112006128D02*
X32678683Y-111934700D01*
X32678683Y-111934700D02*
X32535826Y-111791842D01*
X32535826Y-111791842D02*
X32464397Y-111648985D01*
X32464397Y-111648985D02*
X32392969Y-111363271D01*
X32392969Y-111363271D02*
X32392969Y-111148985D01*
X32392969Y-111148985D02*
X32464397Y-110863271D01*
X32464397Y-110863271D02*
X32535826Y-110720414D01*
X32535826Y-110720414D02*
X32678683Y-110577557D01*
X32678683Y-110577557D02*
X32892969Y-110506128D01*
X32892969Y-110506128D02*
X33035826Y-110506128D01*
X33035826Y-110506128D02*
X33250112Y-110577557D01*
X33250112Y-110577557D02*
X33321540Y-110648985D01*
X34464397Y-111220414D02*
X34678683Y-111291842D01*
X34678683Y-111291842D02*
X34750112Y-111363271D01*
X34750112Y-111363271D02*
X34821540Y-111506128D01*
X34821540Y-111506128D02*
X34821540Y-111720414D01*
X34821540Y-111720414D02*
X34750112Y-111863271D01*
X34750112Y-111863271D02*
X34678683Y-111934700D01*
X34678683Y-111934700D02*
X34535826Y-112006128D01*
X34535826Y-112006128D02*
X33964397Y-112006128D01*
X33964397Y-112006128D02*
X33964397Y-110506128D01*
X33964397Y-110506128D02*
X34464397Y-110506128D01*
X34464397Y-110506128D02*
X34607255Y-110577557D01*
X34607255Y-110577557D02*
X34678683Y-110648985D01*
X34678683Y-110648985D02*
X34750112Y-110791842D01*
X34750112Y-110791842D02*
X34750112Y-110934700D01*
X34750112Y-110934700D02*
X34678683Y-111077557D01*
X34678683Y-111077557D02*
X34607255Y-111148985D01*
X34607255Y-111148985D02*
X34464397Y-111220414D01*
X34464397Y-111220414D02*
X33964397Y-111220414D01*
D10*
D11*
D10*
D11*
D10*
D11*
X32080000Y-128820000D02*
X32080000Y-131820000D01*
D10*
D11*
X96080000Y-128820000D02*
X96080000Y-135320000D01*
D14*
D15*
X63130036Y-47677091D02*
X63294322Y-47734234D01*
X63294322Y-47734234D02*
X63344322Y-47791377D01*
X63344322Y-47791377D02*
X63387179Y-47905662D01*
X63387179Y-47905662D02*
X63365751Y-48077091D01*
X63365751Y-48077091D02*
X63294322Y-48191377D01*
X63294322Y-48191377D02*
X63230036Y-48248520D01*
X63230036Y-48248520D02*
X63108608Y-48305662D01*
X63108608Y-48305662D02*
X62651465Y-48305662D01*
X62651465Y-48305662D02*
X62801465Y-47105662D01*
X62801465Y-47105662D02*
X63201465Y-47105662D01*
X63201465Y-47105662D02*
X63308608Y-47162805D01*
X63308608Y-47162805D02*
X63358608Y-47219948D01*
X63358608Y-47219948D02*
X63401465Y-47334234D01*
X63401465Y-47334234D02*
X63387179Y-47448520D01*
X63387179Y-47448520D02*
X63315751Y-47562805D01*
X63315751Y-47562805D02*
X63251465Y-47619948D01*
X63251465Y-47619948D02*
X63130036Y-47677091D01*
X63130036Y-47677091D02*
X62730036Y-47677091D01*
X64022894Y-48305662D02*
X63915751Y-48248520D01*
X63915751Y-48248520D02*
X63872894Y-48134234D01*
X63872894Y-48134234D02*
X64001465Y-47105662D01*
X65094322Y-47505662D02*
X64994322Y-48305662D01*
X64580036Y-47505662D02*
X64501465Y-48134234D01*
X64501465Y-48134234D02*
X64544322Y-48248520D01*
X64544322Y-48248520D02*
X64651465Y-48305662D01*
X64651465Y-48305662D02*
X64822893Y-48305662D01*
X64822893Y-48305662D02*
X64944322Y-48248520D01*
X64944322Y-48248520D02*
X65008607Y-48191377D01*
X66030036Y-48248520D02*
X65908607Y-48305662D01*
X65908607Y-48305662D02*
X65680036Y-48305662D01*
X65680036Y-48305662D02*
X65572893Y-48248520D01*
X65572893Y-48248520D02*
X65530036Y-48134234D01*
X65530036Y-48134234D02*
X65587179Y-47677091D01*
X65587179Y-47677091D02*
X65658607Y-47562805D01*
X65658607Y-47562805D02*
X65780036Y-47505662D01*
X65780036Y-47505662D02*
X66008607Y-47505662D01*
X66008607Y-47505662D02*
X66115750Y-47562805D01*
X66115750Y-47562805D02*
X66158607Y-47677091D01*
X66158607Y-47677091D02*
X66144321Y-47791377D01*
X66144321Y-47791377D02*
X65558607Y-47905662D01*
X66522892Y-47505662D02*
X66980035Y-47505662D01*
X66744321Y-47105662D02*
X66615750Y-48134234D01*
X66615750Y-48134234D02*
X66658607Y-48248520D01*
X66658607Y-48248520D02*
X66765750Y-48305662D01*
X66765750Y-48305662D02*
X66880035Y-48305662D01*
X67451464Y-48305662D02*
X67344321Y-48248520D01*
X67344321Y-48248520D02*
X67294321Y-48191377D01*
X67294321Y-48191377D02*
X67251464Y-48077091D01*
X67251464Y-48077091D02*
X67294321Y-47734234D01*
X67294321Y-47734234D02*
X67365749Y-47619948D01*
X67365749Y-47619948D02*
X67430035Y-47562805D01*
X67430035Y-47562805D02*
X67551464Y-47505662D01*
X67551464Y-47505662D02*
X67722892Y-47505662D01*
X67722892Y-47505662D02*
X67830035Y-47562805D01*
X67830035Y-47562805D02*
X67880035Y-47619948D01*
X67880035Y-47619948D02*
X67922892Y-47734234D01*
X67922892Y-47734234D02*
X67880035Y-48077091D01*
X67880035Y-48077091D02*
X67808606Y-48191377D01*
X67808606Y-48191377D02*
X67744321Y-48248520D01*
X67744321Y-48248520D02*
X67622892Y-48305662D01*
X67622892Y-48305662D02*
X67451464Y-48305662D01*
X68537178Y-48305662D02*
X68430035Y-48248520D01*
X68430035Y-48248520D02*
X68380035Y-48191377D01*
X68380035Y-48191377D02*
X68337178Y-48077091D01*
X68337178Y-48077091D02*
X68380035Y-47734234D01*
X68380035Y-47734234D02*
X68451463Y-47619948D01*
X68451463Y-47619948D02*
X68515749Y-47562805D01*
X68515749Y-47562805D02*
X68637178Y-47505662D01*
X68637178Y-47505662D02*
X68808606Y-47505662D01*
X68808606Y-47505662D02*
X68915749Y-47562805D01*
X68915749Y-47562805D02*
X68965749Y-47619948D01*
X68965749Y-47619948D02*
X69008606Y-47734234D01*
X69008606Y-47734234D02*
X68965749Y-48077091D01*
X68965749Y-48077091D02*
X68894320Y-48191377D01*
X68894320Y-48191377D02*
X68830035Y-48248520D01*
X68830035Y-48248520D02*
X68708606Y-48305662D01*
X68708606Y-48305662D02*
X68537178Y-48305662D01*
X69380034Y-47505662D02*
X69837177Y-47505662D01*
X69601463Y-47105662D02*
X69472892Y-48134234D01*
X69472892Y-48134234D02*
X69515749Y-48248520D01*
X69515749Y-48248520D02*
X69622892Y-48305662D01*
X69622892Y-48305662D02*
X69737177Y-48305662D01*
X70137177Y-48305662D02*
X70287177Y-47105662D01*
X70651463Y-48305662D02*
X70730034Y-47677091D01*
X70730034Y-47677091D02*
X70687177Y-47562805D01*
X70687177Y-47562805D02*
X70580034Y-47505662D01*
X70580034Y-47505662D02*
X70408606Y-47505662D01*
X70408606Y-47505662D02*
X70287177Y-47562805D01*
X70287177Y-47562805D02*
X70222891Y-47619948D01*
X72137177Y-48305662D02*
X72287177Y-47105662D01*
X72287177Y-47105662D02*
X72580034Y-47962805D01*
X72580034Y-47962805D02*
X73087177Y-47105662D01*
X73087177Y-47105662D02*
X72937177Y-48305662D01*
X73680035Y-48305662D02*
X73572892Y-48248520D01*
X73572892Y-48248520D02*
X73522892Y-48191377D01*
X73522892Y-48191377D02*
X73480035Y-48077091D01*
X73480035Y-48077091D02*
X73522892Y-47734234D01*
X73522892Y-47734234D02*
X73594320Y-47619948D01*
X73594320Y-47619948D02*
X73658606Y-47562805D01*
X73658606Y-47562805D02*
X73780035Y-47505662D01*
X73780035Y-47505662D02*
X73951463Y-47505662D01*
X73951463Y-47505662D02*
X74058606Y-47562805D01*
X74058606Y-47562805D02*
X74108606Y-47619948D01*
X74108606Y-47619948D02*
X74151463Y-47734234D01*
X74151463Y-47734234D02*
X74108606Y-48077091D01*
X74108606Y-48077091D02*
X74037177Y-48191377D01*
X74037177Y-48191377D02*
X73972892Y-48248520D01*
X73972892Y-48248520D02*
X73851463Y-48305662D01*
X73851463Y-48305662D02*
X73680035Y-48305662D01*
X74544320Y-48248520D02*
X74651463Y-48305662D01*
X74651463Y-48305662D02*
X74880034Y-48305662D01*
X74880034Y-48305662D02*
X75001463Y-48248520D01*
X75001463Y-48248520D02*
X75072891Y-48134234D01*
X75072891Y-48134234D02*
X75080034Y-48077091D01*
X75080034Y-48077091D02*
X75037177Y-47962805D01*
X75037177Y-47962805D02*
X74930034Y-47905662D01*
X74930034Y-47905662D02*
X74758606Y-47905662D01*
X74758606Y-47905662D02*
X74651463Y-47848520D01*
X74651463Y-47848520D02*
X74608606Y-47734234D01*
X74608606Y-47734234D02*
X74615749Y-47677091D01*
X74615749Y-47677091D02*
X74687177Y-47562805D01*
X74687177Y-47562805D02*
X74808606Y-47505662D01*
X74808606Y-47505662D02*
X74980034Y-47505662D01*
X74980034Y-47505662D02*
X75087177Y-47562805D01*
X75494320Y-47505662D02*
X75951463Y-47505662D01*
X75565749Y-48305662D02*
X75694320Y-47277091D01*
X75694320Y-47277091D02*
X75765749Y-47162805D01*
X75765749Y-47162805D02*
X75887178Y-47105662D01*
X75887178Y-47105662D02*
X76001463Y-47105662D01*
X76715749Y-48248520D02*
X76594320Y-48305662D01*
X76594320Y-48305662D02*
X76365749Y-48305662D01*
X76365749Y-48305662D02*
X76258606Y-48248520D01*
X76258606Y-48248520D02*
X76215749Y-48134234D01*
X76215749Y-48134234D02*
X76272892Y-47677091D01*
X76272892Y-47677091D02*
X76344320Y-47562805D01*
X76344320Y-47562805D02*
X76465749Y-47505662D01*
X76465749Y-47505662D02*
X76694320Y-47505662D01*
X76694320Y-47505662D02*
X76801463Y-47562805D01*
X76801463Y-47562805D02*
X76844320Y-47677091D01*
X76844320Y-47677091D02*
X76830034Y-47791377D01*
X76830034Y-47791377D02*
X76244320Y-47905662D01*
X77208605Y-47505662D02*
X77665748Y-47505662D01*
X77430034Y-47105662D02*
X77301463Y-48134234D01*
X77301463Y-48134234D02*
X77344320Y-48248520D01*
X77344320Y-48248520D02*
X77451463Y-48305662D01*
X77451463Y-48305662D02*
X77565748Y-48305662D01*
X79358605Y-47677091D02*
X79522891Y-47734234D01*
X79522891Y-47734234D02*
X79572891Y-47791377D01*
X79572891Y-47791377D02*
X79615748Y-47905662D01*
X79615748Y-47905662D02*
X79594320Y-48077091D01*
X79594320Y-48077091D02*
X79522891Y-48191377D01*
X79522891Y-48191377D02*
X79458605Y-48248520D01*
X79458605Y-48248520D02*
X79337177Y-48305662D01*
X79337177Y-48305662D02*
X78880034Y-48305662D01*
X78880034Y-48305662D02*
X79030034Y-47105662D01*
X79030034Y-47105662D02*
X79430034Y-47105662D01*
X79430034Y-47105662D02*
X79537177Y-47162805D01*
X79537177Y-47162805D02*
X79587177Y-47219948D01*
X79587177Y-47219948D02*
X79630034Y-47334234D01*
X79630034Y-47334234D02*
X79615748Y-47448520D01*
X79615748Y-47448520D02*
X79544320Y-47562805D01*
X79544320Y-47562805D02*
X79480034Y-47619948D01*
X79480034Y-47619948D02*
X79358605Y-47677091D01*
X79358605Y-47677091D02*
X78958605Y-47677091D01*
X80251463Y-48305662D02*
X80144320Y-48248520D01*
X80144320Y-48248520D02*
X80094320Y-48191377D01*
X80094320Y-48191377D02*
X80051463Y-48077091D01*
X80051463Y-48077091D02*
X80094320Y-47734234D01*
X80094320Y-47734234D02*
X80165748Y-47619948D01*
X80165748Y-47619948D02*
X80230034Y-47562805D01*
X80230034Y-47562805D02*
X80351463Y-47505662D01*
X80351463Y-47505662D02*
X80522891Y-47505662D01*
X80522891Y-47505662D02*
X80630034Y-47562805D01*
X80630034Y-47562805D02*
X80680034Y-47619948D01*
X80680034Y-47619948D02*
X80722891Y-47734234D01*
X80722891Y-47734234D02*
X80680034Y-48077091D01*
X80680034Y-48077091D02*
X80608605Y-48191377D01*
X80608605Y-48191377D02*
X80544320Y-48248520D01*
X80544320Y-48248520D02*
X80422891Y-48305662D01*
X80422891Y-48305662D02*
X80251463Y-48305662D01*
X81680034Y-48305662D02*
X81758605Y-47677091D01*
X81758605Y-47677091D02*
X81715748Y-47562805D01*
X81715748Y-47562805D02*
X81608605Y-47505662D01*
X81608605Y-47505662D02*
X81380034Y-47505662D01*
X81380034Y-47505662D02*
X81258605Y-47562805D01*
X81687177Y-48248520D02*
X81565748Y-48305662D01*
X81565748Y-48305662D02*
X81280034Y-48305662D01*
X81280034Y-48305662D02*
X81172891Y-48248520D01*
X81172891Y-48248520D02*
X81130034Y-48134234D01*
X81130034Y-48134234D02*
X81144319Y-48019948D01*
X81144319Y-48019948D02*
X81215748Y-47905662D01*
X81215748Y-47905662D02*
X81337177Y-47848520D01*
X81337177Y-47848520D02*
X81622891Y-47848520D01*
X81622891Y-47848520D02*
X81744319Y-47791377D01*
X82251462Y-48305662D02*
X82351462Y-47505662D01*
X82322891Y-47734234D02*
X82394319Y-47619948D01*
X82394319Y-47619948D02*
X82458605Y-47562805D01*
X82458605Y-47562805D02*
X82580033Y-47505662D01*
X82580033Y-47505662D02*
X82694319Y-47505662D01*
X83508605Y-48305662D02*
X83658605Y-47105662D01*
X83515748Y-48248520D02*
X83394319Y-48305662D01*
X83394319Y-48305662D02*
X83165748Y-48305662D01*
X83165748Y-48305662D02*
X83058605Y-48248520D01*
X83058605Y-48248520D02*
X83008605Y-48191377D01*
X83008605Y-48191377D02*
X82965748Y-48077091D01*
X82965748Y-48077091D02*
X83008605Y-47734234D01*
X83008605Y-47734234D02*
X83080033Y-47619948D01*
X83080033Y-47619948D02*
X83144319Y-47562805D01*
X83144319Y-47562805D02*
X83265748Y-47505662D01*
X83265748Y-47505662D02*
X83494319Y-47505662D01*
X83494319Y-47505662D02*
X83601462Y-47562805D01*
D14*
D15*
X81687179Y-73540662D02*
X81872894Y-74340662D01*
X81872894Y-74340662D02*
X82258608Y-73540662D01*
X83244322Y-74340662D02*
X82558608Y-74340662D01*
X82901465Y-74340662D02*
X83051465Y-73140662D01*
X83051465Y-73140662D02*
X82915751Y-73312091D01*
X82915751Y-73312091D02*
X82787180Y-73426377D01*
X82787180Y-73426377D02*
X82665751Y-73483520D01*
D14*
D15*
X70913608Y-50845662D02*
X70913608Y-49645662D01*
X70913608Y-49645662D02*
X71599322Y-50845662D01*
X71599322Y-50845662D02*
X71599322Y-49645662D01*
X72170751Y-50845662D02*
X72170751Y-50045662D01*
X72170751Y-49645662D02*
X72113608Y-49702805D01*
X72113608Y-49702805D02*
X72170751Y-49759948D01*
X72170751Y-49759948D02*
X72227894Y-49702805D01*
X72227894Y-49702805D02*
X72170751Y-49645662D01*
X72170751Y-49645662D02*
X72170751Y-49759948D01*
X73256466Y-50788520D02*
X73142180Y-50845662D01*
X73142180Y-50845662D02*
X72913608Y-50845662D01*
X72913608Y-50845662D02*
X72799323Y-50788520D01*
X72799323Y-50788520D02*
X72742180Y-50731377D01*
X72742180Y-50731377D02*
X72685037Y-50617091D01*
X72685037Y-50617091D02*
X72685037Y-50274234D01*
X72685037Y-50274234D02*
X72742180Y-50159948D01*
X72742180Y-50159948D02*
X72799323Y-50102805D01*
X72799323Y-50102805D02*
X72913608Y-50045662D01*
X72913608Y-50045662D02*
X73142180Y-50045662D01*
X73142180Y-50045662D02*
X73256466Y-50102805D01*
X73770751Y-50845662D02*
X73770751Y-49645662D01*
X74285037Y-50845662D02*
X74285037Y-50217091D01*
X74285037Y-50217091D02*
X74227894Y-50102805D01*
X74227894Y-50102805D02*
X74113608Y-50045662D01*
X74113608Y-50045662D02*
X73942179Y-50045662D01*
X73942179Y-50045662D02*
X73827894Y-50102805D01*
X73827894Y-50102805D02*
X73770751Y-50159948D01*
X75027893Y-50845662D02*
X74913608Y-50788520D01*
X74913608Y-50788520D02*
X74856465Y-50731377D01*
X74856465Y-50731377D02*
X74799322Y-50617091D01*
X74799322Y-50617091D02*
X74799322Y-50274234D01*
X74799322Y-50274234D02*
X74856465Y-50159948D01*
X74856465Y-50159948D02*
X74913608Y-50102805D01*
X74913608Y-50102805D02*
X75027893Y-50045662D01*
X75027893Y-50045662D02*
X75199322Y-50045662D01*
X75199322Y-50045662D02*
X75313608Y-50102805D01*
X75313608Y-50102805D02*
X75370751Y-50159948D01*
X75370751Y-50159948D02*
X75427893Y-50274234D01*
X75427893Y-50274234D02*
X75427893Y-50617091D01*
X75427893Y-50617091D02*
X75370751Y-50731377D01*
X75370751Y-50731377D02*
X75313608Y-50788520D01*
X75313608Y-50788520D02*
X75199322Y-50845662D01*
X75199322Y-50845662D02*
X75027893Y-50845662D01*
X76113607Y-50845662D02*
X75999322Y-50788520D01*
X75999322Y-50788520D02*
X75942179Y-50674234D01*
X75942179Y-50674234D02*
X75942179Y-49645662D01*
X77085036Y-50845662D02*
X77085036Y-50217091D01*
X77085036Y-50217091D02*
X77027893Y-50102805D01*
X77027893Y-50102805D02*
X76913607Y-50045662D01*
X76913607Y-50045662D02*
X76685036Y-50045662D01*
X76685036Y-50045662D02*
X76570750Y-50102805D01*
X77085036Y-50788520D02*
X76970750Y-50845662D01*
X76970750Y-50845662D02*
X76685036Y-50845662D01*
X76685036Y-50845662D02*
X76570750Y-50788520D01*
X76570750Y-50788520D02*
X76513607Y-50674234D01*
X76513607Y-50674234D02*
X76513607Y-50559948D01*
X76513607Y-50559948D02*
X76570750Y-50445662D01*
X76570750Y-50445662D02*
X76685036Y-50388520D01*
X76685036Y-50388520D02*
X76970750Y-50388520D01*
X76970750Y-50388520D02*
X77085036Y-50331377D01*
X77599321Y-50788520D02*
X77713607Y-50845662D01*
X77713607Y-50845662D02*
X77942178Y-50845662D01*
X77942178Y-50845662D02*
X78056464Y-50788520D01*
X78056464Y-50788520D02*
X78113607Y-50674234D01*
X78113607Y-50674234D02*
X78113607Y-50617091D01*
X78113607Y-50617091D02*
X78056464Y-50502805D01*
X78056464Y-50502805D02*
X77942178Y-50445662D01*
X77942178Y-50445662D02*
X77770750Y-50445662D01*
X77770750Y-50445662D02*
X77656464Y-50388520D01*
X77656464Y-50388520D02*
X77599321Y-50274234D01*
X77599321Y-50274234D02*
X77599321Y-50217091D01*
X77599321Y-50217091D02*
X77656464Y-50102805D01*
X77656464Y-50102805D02*
X77770750Y-50045662D01*
X77770750Y-50045662D02*
X77942178Y-50045662D01*
X77942178Y-50045662D02*
X78056464Y-50102805D01*
X79542179Y-50845662D02*
X79542179Y-49645662D01*
X79542179Y-49645662D02*
X80227893Y-50845662D01*
X80227893Y-50845662D02*
X80227893Y-49645662D01*
X80799322Y-50845662D02*
X80799322Y-50045662D01*
X80799322Y-49645662D02*
X80742179Y-49702805D01*
X80742179Y-49702805D02*
X80799322Y-49759948D01*
X80799322Y-49759948D02*
X80856465Y-49702805D01*
X80856465Y-49702805D02*
X80799322Y-49645662D01*
X80799322Y-49645662D02*
X80799322Y-49759948D01*
X81542179Y-50845662D02*
X81427894Y-50788520D01*
X81427894Y-50788520D02*
X81370751Y-50674234D01*
X81370751Y-50674234D02*
X81370751Y-49645662D01*
X82456465Y-50788520D02*
X82342179Y-50845662D01*
X82342179Y-50845662D02*
X82113608Y-50845662D01*
X82113608Y-50845662D02*
X81999322Y-50788520D01*
X81999322Y-50788520D02*
X81942179Y-50674234D01*
X81942179Y-50674234D02*
X81942179Y-50217091D01*
X81942179Y-50217091D02*
X81999322Y-50102805D01*
X81999322Y-50102805D02*
X82113608Y-50045662D01*
X82113608Y-50045662D02*
X82342179Y-50045662D01*
X82342179Y-50045662D02*
X82456465Y-50102805D01*
X82456465Y-50102805D02*
X82513608Y-50217091D01*
X82513608Y-50217091D02*
X82513608Y-50331377D01*
X82513608Y-50331377D02*
X81942179Y-50445662D01*
X82970750Y-50788520D02*
X83085036Y-50845662D01*
X83085036Y-50845662D02*
X83313607Y-50845662D01*
X83313607Y-50845662D02*
X83427893Y-50788520D01*
X83427893Y-50788520D02*
X83485036Y-50674234D01*
X83485036Y-50674234D02*
X83485036Y-50617091D01*
X83485036Y-50617091D02*
X83427893Y-50502805D01*
X83427893Y-50502805D02*
X83313607Y-50445662D01*
X83313607Y-50445662D02*
X83142179Y-50445662D01*
X83142179Y-50445662D02*
X83027893Y-50388520D01*
X83027893Y-50388520D02*
X82970750Y-50274234D01*
X82970750Y-50274234D02*
X82970750Y-50217091D01*
X82970750Y-50217091D02*
X83027893Y-50102805D01*
X83027893Y-50102805D02*
X83142179Y-50045662D01*
X83142179Y-50045662D02*
X83313607Y-50045662D01*
X83313607Y-50045662D02*
X83427893Y-50102805D01*
D16*
%TO.P,R3,1*%
%TO.N,Net-(Q1-G)*%
X46545000Y-69420000D03*
%TO.P,R3,2*%
%TO.N,Net-(J1-Pin_2)*%
X49945000Y-69420000D03*
%TD*%
D17*
%TO.P,D1,1,K*%
%TO.N,Net-(D1-K)*%
X64135000Y-59690000D03*
%TO.P,D1,2,A*%
%TO.N,Net-(D1-A)*%
X64135000Y-56290000D03*
%TD*%
D18*
%TO.P,J1,1,Pin_1*%
%TO.N,Net-(J1-Pin_1)*%
X54585000Y-53305000D03*
%TO.P,J1,2,Pin_2*%
%TO.N,Net-(J1-Pin_2)*%
X57125000Y-53305000D03*
%TO.P,J1,3,Pin_3*%
%TO.N,Net-(J1-Pin_3)*%
X59665000Y-53305000D03*
%TD*%
D19*
%TO.P,Q1,1,G*%
%TO.N,Net-(Q1-G)*%
X49190000Y-64340000D03*
D20*
%TO.P,Q1,2,D*%
%TO.N,Net-(J3-Pin_1)*%
X49190000Y-61800000D03*
%TO.P,Q1,3,S*%
%TO.N,Net-(J3-Pin_2)*%
X49190000Y-59260000D03*
%TD*%
D21*
%TO.P,U2,1,VCC*%
%TO.N,Net-(J1-Pin_3)*%
X54595000Y-56720000D03*
%TO.P,U2,2,PA4*%
%TO.N,unconnected-(U2-PA4-Pad2)*%
X54595000Y-57990000D03*
%TO.P,U2,3,PA5*%
%TO.N,unconnected-(U2-PA5-Pad3)*%
X54595000Y-59260000D03*
%TO.P,U2,4,PA6/DAC*%
%TO.N,unconnected-(U2-PA6{slash}DAC-Pad4)*%
X54595000Y-60530000D03*
%TO.P,U2,5,PA7*%
%TO.N,unconnected-(U2-PA7-Pad5)*%
X54595000Y-61800000D03*
%TO.P,U2,6,PB3/RXD*%
%TO.N,Net-(J2-Pin_3)*%
X54595000Y-63070000D03*
%TO.P,U2,7,PB2/TXD*%
%TO.N,Net-(J2-Pin_4)*%
X54595000Y-64340000D03*
%TO.P,U2,8,PB1/SDA*%
%TO.N,Net-(J1-Pin_2)*%
X59545000Y-64340000D03*
%TO.P,U2,9,PB0/SCL*%
%TO.N,unconnected-(U2-PB0{slash}SCL-Pad9)*%
X59545000Y-63070000D03*
%TO.P,U2,10,UPDI/PA0/D11*%
%TO.N,Net-(J1-Pin_1)*%
X59545000Y-61800000D03*
%TO.P,U2,11,PA1/D8*%
%TO.N,Net-(Q1-G)*%
X59545000Y-60530000D03*
%TO.P,U2,12,PA2/D9*%
%TO.N,Net-(D1-A)*%
X59545000Y-59260000D03*
%TO.P,U2,13,PA3/D10*%
%TO.N,Net-(D2-A)*%
X59545000Y-57990000D03*
%TO.P,U2,14,GND*%
%TO.N,Net-(J1-Pin_2)*%
X59545000Y-56720000D03*
%TD*%
D17*
%TO.P,D2,1,K*%
%TO.N,Net-(D2-K)*%
X67295000Y-59690000D03*
%TO.P,D2,2,A*%
%TO.N,Net-(D2-A)*%
X67295000Y-56290000D03*
%TD*%
%TO.P,R2,1*%
%TO.N,Net-(D2-K)*%
X67310000Y-62110000D03*
%TO.P,R2,2*%
%TO.N,Net-(J1-Pin_2)*%
X67310000Y-65510000D03*
%TD*%
D18*
%TO.P,J2,1,Pin_1*%
%TO.N,Net-(J1-Pin_3)*%
X60935000Y-67755000D03*
%TO.P,J2,2,Pin_2*%
%TO.N,Net-(J1-Pin_2)*%
X58395000Y-67755000D03*
%TO.P,J2,3,Pin_3*%
%TO.N,Net-(J2-Pin_3)*%
X55855000Y-67755000D03*
%TO.P,J2,4,Pin_4*%
%TO.N,Net-(J2-Pin_4)*%
X53315000Y-67755000D03*
%TD*%
%TO.P,J3,1,Pin_1*%
%TO.N,Net-(J3-Pin_1)*%
X46360000Y-53305000D03*
%TO.P,J3,2,Pin_2*%
%TO.N,Net-(J3-Pin_2)*%
X48900000Y-53305000D03*
%TD*%
D17*
%TO.P,R1,1*%
%TO.N,Net-(D1-K)*%
X64135000Y-62110000D03*
%TO.P,R1,2*%
%TO.N,Net-(J1-Pin_2)*%
X64135000Y-65510000D03*
%TD*%
D22*
%TO.N,Net-(J1-Pin_2)*%
X58395000Y-65490000D02*
X59545000Y-64340000D01*
X57125000Y-53305000D02*
X57125000Y-54300000D01*
X57135000Y-70690000D02*
X58395000Y-69430000D01*
X64135000Y-65510000D02*
X67310000Y-65510000D01*
X60715000Y-65510000D02*
X59545000Y-64340000D01*
X50785000Y-70690000D02*
X57135000Y-70690000D01*
X64135000Y-65510000D02*
X60715000Y-65510000D01*
X57125000Y-54300000D02*
X59545000Y-56720000D01*
X58395000Y-67755000D02*
X58395000Y-65490000D01*
X49945000Y-69850000D02*
X50785000Y-70690000D01*
X49945000Y-69420000D02*
X49945000Y-69850000D01*
X58395000Y-69430000D02*
X58395000Y-67755000D01*
%TO.N,Net-(J1-Pin_3)*%
X49515000Y-71960000D02*
X48245000Y-70690000D01*
X53960000Y-56720000D02*
X54595000Y-56720000D01*
X50785000Y-66880000D02*
X52055000Y-65610000D01*
X52055000Y-57990000D02*
X53325000Y-56720000D01*
X49515000Y-66880000D02*
X50785000Y-66880000D01*
X52690000Y-51640000D02*
X52690000Y-55450000D01*
X52055000Y-65610000D02*
X52055000Y-57990000D01*
X59040000Y-51005000D02*
X53325000Y-51005000D01*
X59040000Y-71960000D02*
X49515000Y-71960000D01*
X53325000Y-56720000D02*
X54595000Y-56720000D01*
X60935000Y-70065000D02*
X59040000Y-71960000D01*
X48245000Y-70690000D02*
X48245000Y-68150000D01*
X48245000Y-68150000D02*
X49515000Y-66880000D01*
X53325000Y-51005000D02*
X52690000Y-51640000D01*
X52690000Y-55450000D02*
X53960000Y-56720000D01*
X60935000Y-67755000D02*
X60935000Y-70065000D01*
X59665000Y-53305000D02*
X59665000Y-51630000D01*
X59665000Y-51630000D02*
X59040000Y-51005000D01*
%TO.N,Net-(J1-Pin_1)*%
X54585000Y-53305000D02*
X54585000Y-53705000D01*
X58405000Y-61800000D02*
X59545000Y-61800000D01*
X57135000Y-60530000D02*
X58405000Y-61800000D01*
X57135000Y-56255000D02*
X57135000Y-60530000D01*
X54585000Y-53705000D02*
X57135000Y-56255000D01*
%TO.N,Net-(J2-Pin_4)*%
X53315000Y-65620000D02*
X54595000Y-64340000D01*
X53315000Y-67755000D02*
X53315000Y-65620000D01*
%TO.N,Net-(J2-Pin_3)*%
X55855000Y-67755000D02*
X55855000Y-66255000D01*
X57135000Y-64975000D02*
X57135000Y-63705000D01*
X57135000Y-63705000D02*
X56500000Y-63070000D01*
X56500000Y-63070000D02*
X54595000Y-63070000D01*
X55855000Y-66255000D02*
X57135000Y-64975000D01*
%TO.N,Net-(J3-Pin_2)*%
X49190000Y-53595000D02*
X48900000Y-53305000D01*
X49190000Y-59260000D02*
X49190000Y-53595000D01*
%TO.N,Net-(J3-Pin_1)*%
X46360000Y-53305000D02*
X46360000Y-60510000D01*
X46340000Y-60530000D02*
X47610000Y-61800000D01*
X46360000Y-60510000D02*
X46340000Y-60530000D01*
X47610000Y-61800000D02*
X49190000Y-61800000D01*
%TO.N,Net-(D2-A)*%
X61580000Y-56395000D02*
X61580000Y-57355000D01*
X61580000Y-57355000D02*
X60945000Y-57990000D01*
X66660000Y-54815000D02*
X63160000Y-54815000D01*
X63160000Y-54815000D02*
X61580000Y-56395000D01*
X67295000Y-56290000D02*
X67295000Y-55450000D01*
X67295000Y-55450000D02*
X66660000Y-54815000D01*
X60945000Y-57990000D02*
X59545000Y-57990000D01*
%TO.N,Net-(D1-A)*%
X61580000Y-59260000D02*
X59545000Y-59260000D01*
X64135000Y-56705000D02*
X61580000Y-59260000D01*
X64135000Y-56290000D02*
X64135000Y-56705000D01*
%TO.N,Net-(D1-K)*%
X64135000Y-59690000D02*
X64135000Y-62110000D01*
%TO.N,Net-(D2-K)*%
X67295000Y-59690000D02*
X67295000Y-62095000D01*
X67295000Y-62095000D02*
X67310000Y-62110000D01*
%TO.N,Net-(Q1-G)*%
X62215000Y-63070000D02*
X62215000Y-61800000D01*
X68565000Y-67515000D02*
X69835000Y-66245000D01*
X48880000Y-73230000D02*
X62850000Y-73230000D01*
X60945000Y-60530000D02*
X59545000Y-60530000D01*
X69835000Y-64340000D02*
X69200000Y-63705000D01*
X69835000Y-66245000D02*
X69835000Y-64340000D01*
X64755000Y-67515000D02*
X68565000Y-67515000D01*
X62850000Y-73230000D02*
X62850000Y-69420000D01*
X62850000Y-69420000D02*
X64755000Y-67515000D01*
X46545000Y-66985000D02*
X49190000Y-64340000D01*
X62850000Y-63705000D02*
X62215000Y-63070000D01*
X62215000Y-61800000D02*
X60945000Y-60530000D01*
X46545000Y-69420000D02*
X46545000Y-70895000D01*
X69200000Y-63705000D02*
X62850000Y-63705000D01*
X46545000Y-69420000D02*
X46545000Y-66985000D01*
X46545000Y-70895000D02*
X48880000Y-73230000D01*
%TD*%
M02*
